<?xml version="1.0" ?><!DOCTYPE svg  PUBLIC '-//W3C//DTD SVG 1.1//EN'  'http://www.w3.org/Graphics/SVG/1.1/DTD/svg11.dtd'><svg enable-background="new 0 0 1024 1024" height="1024px" id="Layer_1" version="1.1" viewBox="0 0 1024 1024" width="1024px" xml:space="preserve" xmlns="http://www.w3.org/2000/svg" xmlns:xlink="http://www.w3.org/1999/xlink"><g><path clip-rule="evenodd" d="M0,129c341.543,0,682.419,0,1024,0c0,255.321,0,510.339,0,766    c-341.229,0-682.356,0-1024,0C0,639.773,0,384.986,0,129z M158.051,886.734c4.165,0.188,6.797,0.414,9.43,0.414    c233.453,0.016,466.905-0.02,700.358,0.161c7.741,0.006,10.38-1.91,10.296-10.057c-0.429-41.188-0.605-82.39-0.021-123.574    c0.157-11.063-3.743-17.878-12.557-24.083c-90.044-63.414-179.92-127.069-269.649-190.928c-6.371-4.535-10.107-4.506-15.978,0.829    c-21.27,19.313-43.13,37.978-65.113,57.189c-27.49-23.206-54.569-46.067-81.548-68.842c-1.404,0.827-2.337,1.235-3.104,1.852    c-87.461,70.235-174.892,140.509-262.387,210.699c-7.473,5.995-10.078,13.562-9.988,22.888    c0.278,29.133,0.207,58.271,0.257,87.406C158.068,862.379,158.051,874.072,158.051,886.734z M829.581,137.437    c-208.839,0-414.434,0-621.856,0c101.67,102.684,201.989,204.001,303.387,306.41C619.429,344.39,724.724,243.007,829.581,137.437z     M876.794,710.249c0-143.712,0-285.039,0-428.049c-91.83,79.507-182.308,157.839-273.496,236.787    C694.951,583.082,785.318,646.278,876.794,710.249z M416.588,513.54c-86.212-73.296-171.377-145.703-257.702-219.096    c0,142.654,0,282.795,0,424.915C245.238,650.394,330.329,582.433,416.588,513.54z" fill-rule="evenodd"/></g></svg>