<svg width="285" height="67" viewBox="0 0 285 67" fill="none" xmlns="http://www.w3.org/2000/svg">
<path d="M50.3012 65.5373C49.5703 66.4652 48.4545 67.0078 47.2758 66.9998L20.5109 66.9606C19.3402 66.9606 18.2242 66.418 17.4935 65.4901L0.842061 44.3458C0.111254 43.4179 -0.16378 42.1992 0.095538 41.0433L6.09916 14.7171C6.35847 13.5612 7.12858 12.5861 8.18943 12.075L32.3296 0.38236C33.3826 -0.128751 34.6163 -0.128752 35.6772 0.390224L59.7781 12.1458C60.8311 12.6648 61.6012 13.6398 61.8605 14.7957L67.7777 41.1455C68.037 42.3014 67.7541 43.5123 67.0233 44.4402L50.3012 65.5373Z" fill="url(#paint0_linear_8_699)"/>
<path d="M38.0305 41.0741C38.6906 41.0819 39.3821 41.1133 39.5707 41.1447C39.7594 41.1763 40.2074 41.2706 40.5531 41.3648C40.9067 41.4592 41.4175 41.6321 41.7004 41.7421C41.9755 41.8521 42.3685 42.0329 42.5728 42.143C42.7772 42.253 43.0914 42.4338 43.2644 42.5359C43.4451 42.6381 43.7674 42.8581 43.9874 43.0232C44.2074 43.1882 44.6398 43.5733 44.9619 43.8877C45.2763 44.1942 45.6614 44.6187 45.8185 44.823C45.9678 45.0274 46.2193 45.3811 46.3687 45.6011C46.51 45.8212 46.7301 46.1905 46.8481 46.4263C46.9738 46.6621 47.1624 47.0943 47.2803 47.3929C47.3903 47.6838 47.5318 48.0925 47.5946 48.3047C47.6496 48.509 47.7047 48.737 47.7203 48.8076C47.7361 48.8862 47.7833 49.1221 47.8303 49.3421C47.8775 49.5622 47.9247 49.9865 47.9482 50.2852C47.964 50.576 48.0112 50.8511 48.0426 50.8825C48.0818 50.9297 48.2469 50.9533 48.5456 50.9533C48.7891 50.9533 49.0956 50.9689 49.2371 51.0003C49.3707 51.0239 49.6536 51.0789 49.8579 51.1104C50.0623 51.1497 50.3844 51.2284 50.581 51.2834C50.7695 51.3384 51.0525 51.4406 51.2175 51.4956C51.3746 51.5506 51.6969 51.6921 51.9326 51.8099C52.1685 51.9199 52.5849 52.1636 52.8678 52.3444C53.1979 52.5645 53.5831 52.8867 53.9838 53.3032C54.3296 53.6489 54.7147 54.097 54.864 54.3249C55.0055 54.5449 55.2019 54.883 55.2962 55.0716C55.3906 55.2601 55.4691 55.4645 55.4691 55.5273C55.4691 55.5823 55.3512 55.7788 55.2098 55.9518C55.0683 56.1325 54.6283 56.6984 54.2196 57.2093C53.811 57.728 53.418 58.2309 53.3316 58.3331C53.2451 58.4432 52.9386 58.8361 52.6399 59.2213C52.3414 59.6064 52.0819 59.9285 52.0663 59.9443C52.0505 59.9601 51.909 60.1407 51.7441 60.3452C51.579 60.5494 51.3197 60.8875 51.1625 61.0918C51.0054 61.2962 50.8638 61.4768 50.8482 61.4926C50.8324 61.5083 50.6753 61.7049 50.5024 61.9249C50.3217 62.145 50.1487 62.365 50.1016 62.4121C50.0544 62.4671 49.9366 62.6165 49.8344 62.7579C49.7323 62.8916 49.3864 63.3316 49.072 63.7325C48.7499 64.1334 48.4198 64.5419 48.3255 64.6363C48.2311 64.7385 48.0426 64.8486 47.909 64.8956C47.6889 64.9586 47.1624 64.9742 44.3411 64.9664C42.5257 64.9586 36.2386 64.9428 30.3759 64.935C24.5133 64.9272 19.6329 64.9036 19.5307 64.8878C19.4286 64.8642 19.2478 64.7936 19.13 64.7306C19.0121 64.6599 18.855 64.5341 18.7764 64.4555C18.6977 64.3691 18.5249 64.1726 18.3992 64.0076C18.2734 63.8426 18.0139 63.5047 17.8254 63.253C17.6369 63.0094 17.4718 62.7973 17.456 62.7815C17.4325 62.7657 17.2281 62.4986 16.9845 62.192C16.7488 61.8777 16.4108 61.4454 16.2379 61.2254C16.0571 61.0053 15.7664 60.6359 15.5856 60.4002C15.397 60.1643 15.2084 59.9285 15.1691 59.8815C15.122 59.8343 15.012 59.685 14.9177 59.5592C14.8233 59.4334 14.5561 59.0877 14.3282 58.789C14.1003 58.4982 13.5738 57.8302 13.1573 57.3035C12.7408 56.7848 12.4028 56.3291 12.4028 56.3055C12.4028 56.2741 12.4736 56.1483 12.56 56.0224C12.6465 55.8968 12.8744 55.6374 13.0787 55.4409C13.2752 55.2523 13.5345 55.0244 13.6524 54.93C13.7703 54.8436 14.0217 54.6707 14.2104 54.5529C14.399 54.4349 14.6662 54.2856 14.7919 54.2306C14.9255 54.1676 15.1298 54.0812 15.2477 54.0342C15.3656 53.9792 15.6327 53.8926 15.845 53.8376C16.0571 53.7825 16.285 53.7355 16.348 53.7355C16.4188 53.7355 16.4973 53.7039 16.5287 53.6725C16.5679 53.6255 16.5995 53.2796 16.6151 52.8001C16.6387 52.2972 16.6859 51.7707 16.7644 51.409C16.8274 51.0789 16.9531 50.5996 17.0395 50.3324C17.1259 50.0729 17.2832 49.6722 17.3854 49.4522C17.4875 49.2321 17.6761 48.8705 17.8096 48.6504C17.9512 48.4304 18.1869 48.0767 18.3362 47.8724C18.4855 47.668 18.8628 47.2593 19.1614 46.9606C19.4679 46.6621 19.9159 46.2769 20.1673 46.104C20.4109 45.9312 20.8825 45.6561 21.2046 45.4831C21.5269 45.3181 21.9277 45.1374 22.1084 45.0744C22.2814 45.0116 22.5957 44.9174 22.8 44.8623C23.0043 44.7994 23.3266 44.7207 23.5153 44.6815C23.751 44.6343 24.254 44.6107 25.087 44.6107C25.8965 44.6107 26.4073 44.6343 26.5958 44.6737C26.7609 44.7129 26.9888 44.7758 27.1066 44.8073C27.2245 44.8387 27.5468 44.9408 27.8219 45.0274C28.097 45.1216 28.5528 45.3103 28.8357 45.4517C29.1107 45.5931 29.3621 45.7111 29.3936 45.7111C29.4172 45.7111 29.535 45.5695 29.6529 45.3967C29.7629 45.2316 29.9988 44.9174 30.1637 44.7129C30.3289 44.5087 30.6825 44.1314 30.9418 43.8877C31.2011 43.6363 31.6176 43.2746 31.8612 43.0782C32.1127 42.8895 32.4664 42.6303 32.6629 42.5202C32.8514 42.4022 33.2601 42.1822 33.5666 42.0251C33.8732 41.8757 34.376 41.6714 34.6825 41.5692C34.9891 41.467 35.4528 41.3334 35.7199 41.2706C35.9793 41.2155 36.3408 41.1369 36.5137 41.1133C36.6866 41.0819 37.3704 41.0663 38.0305 41.0741Z" fill="white"/>
<path d="M23.2497 21.4123H25.7809L22.3693 17.0796L25.663 12.9122H23.2261L20.3964 16.6393V12.9122H18.329V21.4123H20.3964V17.6615L23.2497 21.4123ZM33.4293 14.6499H31.3619V18.3221C31.3619 19.242 30.8509 19.7532 30.0491 19.7532C29.2788 19.7532 28.7601 19.242 28.7601 18.3221V14.6499H26.7005V18.5973C26.7005 20.4058 27.7538 21.483 29.318 21.483C30.222 21.483 30.9453 21.0663 31.3619 20.4923V21.4123H33.4293V14.6499ZM36.99 15.6014V12.4404H34.9228V21.4044H36.99V20.4609C37.3674 21.0505 38.0827 21.4988 39.073 21.4988C40.7316 21.4988 42.0522 20.1463 42.0522 18.0154C42.0522 15.8845 40.7396 14.5477 39.073 14.5477C38.1063 14.5477 37.3674 14.9959 36.99 15.6014ZM39.9456 18.0154C39.9456 19.0926 39.2381 19.698 38.4521 19.698C37.6817 19.698 36.9744 19.1005 36.9744 18.0233C36.9744 16.946 37.6817 16.3563 38.4521 16.3563C39.2381 16.3563 39.9456 16.9382 39.9456 18.0154ZM46.1161 16.2069C46.8079 16.2069 47.3895 16.6315 47.3895 17.3706H44.7955C44.9214 16.6236 45.4402 16.2069 46.1161 16.2069ZM49.3469 19.1634H47.146C46.9729 19.5252 46.6506 19.816 46.0689 19.816C45.4008 19.816 44.8585 19.4072 44.7877 18.5187H49.4727C49.4963 18.3141 49.5041 18.1097 49.5041 17.9131C49.5041 15.8609 48.1127 14.5477 46.1397 14.5477C44.1352 14.5477 42.7283 15.8845 42.7283 18.0233C42.7283 20.1699 44.1588 21.4988 46.1397 21.4988C47.8219 21.4988 49.0245 20.4845 49.3469 19.1634ZM14.6817 32.4129C14.6503 29.8967 10.9951 30.6593 10.9951 29.582C10.9951 29.2596 11.2624 29.0632 11.7419 29.0632C12.3235 29.0632 12.6773 29.3618 12.7402 29.8259H14.6503C14.5166 28.4891 13.5498 27.5219 11.8047 27.5219C10.0361 27.5219 9.05355 28.4655 9.05355 29.6214C9.05355 32.0983 12.7402 31.312 12.7402 32.4049C12.7402 32.7037 12.4572 32.9475 11.9227 32.9475C11.3567 32.9475 10.9322 32.6329 10.8851 32.1612H8.84131C8.93564 33.4665 10.1462 34.473 11.9462 34.473C13.6441 34.473 14.6817 33.5924 14.6817 32.4129ZM15.9551 34.3786H18.0224V27.6241H15.9551V34.3786ZM17.0006 26.9164C17.7237 26.9164 18.2191 26.4212 18.2191 25.7999C18.2191 25.1709 17.7237 24.6754 17.0006 24.6754C16.2616 24.6754 15.7664 25.1709 15.7664 25.7999C15.7664 26.4212 16.2616 26.9164 17.0006 26.9164ZM28.8386 34.3786H30.8981V30.4313C30.8981 28.6149 29.8134 27.5455 28.147 27.5455C27.1643 27.5455 26.3154 28.0881 25.8673 28.8036C25.4115 27.9937 24.5861 27.5455 23.572 27.5455C22.6838 27.5455 21.9999 27.9229 21.5991 28.4655V27.6163H19.5239V34.3786H21.5991V30.7065C21.5991 29.8259 22.1021 29.3384 22.8961 29.3384C23.6821 29.3384 24.1851 29.8259 24.1851 30.7065V34.3786H26.2447V30.7065C26.2447 29.8259 26.7556 29.3384 27.5417 29.3384C28.3277 29.3384 28.8386 29.8259 28.8386 30.7065V34.3786ZM34.4196 28.5756V27.6241H32.3444V37.6025H34.4196V33.435C34.789 34.0012 35.5043 34.473 36.5026 34.473C38.1612 34.473 39.474 33.1205 39.474 30.9896C39.474 28.8586 38.1612 27.5219 36.5026 27.5219C35.5043 27.5219 34.789 27.9859 34.4196 28.5756ZM37.3674 30.9896C37.3674 32.0668 36.6678 32.6723 35.8817 32.6723C35.1035 32.6723 34.4038 32.0747 34.4038 30.9974C34.4038 29.9203 35.1035 29.3304 35.8817 29.3304C36.6678 29.3304 37.3674 29.9123 37.3674 30.9896ZM40.5665 34.3786H42.6339V25.4147H40.5665V34.3786ZM44.1352 34.3786H46.2104V27.6241H44.1352V34.3786ZM45.1807 26.9164C45.904 26.9164 46.3992 26.4212 46.3992 25.8077C46.3992 25.1787 45.904 24.6834 45.1807 24.6834C44.4419 24.6834 43.9467 25.1787 43.9467 25.8077C43.9467 26.4212 44.4419 26.9164 45.1807 26.9164ZM47.9162 34.3786H49.9836V29.3384H51.0997V27.6241H49.9836V27.5613C49.9836 26.8458 50.2665 26.602 51.0605 26.657V24.8956C49.0009 24.7856 47.9162 25.6583 47.9162 27.4276V27.6241H47.1616V29.3384H47.9162V34.3786ZM55.1794 31.8546L53.6151 27.6241H51.3042L54.0553 34.1506L52.4989 37.5947H54.7314L58.9682 27.6241H56.7279L55.1794 31.8546Z" fill="white"/>
<path fill-rule="evenodd" clip-rule="evenodd" d="M33.8602 46.9147C33.3516 47.0674 33.0685 48.2686 33.3124 49.239C33.3542 49.4053 33.3599 49.4548 33.3599 49.6534V49.8791L33.3011 49.9037C33.269 49.9173 33.181 49.9376 33.1059 49.9488C33.0307 49.9601 32.9551 49.9768 32.938 49.986C32.9208 49.9952 32.8553 50.0109 32.7924 50.0206C32.3711 50.086 31.7612 50.3513 31.1752 50.7242C30.8226 50.9484 30.65 50.9014 30.4693 50.5319C30.1286 49.836 29.0724 49.0511 28.5935 49.1382C27.7733 49.2871 28.4059 50.6491 29.6328 51.3757C29.9775 51.5798 30.0412 51.7256 29.8903 51.9646C29.8536 52.0226 29.7899 52.1231 29.7488 52.1878C29.7077 52.2526 29.674 52.3111 29.674 52.3178C29.674 52.3245 29.6515 52.365 29.6242 52.408C29.3794 52.7904 29.1009 53.5717 29.0295 54.0768C28.9983 54.297 28.8119 54.3563 28.469 54.2548C27.2937 53.9072 25.7048 54.4042 26.0589 55.0088C26.149 55.1627 26.3988 55.3665 26.5217 55.3865C26.5531 55.3917 26.6391 55.4168 26.7128 55.4424C27.0699 55.5667 27.9649 55.5726 28.3906 55.4535C28.4867 55.4268 28.569 55.4171 28.7399 55.4131C29.0064 55.4068 28.9978 55.4007 29.0345 55.6223C29.1512 56.3295 29.4028 56.9695 29.8151 57.608C29.8655 57.6859 29.9328 57.7942 29.9647 57.8488L30.0225 57.9476L29.9738 58.0093C29.8941 58.1099 29.7727 58.2106 29.6123 58.3094C28.9998 58.6859 28.4373 59.3207 28.2855 59.8066C27.8778 61.1108 29.6175 60.6088 30.4563 59.18C30.6712 58.814 30.821 58.7406 31.0469 58.8904C31.665 59.3007 32.2097 59.5462 32.7655 59.6651C32.8502 59.6833 32.9423 59.7075 32.9703 59.7192C32.9982 59.7308 33.0637 59.7453 33.1157 59.7513C33.3555 59.7786 33.3599 59.7838 33.3599 60.0399C33.3599 60.205 33.3539 60.2473 33.3121 60.3838C33.1304 60.974 33.2013 61.8239 33.4783 62.3755C34.068 63.5496 34.9133 62.0552 34.5616 60.4605C34.441 59.9136 34.4782 59.8049 34.809 59.7366C35.5913 59.5753 36.0054 59.4067 36.7097 58.963C37.0748 58.7329 37.1562 58.7595 37.4125 59.1929C38.0548 60.2789 39.3271 60.927 39.6341 60.3245C39.7676 60.0623 39.6146 59.6633 39.1519 59.0683C39.0128 58.8895 38.5934 58.5186 38.3846 58.3899C38.1442 58.2417 37.9224 58.0645 37.8816 57.988C37.8532 57.9351 37.8666 57.9054 38.0414 57.6336C38.4435 57.0084 38.6001 56.6516 38.7546 56.0084C38.787 55.874 38.8321 55.6859 38.8551 55.5906L38.8968 55.4173L39.1094 55.4178C39.2831 55.4182 39.3421 55.4246 39.4329 55.4531C40.5356 55.7972 42.1436 55.2887 41.8383 54.6923C41.6059 54.2383 40.3184 53.9791 39.506 54.2228C39.3393 54.2728 39.207 54.2875 39.0305 54.2758L38.8965 54.2669L38.8629 54.1328C38.8443 54.0592 38.7992 53.8711 38.7624 53.7152C38.6086 53.0613 38.4283 52.6516 38.0202 52.0292C37.8151 51.7163 37.8575 51.5972 38.2507 51.381C39.4851 50.7021 40.1191 49.1263 39.1564 49.1296C38.8851 49.1305 38.8046 49.1666 38.3137 49.5076C37.9919 49.7313 37.5964 50.1792 37.3886 50.5552C37.1787 50.9356 37.0643 50.9566 36.6446 50.6909C36.113 50.3545 35.6369 50.1436 35.1837 50.0439C35.1206 50.0299 35.0405 50.0115 35.006 50.0031C34.9713 49.9945 34.8732 49.9737 34.7881 49.9566C34.4638 49.8921 34.4099 49.7749 34.5231 49.3812C34.8406 48.2788 34.428 46.744 33.8602 46.9147ZM33.3374 51.4181C33.3585 51.4651 33.3655 52.887 33.345 52.9631C33.3208 53.0533 33.2872 53.0799 33.1448 53.1219L33.0229 53.1577L32.4668 52.6007C32.1435 52.2769 31.9107 52.0317 31.9107 52.0151C31.9107 51.9505 32.3208 51.7136 32.6593 51.5826C33.0942 51.414 33.3119 51.3613 33.3374 51.4181ZM34.802 51.4446C35.2111 51.5544 35.9588 51.9201 35.9588 52.0104C35.9588 52.0207 35.7049 52.2831 35.3943 52.5938L34.8298 53.1585L34.7051 53.1153C34.4716 53.0345 34.4741 53.045 34.4811 52.1518C34.4875 51.3266 34.4739 51.3567 34.802 51.4446ZM31.2019 52.915C31.2409 52.9458 31.4876 53.1882 31.7502 53.4534C32.2961 54.0052 32.2585 53.9399 32.1633 54.1686L32.1126 54.2905L31.5272 54.2903C30.7782 54.2903 30.4935 54.2783 30.4811 54.2461C30.4458 54.154 30.6372 53.6061 30.857 53.17C31.0425 52.8018 31.051 52.7956 31.2019 52.915ZM36.8544 52.9028C37.0518 53.1755 37.3446 53.903 37.3825 54.2156L37.3917 54.2905H36.581H35.7705L35.7287 54.2081C35.7058 54.1628 35.6736 54.0871 35.6574 54.0398L35.628 53.954L35.7491 53.8268C36.5213 53.0149 36.7792 52.7992 36.8544 52.9028ZM32.1254 55.4667C32.1489 55.5068 32.1849 55.5856 32.2052 55.6417L32.2422 55.7439L31.8678 56.1243C31.6617 56.3336 31.4021 56.5933 31.2909 56.7015L31.0886 56.8983L31.0513 56.855C30.8218 56.588 30.4093 55.5339 30.4991 55.4439C30.5338 55.4092 30.7245 55.4001 31.4966 55.3965L32.0827 55.3937L32.1254 55.4667ZM36.9415 55.4042C37.4186 55.4164 37.3919 55.4042 37.3608 55.5964C37.3282 55.7994 37.1482 56.2737 37.0062 56.5316C36.7696 56.9609 36.8661 56.9872 36.1902 56.3106L35.6261 55.7461L35.6672 55.637C35.6899 55.577 35.7259 55.4978 35.7476 55.4607L35.787 55.3937H36.1618C36.3679 55.3937 36.7188 55.3984 36.9415 55.4042ZM35.3062 57.0209C36.0512 57.7535 36.0294 57.707 35.7069 57.8788C35.3396 58.0743 34.8293 58.2669 34.5844 58.3022L34.5094 58.313L34.5136 57.4885L34.5177 56.6641L34.6436 56.6127C34.8313 56.5363 34.7832 56.5066 35.3062 57.0209ZM33.2693 56.6301L33.3599 56.6726V57.4931V58.3137L33.2844 58.3047C33.1799 58.2923 32.8363 58.19 32.7219 58.1371C32.6699 58.1131 32.592 58.0807 32.5487 58.0651C32.3473 57.9926 31.9107 57.7467 31.9107 57.7059C31.9107 57.6592 32.89 56.664 33.0039 56.5951C33.0518 56.566 33.1643 56.5808 33.2693 56.6301Z" fill="url(#paint1_linear_8_699)"/>
<path d="M96.9468 43.8071L89.2575 34.3874V43.8071H85.0193V22.6659H89.2575V32.1461L96.9468 22.6659H102.063L93.3443 33.1456L102.305 43.8071H96.9468ZM120.926 27.0274V43.8071H116.657V41.6869C116.112 42.4138 115.396 42.9893 114.508 43.4134C113.64 43.8173 112.691 44.0192 111.662 44.0192C110.35 44.0192 109.19 43.7465 108.181 43.2013C107.172 42.6359 106.374 41.8182 105.789 40.748C105.224 39.6575 104.941 38.3654 104.941 36.8711V27.0274H109.18V36.2653C109.18 37.598 109.513 38.6278 110.179 39.3547C110.845 40.0614 111.753 40.4147 112.903 40.4147C114.074 40.4147 114.992 40.0614 115.658 39.3547C116.324 38.6278 116.657 37.598 116.657 36.2653V27.0274H120.926ZM129.346 29.4808C129.89 28.6731 130.637 28.0169 131.586 27.512C132.555 27.0072 133.654 26.7548 134.885 26.7548C136.318 26.7548 137.61 27.1082 138.76 27.8149C139.931 28.5217 140.849 29.5313 141.515 30.8438C142.201 32.1359 142.545 33.6404 142.545 35.3567C142.545 37.073 142.201 38.5974 141.515 39.9303C140.849 41.2428 139.931 42.2624 138.76 42.9893C137.61 43.7163 136.318 44.0797 134.885 44.0797C133.634 44.0797 132.534 43.8374 131.586 43.3528C130.657 42.848 129.911 42.2019 129.346 41.4144V43.8071H125.107V21.3937H129.346V29.4808ZM138.215 35.3567C138.215 34.3471 138.004 33.4788 137.58 32.7519C137.176 32.0048 136.631 31.4394 135.945 31.0557C135.279 30.672 134.552 30.4802 133.765 30.4802C132.998 30.4802 132.272 30.6822 131.586 31.086C130.92 31.4697 130.375 32.035 129.951 32.7822C129.547 33.5292 129.346 34.4076 129.346 35.4172C129.346 36.4268 129.547 37.3053 129.951 38.0523C130.375 38.7994 130.92 39.375 131.586 39.7788C132.272 40.1623 132.998 40.3543 133.765 40.3543C134.552 40.3543 135.279 40.1523 135.945 39.7485C136.631 39.3447 137.176 38.7692 137.58 38.022C138.004 37.275 138.215 36.3865 138.215 35.3567ZM161.215 35.0538C161.215 35.6596 161.175 36.2047 161.093 36.6893H148.833C148.934 37.9009 149.358 38.8499 150.105 39.5364C150.852 40.223 151.77 40.5662 152.86 40.5662C154.434 40.5662 155.554 39.8898 156.22 38.537H160.79C160.306 40.1523 159.378 41.485 158.005 42.5349C156.634 43.5649 154.948 44.0797 152.95 44.0797C151.336 44.0797 149.883 43.7263 148.591 43.0196C147.32 42.2927 146.321 41.2729 145.594 39.9604C144.888 38.6479 144.535 37.1335 144.535 35.4172C144.535 33.6807 144.888 32.1563 145.594 30.8438C146.3 29.5313 147.289 28.5217 148.561 27.8149C149.832 27.1082 151.295 26.7548 152.95 26.7548C154.545 26.7548 155.968 27.098 157.219 27.7846C158.491 28.4712 159.469 29.4505 160.155 30.7225C160.862 31.9745 161.215 33.4183 161.215 35.0538ZM156.826 33.8423C156.806 32.7519 156.412 31.8835 155.645 31.2374C154.878 30.571 153.939 30.238 152.829 30.238C151.78 30.238 150.892 30.561 150.165 31.2071C149.459 31.8331 149.025 32.7115 148.863 33.8423H156.826ZM170.727 44.0797C169.354 44.0797 168.123 43.8374 167.032 43.3528C165.944 42.848 165.075 42.1716 164.43 41.3234C163.804 40.4754 163.462 39.5364 163.401 38.5066H167.668C167.749 39.1527 168.062 39.6879 168.607 40.1119C169.172 40.536 169.869 40.748 170.695 40.748C171.503 40.748 172.129 40.5865 172.573 40.2633C173.037 39.9403 173.27 39.5264 173.27 39.0216C173.27 38.4763 172.987 38.0725 172.422 37.8101C171.876 37.5274 170.999 37.2245 169.788 36.9014C168.537 36.5985 167.507 36.2855 166.7 35.9625C165.912 35.6394 165.227 35.1446 164.641 34.4784C164.077 33.812 163.794 32.9135 163.794 31.7826C163.794 30.8538 164.057 30.0058 164.582 29.2384C165.125 28.4712 165.892 27.8654 166.881 27.4211C167.89 26.9769 169.071 26.7548 170.424 26.7548C172.422 26.7548 174.016 27.2596 175.207 28.2693C176.397 29.2585 177.053 30.6014 177.175 32.2975H173.118C173.057 31.6311 172.775 31.1062 172.27 30.7225C171.786 30.3186 171.13 30.1167 170.302 30.1167C169.535 30.1167 168.94 30.2582 168.516 30.5409C168.113 30.8234 167.91 31.2173 167.91 31.7221C167.91 32.2874 168.193 32.7215 168.759 33.0244C169.324 33.3072 170.202 33.5999 171.392 33.9028C172.603 34.2056 173.602 34.5187 174.39 34.8417C175.177 35.1648 175.852 35.6696 176.417 36.3561C177.003 37.0225 177.306 37.911 177.326 39.0216C177.326 39.9907 177.053 40.8591 176.508 41.6263C175.983 42.3936 175.216 42.9994 174.207 43.4436C173.218 43.8677 172.058 44.0797 170.727 44.0797ZM182.955 25.0283C182.208 25.0283 181.582 24.7961 181.077 24.3318C180.593 23.8471 180.351 23.2514 180.351 22.5446C180.351 21.8379 180.593 21.2525 181.077 20.788C181.582 20.3033 182.208 20.0611 182.955 20.0611C183.701 20.0611 184.317 20.3033 184.801 20.788C185.306 21.2525 185.557 21.8379 185.557 22.5446C185.557 23.2514 185.306 23.8471 184.801 24.3318C184.317 24.7961 183.701 25.0283 182.955 25.0283ZM185.043 27.0274V43.8071H180.805V27.0274H185.043ZM210.058 26.785C212.117 26.785 213.771 27.4211 215.022 28.6933C216.294 29.9451 216.93 31.7019 216.93 33.9634V43.8071H212.692V34.5388C212.692 33.2263 212.359 32.2269 211.694 31.5403C211.027 30.8336 210.119 30.4802 208.968 30.4802C207.818 30.4802 206.9 30.8336 206.214 31.5403C205.547 32.2269 205.214 33.2263 205.214 34.5388V43.8071H200.976V34.5388C200.976 33.2263 200.644 32.2269 199.977 31.5403C199.311 30.8336 198.404 30.4802 197.252 30.4802C196.082 30.4802 195.154 30.8336 194.467 31.5403C193.802 32.2269 193.469 33.2263 193.469 34.5388V43.8071H189.231V27.0274H193.469V29.0566C194.014 28.3499 194.709 27.7946 195.557 27.3908C196.426 26.9869 197.374 26.785 198.404 26.785C199.716 26.785 200.886 27.0677 201.915 27.6332C202.944 28.1783 203.741 28.9658 204.307 29.9956C204.852 29.0265 205.639 28.2489 206.667 27.6635C207.717 27.0779 208.848 26.785 210.058 26.785ZM225.19 29.4505C225.735 28.6831 226.482 28.047 227.43 27.5422C228.398 27.0172 229.5 26.7548 230.731 26.7548C232.163 26.7548 233.455 27.1082 234.605 27.8149C235.776 28.5217 236.695 29.5313 237.36 30.8438C238.046 32.1359 238.389 33.6404 238.389 35.3567C238.389 37.073 238.046 38.5974 237.36 39.9303C236.695 41.2428 235.776 42.2624 234.605 42.9893C233.455 43.7163 232.163 44.0797 230.731 44.0797C229.5 44.0797 228.409 43.8273 227.461 43.3225C226.532 42.8177 225.776 42.1816 225.19 41.4144V51.8032H220.952V27.0274H225.19V29.4505ZM234.061 35.3567C234.061 34.3471 233.848 33.4788 233.425 32.7519C233.021 32.0048 232.475 31.4394 231.79 31.0557C231.124 30.672 230.398 30.4802 229.611 30.4802C228.844 30.4802 228.117 30.6822 227.43 31.086C226.764 31.4697 226.219 32.035 225.796 32.7822C225.391 33.5292 225.19 34.4076 225.19 35.4172C225.19 36.4268 225.391 37.3053 225.796 38.0523C226.219 38.7994 226.764 39.375 227.43 39.7788C228.117 40.1623 228.844 40.3543 229.611 40.3543C230.398 40.3543 231.124 40.1523 231.79 39.7485C232.475 39.3447 233.021 38.7692 233.425 38.022C233.848 37.275 234.061 36.3865 234.061 35.3567ZM245.708 21.3937V43.8071H241.468V21.3937H245.708ZM252.044 25.0283C251.297 25.0283 250.672 24.7961 250.167 24.3318C249.683 23.8471 249.441 23.2514 249.441 22.5446C249.441 21.8379 249.683 21.2525 250.167 20.788C250.672 20.3033 251.297 20.0611 252.044 20.0611C252.79 20.0611 253.406 20.3033 253.89 20.788C254.394 21.2525 254.647 21.8379 254.647 22.5446C254.647 23.2514 254.394 23.8471 253.89 24.3318C253.406 24.7961 252.79 25.0283 252.044 25.0283ZM254.134 27.0274V43.8071H249.894V27.0274H254.134ZM266.01 30.5106H263.073V43.8071H258.774V30.5106H256.867V27.0274H258.774V26.1792C258.774 24.1197 259.36 22.6053 260.53 21.636C261.7 20.6669 263.467 20.2125 265.827 20.273V23.8471C264.798 23.827 264.082 23.9986 263.678 24.3619C263.275 24.7255 263.073 25.3817 263.073 26.3307V27.0274H266.01V30.5106ZM284.8 27.0274L274.417 51.7427H269.906L273.539 43.3831L266.819 27.0274H271.571L275.901 38.7489L280.29 27.0274H284.8Z" fill="url(#paint2_linear_8_699)"/>
<defs>
<linearGradient id="paint0_linear_8_699" x1="0.457013" y1="0.0049235" x2="67.4599" y2="66.9562" gradientUnits="userSpaceOnUse">
<stop stop-color="#5CFF68"/>
<stop offset="1" stop-color="#05CAFF"/>
</linearGradient>
<linearGradient id="paint1_linear_8_699" x1="26.1154" y1="46.9027" x2="42.0086" y2="62.5532" gradientUnits="userSpaceOnUse">
<stop stop-color="#5CFF68"/>
<stop offset="1" stop-color="#05CAFF"/>
</linearGradient>
<linearGradient id="paint2_linear_8_699" x1="84.291" y1="10.4901" x2="103.981" y2="96.8711" gradientUnits="userSpaceOnUse">
<stop stop-color="#5CFF68"/>
<stop offset="1" stop-color="#05CAFF"/>
</linearGradient>
</defs>
</svg>
