<svg width="34" height="34" viewBox="0 0 34 34" fill="none" xmlns="http://www.w3.org/2000/svg">
<path d="M19.2539 16.5381L15.3324 15.4209C14.7516 15.2494 14.3423 14.7129 14.3423 14.11C14.3423 13.3633 14.9562 12.7493 15.7029 12.7493H18.1532C18.7008 12.7493 19.2208 12.9208 19.6577 13.236C19.8568 13.3799 20.1334 13.3356 20.3104 13.1586L21.0682 12.4008C21.3005 12.1685 21.2618 11.7869 21.0018 11.5878C20.1887 10.9627 19.1986 10.6253 18.1532 10.6253H18.0647V9.03237C18.0647 8.73922 17.8269 8.50138 17.5282 8.50138H16.4662C16.1731 8.50138 15.9353 8.73922 15.9353 9.03237V10.6253H15.7029C13.673 10.6253 12.0413 12.3732 12.2349 14.4418C12.3732 15.9131 13.5015 17.1079 14.9175 17.5116L18.6676 18.5791C19.2484 18.7506 19.6577 19.2871 19.6577 19.89C19.6577 20.6423 19.0438 21.2507 18.2971 21.2507H15.8468C15.2992 21.2507 14.7792 21.0792 14.3423 20.7639C14.1432 20.6201 13.8611 20.6644 13.6896 20.8414L12.9318 21.5992C12.6995 21.8315 12.7382 22.2131 12.9982 22.4122C13.8113 23.0373 14.8014 23.3747 15.8468 23.3747H15.9353V24.9676C15.9353 25.2608 16.1731 25.4986 16.4662 25.4986H17.5282C17.8269 25.4986 18.0647 25.2608 18.0647 24.9676V23.3747H18.1532C19.6688 23.3747 21.0958 22.4731 21.5881 21.0405C22.2629 19.0714 21.1014 17.0691 19.2539 16.5381ZM34 17.0028C34 14.641 32.7112 12.4728 30.7034 11.3223C31.3119 9.09322 30.6868 6.64845 29.0164 4.98357C27.3516 3.31316 24.9068 2.68814 22.6777 3.29657C21.5272 1.28876 19.359 0 16.9972 0C14.641 0 12.4728 1.28876 11.3223 3.29657C9.09322 2.68814 6.64845 3.31316 4.97804 4.98357C3.31316 6.64845 2.68814 9.09322 3.29104 11.3223C1.28876 12.4728 0 14.641 0 17.0028C0 19.359 1.28876 21.5272 3.29104 22.6777C2.68814 24.9068 3.31316 27.3516 4.97804 29.022C6.74248 30.7809 9.19278 31.2842 11.3223 30.7034C12.4783 32.7112 14.641 34 16.9972 34C19.359 34 21.5217 32.7112 22.6777 30.7034C24.8515 31.2953 27.2852 30.7532 29.0164 29.022C30.6868 27.3516 31.3119 24.9068 30.7034 22.6777C32.7112 21.5272 34 19.359 34 17.0028ZM27.9489 21.5383C28.3029 22.3182 29.9069 25.128 27.5175 27.5175C25.5982 29.4368 23.701 28.9335 21.5328 27.9489C21.2286 28.7565 20.3878 31.876 16.9972 31.876C13.5403 31.876 12.7051 28.585 12.4617 27.9489C10.299 28.9335 8.39629 29.4257 6.48251 27.5175C4.03774 25.0838 5.75793 22.1744 6.05108 21.5383C5.24353 21.2286 2.12396 20.3878 2.12396 17.0028C2.12396 13.5403 5.40947 12.7051 6.05108 12.4672C5.69709 11.6818 4.09305 8.87197 6.48251 6.48251C8.92728 4.03221 11.8477 5.76899 12.4617 6.05108C12.7714 5.24906 13.6122 2.12396 16.9972 2.12396C20.4597 2.12396 21.2949 5.415 21.5328 6.05108C22.3182 5.69709 25.128 4.09305 27.5175 6.48251C29.9623 8.91622 28.2421 11.8256 27.9489 12.4672C28.7509 12.7714 31.876 13.6122 31.876 17.0028C31.876 20.4597 28.585 21.2949 27.9489 21.5383Z" fill="white"/>
</svg>
