<svg width="631" height="128" viewBox="0 0 631 128" fill="none" xmlns="http://www.w3.org/2000/svg">
<path d="M6.64211 1H624.358C627.533 1 630 3.40513 630 6.2439V121.756C630 124.595 627.533 127 624.358 127H6.64211C3.46691 127 1 124.595 1 121.756V6.2439C1 3.40512 3.46692 1 6.64211 1Z" stroke="black" stroke-width="2"/>
<path d="M462 23.97C462 22.3297 460.764 21 459.24 21H428.76C427.236 21 426 22.3297 426 23.97C426 25.5077 427.09 26.7567 428.481 26.9095V42.1915C428.481 43.3634 429.363 44.313 430.452 44.313H442.029V46.5285L436.448 52.5314C435.677 53.3605 435.677 54.7046 436.448 55.5311C437.219 56.3601 438.466 56.3619 439.236 55.5311L442.029 52.5263V54.8786C442.029 56.0505 442.911 57 444 57C445.089 57 445.971 56.0505 445.971 54.8786V52.5263L448.764 55.5311C449.149 55.9443 449.654 56.1514 450.16 56.1514C450.665 56.1514 451.168 55.9443 451.555 55.5311C452.326 54.7012 452.326 53.3588 451.555 52.5314L445.972 46.5285V44.313H457.548C458.637 44.313 459.52 43.3634 459.52 42.1915V26.9086C460.91 26.7559 462 25.5068 462 23.97Z" fill="#1B2731"/>
<path d="M494.63 36.916C494.63 37.771 494.424 38.5725 494.013 39.3206C493.617 40.0687 492.985 40.6718 492.117 41.1298C491.264 41.5878 490.182 41.8168 488.872 41.8168H486.199V47.9542H483V31.9695H488.872C490.106 31.9695 491.157 32.1832 492.025 32.6107C492.894 33.0382 493.541 33.626 493.967 34.374C494.409 35.1221 494.63 35.9695 494.63 36.916ZM488.735 39.229C489.619 39.229 490.274 39.0305 490.7 38.6336C491.127 38.2214 491.34 37.6489 491.34 36.916C491.34 35.3588 490.472 34.5802 488.735 34.5802H486.199V39.229H488.735ZM499.872 37.2366C500.283 36.5649 500.816 36.0382 501.471 35.6565C502.141 35.2748 502.903 35.084 503.756 35.084V38.4504H502.91C501.905 38.4504 501.143 38.687 500.626 39.1603C500.123 39.6336 499.872 40.458 499.872 41.6336V47.9542H496.673V35.2672H499.872V37.2366ZM511.303 48.1603C510.084 48.1603 508.988 47.8931 508.013 47.3588C507.038 46.8092 506.268 46.0382 505.705 45.0458C505.156 44.0534 504.882 42.9084 504.882 41.6107C504.882 40.313 505.164 39.1679 505.728 38.1756C506.307 37.1832 507.091 36.4198 508.081 35.8855C509.071 35.3359 510.176 35.0611 511.394 35.0611C512.613 35.0611 513.717 35.3359 514.707 35.8855C515.697 36.4198 516.474 37.1832 517.038 38.1756C517.617 39.1679 517.906 40.313 517.906 41.6107C517.906 42.9084 517.609 44.0534 517.015 45.0458C516.436 46.0382 515.644 46.8092 514.639 47.3588C513.649 47.8931 512.537 48.1603 511.303 48.1603ZM511.303 45.3664C511.882 45.3664 512.422 45.229 512.925 44.9542C513.443 44.6641 513.854 44.2366 514.159 43.6718C514.464 43.1069 514.616 42.4199 514.616 41.6107C514.616 40.4046 514.296 39.4809 513.656 38.8397C513.032 38.1832 512.263 37.855 511.349 37.855C510.435 37.855 509.665 38.1832 509.041 38.8397C508.431 39.4809 508.127 40.4046 508.127 41.6107C508.127 42.8168 508.424 43.7481 509.018 44.4046C509.627 45.0458 510.389 45.3664 511.303 45.3664ZM521.647 33.7557C521.068 33.7557 520.588 33.5802 520.207 33.229C519.841 32.8626 519.659 32.4122 519.659 31.8779C519.659 31.3435 519.841 30.9008 520.207 30.5496C520.588 30.1832 521.068 30 521.647 30C522.21 30 522.675 30.1832 523.04 30.5496C523.406 30.9008 523.589 31.3435 523.589 31.8779C523.589 32.4122 523.406 32.8626 523.04 33.229C522.675 33.5802 522.21 33.7557 521.647 33.7557ZM523.223 50.0382C523.223 51.4428 522.873 52.4504 522.172 53.0611C521.487 53.687 520.496 54 519.202 54H517.785V51.2748H518.699C519.186 51.2748 519.529 51.1756 519.727 50.9771C519.925 50.7939 520.024 50.4886 520.024 50.0611V35.2672H523.223V50.0382ZM537.922 41.3359C537.922 41.7939 537.891 42.2061 537.83 42.5725H528.577C528.653 43.4885 528.973 44.2061 529.536 44.7252C530.1 45.2443 530.793 45.5038 531.615 45.5038C532.804 45.5038 533.649 44.9924 534.152 43.9695H537.602C537.236 45.1908 536.536 46.1985 535.5 46.9924C534.464 47.771 533.192 48.1603 531.684 48.1603C530.465 48.1603 529.369 47.8931 528.394 47.3588C527.434 46.8092 526.68 46.0382 526.132 45.0458C525.599 44.0534 525.332 42.9084 525.332 41.6107C525.332 40.2977 525.599 39.145 526.132 38.1527C526.665 37.1603 527.411 36.3969 528.371 35.8626C529.331 35.3282 530.435 35.0611 531.684 35.0611C532.887 35.0611 533.961 35.3206 534.906 35.8397C535.865 36.3588 536.604 37.0992 537.122 38.0611C537.655 39.0076 537.922 40.0992 537.922 41.3359ZM534.609 40.4198C534.593 39.5954 534.296 38.9389 533.718 38.4504C533.139 37.9466 532.43 37.6947 531.593 37.6947C530.8 37.6947 530.13 37.9389 529.582 38.4275C529.049 38.9008 528.721 39.5649 528.599 40.4198H534.609ZM539.206 41.6107C539.206 40.2977 539.472 39.1527 540.006 38.1756C540.539 37.1832 541.277 36.4198 542.222 35.8855C543.166 35.3359 544.248 35.0611 545.466 35.0611C547.035 35.0611 548.33 35.458 549.351 36.2519C550.387 37.0305 551.08 38.1298 551.43 39.5496H547.98C547.797 39 547.485 38.5725 547.043 38.2672C546.616 37.9466 546.083 37.7863 545.444 37.7863C544.53 37.7863 543.806 38.1221 543.273 38.7939C542.74 39.4504 542.473 40.3893 542.473 41.6107C542.473 42.8168 542.74 43.7557 543.273 44.4275C543.806 45.084 544.53 45.4122 545.444 45.4122C546.738 45.4122 547.584 44.8321 547.98 43.6718H551.43C551.08 45.0458 550.387 46.1374 549.351 46.9466C548.315 47.7557 547.02 48.1603 545.466 48.1603C544.248 48.1603 543.166 47.8931 542.222 47.3588C541.277 46.8092 540.539 46.0458 540.006 45.0687C539.472 44.0763 539.206 42.9237 539.206 41.6107ZM557.269 37.9008V44.0382C557.269 44.4657 557.368 44.7786 557.566 44.9771C557.78 45.1603 558.13 45.2519 558.617 45.2519H560.103V47.9542H558.092C555.396 47.9542 554.048 46.6412 554.048 44.0153V37.9008H552.54V35.2672H554.048V32.1298H557.269V35.2672H560.103V37.9008H557.269ZM567.019 48.1603C565.983 48.1603 565.054 47.9771 564.231 47.6107C563.409 47.229 562.754 46.7176 562.266 46.0763C561.794 45.4351 561.535 44.7252 561.49 43.9466H564.711C564.772 44.4351 565.008 44.8397 565.42 45.1603C565.846 45.4809 566.372 45.6412 566.996 45.6412C567.605 45.6412 568.078 45.5191 568.413 45.2748C568.763 45.0305 568.938 44.7176 568.938 44.3359C568.938 43.9237 568.725 43.6183 568.299 43.4198C567.887 43.2061 567.225 42.9771 566.311 42.7328C565.366 42.5038 564.589 42.2672 563.98 42.0229C563.386 41.7786 562.868 41.4046 562.426 40.9008C562 40.3969 561.787 39.7176 561.787 38.8626C561.787 38.1603 561.985 37.5191 562.381 36.9389C562.792 36.3588 563.371 35.9008 564.117 35.5649C564.879 35.229 565.77 35.0611 566.79 35.0611C568.299 35.0611 569.502 35.4427 570.401 36.2061C571.299 36.9542 571.794 37.9695 571.886 39.2519H568.824C568.778 38.7481 568.565 38.3511 568.184 38.0611C567.819 37.7557 567.324 37.6031 566.699 37.6031C566.12 37.6031 565.671 37.7099 565.351 37.9237C565.046 38.1374 564.894 38.4351 564.894 38.8168C564.894 39.2443 565.107 39.5725 565.534 39.8015C565.96 40.0153 566.623 40.2366 567.522 40.4657C568.436 40.6947 569.19 40.9313 569.784 41.1756C570.378 41.4199 570.888 41.8015 571.315 42.3206C571.756 42.8244 571.985 43.4962 572 44.3359C572 45.0687 571.794 45.7252 571.383 46.3053C570.987 46.8855 570.408 47.3435 569.647 47.6794C568.9 48 568.024 48.1603 567.019 48.1603Z" fill="#1B2731"/>
<path d="M271.675 44H267.494C266.597 44 266 43.4025 266 42.5064V38.3247C266 37.8766 266.15 37.5779 266.448 37.2792L282.279 21.4481C282.578 21.1494 282.877 21 283.325 21C283.773 21 284.072 21.1494 284.37 21.4481L288.552 25.6299C289.149 26.2272 289.149 27.1234 288.552 27.7208L272.721 43.5519C272.422 43.8506 272.124 44 271.675 44Z" fill="#1B2731"/>
<path d="M274.545 46.305C273.615 47.235 272.53 47.7 271.289 47.7H266.95C264.315 47.7 262.3 45.685 262.3 43.05V38.71C262.3 37.47 262.765 36.23 263.695 35.455L272.995 26H257.65C255.015 26 253 28.015 253 30.65V52.35C253 54.985 255.015 57 257.65 57H279.35C281.985 57 284 54.985 284 52.35V37.005L274.545 46.305Z" fill="#1B2731"/>
<path d="M319.047 39.6732C319.945 39.8398 320.684 40.2863 321.263 41.0128C321.842 41.7394 322.131 42.5719 322.131 43.5104C322.131 44.358 321.918 45.1073 321.491 45.7581C321.08 46.3939 320.478 46.8934 319.687 47.2567C318.895 47.6199 317.958 47.8016 316.877 47.8016H310V31.9536H316.58C317.661 31.9536 318.59 32.1277 319.367 32.4758C320.159 32.824 320.753 33.3083 321.149 33.9289C321.56 34.5495 321.765 35.2534 321.765 36.0405C321.765 36.9638 321.514 37.7358 321.012 38.3564C320.524 38.977 319.869 39.4159 319.047 39.6732ZM313.198 38.4926H316.123C316.884 38.4926 317.47 38.3261 317.882 37.9931C318.293 37.6449 318.499 37.153 318.499 36.5173C318.499 35.8815 318.293 35.3896 317.882 35.0415C317.47 34.6933 316.884 34.5193 316.123 34.5193H313.198V38.4926ZM316.42 45.2132C317.196 45.2132 317.798 45.0316 318.224 44.6683C318.666 44.305 318.887 43.7904 318.887 43.1244C318.887 42.4432 318.658 41.9135 318.202 41.535C317.745 41.1415 317.128 40.9447 316.351 40.9447H313.198V45.2132H316.42ZM327.65 31V47.8016H324.452V31H327.65ZM336.202 48.0059C334.983 48.0059 333.887 47.741 332.912 47.2113C331.937 46.6663 331.168 45.9019 330.604 44.9181C330.056 43.9342 329.782 42.7989 329.782 41.5123C329.782 40.2257 330.064 39.0905 330.627 38.1066C331.206 37.1227 331.99 36.3659 332.98 35.8361C333.97 35.2912 335.074 35.0188 336.293 35.0188C337.511 35.0188 338.616 35.2912 339.606 35.8361C340.596 36.3659 341.372 37.1227 341.936 38.1066C342.515 39.0905 342.804 40.2257 342.804 41.5123C342.804 42.7989 342.507 43.9342 341.913 44.9181C341.334 45.9019 340.542 46.6663 339.537 47.2113C338.547 47.741 337.435 48.0059 336.202 48.0059ZM336.202 45.2359C336.78 45.2359 337.321 45.0997 337.824 44.8272C338.341 44.5396 338.753 44.1158 339.057 43.5558C339.362 42.9957 339.514 42.3146 339.514 41.5123C339.514 40.3166 339.194 39.4008 338.555 38.7651C337.93 38.1142 337.161 37.7887 336.247 37.7887C335.333 37.7887 334.564 38.1142 333.94 38.7651C333.331 39.4008 333.026 40.3166 333.026 41.5123C333.026 42.7081 333.323 43.6315 333.917 44.2823C334.526 44.9181 335.288 45.2359 336.202 45.2359ZM349.879 35.0188C350.823 35.0188 351.653 35.208 352.369 35.5864C353.085 35.9497 353.649 36.4265 354.06 37.0168V35.2231H357.281V47.8924C357.281 49.0579 357.045 50.0948 356.573 51.003C356.101 51.9263 355.393 52.6528 354.448 53.1826C353.504 53.7275 352.362 54 351.021 54C349.224 54 347.747 53.5837 346.589 52.7512C345.447 51.9187 344.8 50.7835 344.648 49.3455H347.823C347.991 49.9207 348.349 50.3748 348.897 50.7078C349.46 51.0559 350.138 51.23 350.93 51.23C351.859 51.23 352.613 50.95 353.192 50.3899C353.771 49.845 354.06 49.0125 354.06 47.8924V45.9398C353.649 46.5301 353.078 47.022 352.346 47.4156C351.631 47.8091 350.808 48.0059 349.879 48.0059C348.813 48.0059 347.838 47.7335 346.955 47.1885C346.072 46.6436 345.371 45.8792 344.853 44.8954C344.351 43.8963 344.099 42.7535 344.099 41.4669C344.099 40.1955 344.351 39.0678 344.853 38.0839C345.371 37.1 346.064 36.3432 346.932 35.8134C347.815 35.2836 348.798 35.0188 349.879 35.0188ZM354.06 41.5123C354.06 40.7404 353.908 40.0819 353.603 39.537C353.298 38.977 352.887 38.5531 352.369 38.2655C351.851 37.9628 351.296 37.8115 350.702 37.8115C350.108 37.8115 349.559 37.9552 349.057 38.2428C348.554 38.5304 348.143 38.9543 347.823 39.5143C347.518 40.0592 347.366 40.7101 347.366 41.4669C347.366 42.2238 347.518 42.8898 347.823 43.465C348.143 44.025 348.554 44.4564 349.057 44.7591C349.575 45.0619 350.123 45.2132 350.702 45.2132C351.296 45.2132 351.851 45.0694 352.369 44.7818C352.887 44.4791 353.298 44.0553 353.603 43.5104C353.908 42.9503 354.06 42.2843 354.06 41.5123ZM365.02 48.0059C363.984 48.0059 363.055 47.8243 362.233 47.461C361.41 47.0826 360.755 46.5755 360.268 45.9398C359.796 45.304 359.537 44.6002 359.491 43.8282H362.712C362.773 44.3126 363.009 44.7137 363.42 45.0316C363.847 45.3495 364.372 45.5084 364.997 45.5084C365.606 45.5084 366.078 45.3873 366.413 45.1451C366.764 44.9029 366.939 44.5926 366.939 44.2142C366.939 43.8055 366.725 43.5028 366.299 43.306C365.888 43.0941 365.225 42.8671 364.311 42.6249C363.367 42.3978 362.59 42.1632 361.981 41.921C361.387 41.6788 360.869 41.308 360.428 40.8085C360.001 40.309 359.788 39.6354 359.788 38.7878C359.788 38.0915 359.986 37.4557 360.382 36.8806C360.793 36.3054 361.372 35.8513 362.118 35.5183C362.88 35.1853 363.771 35.0188 364.791 35.0188C366.299 35.0188 367.502 35.3972 368.401 36.154C369.299 36.8957 369.794 37.9023 369.886 39.1737H366.824C366.779 38.6742 366.566 38.2807 366.185 37.9931C365.819 37.6904 365.324 37.539 364.7 37.539C364.121 37.539 363.672 37.6449 363.352 37.8569C363.047 38.0688 362.895 38.3639 362.895 38.7423C362.895 39.1662 363.108 39.4916 363.535 39.7187C363.961 39.9306 364.624 40.1501 365.522 40.3771C366.436 40.6041 367.19 40.8388 367.784 41.0809C368.378 41.3231 368.888 41.7015 369.315 42.2162C369.756 42.7157 369.985 43.3817 370 44.2142C370 44.9408 369.794 45.5916 369.383 46.1668C368.987 46.742 368.408 47.1961 367.647 47.5291C366.901 47.847 366.025 48.0059 365.02 48.0059Z" fill="#1B2731"/>
<path d="M102 30.1028V47.8796C102 49.2538 100.537 50.1116 99.3682 49.4289L92.091 45.1576V46.3741C92.091 50.0328 89.1757 53 85.5802 53H66.5115C62.916 53 60 50.0328 60 46.3741V31.6258C60 27.9672 62.916 25 66.5115 25H85.5885C89.184 25 92.1 27.9672 92.1 31.6258V32.8424L99.3765 28.5711C100.537 27.8709 102 28.7374 102 30.1028Z" fill="#1B2731"/>
<path d="M137.644 30.9521L131.772 46.7957H127.872L122 30.9521H125.441L129.845 43.5498L134.226 30.9521H137.644ZM140.968 32.7226C140.402 32.7226 139.928 32.5485 139.546 32.2005C139.179 31.8373 138.996 31.3909 138.996 30.8613C138.996 30.3317 139.179 29.8928 139.546 29.5448C139.928 29.1816 140.402 29 140.968 29C141.534 29 142 29.1816 142.367 29.5448C142.75 29.8928 142.941 30.3317 142.941 30.8613C142.941 31.3909 142.75 31.8373 142.367 32.2005C142 32.5485 141.534 32.7226 140.968 32.7226ZM142.551 34.2207V46.7957H139.34V34.2207H142.551ZM144.669 40.4628C144.669 39.1917 144.921 38.0643 145.426 37.0807C145.946 36.0971 146.649 35.3405 147.536 34.8108C148.423 34.2812 149.409 34.0164 150.495 34.0164C151.321 34.0164 152.108 34.198 152.858 34.5612C153.607 34.9092 154.204 35.3783 154.647 35.9685V29.9987H157.904V46.7957H154.647V44.9344C154.249 45.5549 153.691 46.0542 152.972 46.4325C152.254 46.8108 151.42 47 150.472 47C149.402 47 148.423 46.7276 147.536 46.1829C146.649 45.6381 145.946 44.8739 145.426 43.8903C144.921 42.8916 144.669 41.7491 144.669 40.4628ZM154.67 40.5082C154.67 39.7364 154.517 39.0782 154.211 38.5334C153.905 37.9735 153.492 37.5498 152.972 37.2623C152.453 36.9596 151.894 36.8083 151.298 36.8083C150.702 36.8083 150.151 36.9521 149.646 37.2396C149.142 37.5271 148.729 37.9508 148.408 38.5107C148.102 39.0555 147.949 39.7062 147.949 40.4628C147.949 41.2194 148.102 41.8852 148.408 42.4603C148.729 43.0202 149.142 43.4515 149.646 43.7541C150.166 44.0568 150.717 44.2081 151.298 44.2081C151.894 44.2081 152.453 44.0643 152.972 43.7768C153.492 43.4742 153.905 43.0504 154.211 42.5057C154.517 41.9458 154.67 41.28 154.67 40.5082ZM172.624 40.2358C172.624 40.6898 172.594 41.0984 172.533 41.4615H163.243C163.319 42.3695 163.64 43.0807 164.206 43.5952C164.772 44.1097 165.468 44.367 166.293 44.367C167.486 44.367 168.335 43.86 168.84 42.8462H172.303C171.936 44.0567 171.233 45.0555 170.193 45.8424C169.153 46.6141 167.876 47 166.362 47C165.139 47 164.038 46.7352 163.059 46.2056C162.096 45.6608 161.339 44.8966 160.788 43.913C160.253 42.9294 159.985 41.7945 159.985 40.5082C159.985 39.2068 160.253 38.0643 160.788 37.0807C161.323 36.0971 162.073 35.3405 163.036 34.8108C164 34.2812 165.108 34.0164 166.362 34.0164C167.57 34.0164 168.648 34.2736 169.596 34.7881C170.56 35.3026 171.302 36.0366 171.821 36.9899C172.357 37.9281 172.624 39.0101 172.624 40.2358ZM169.298 39.3279C169.283 38.5107 168.985 37.86 168.404 37.3758C167.823 36.8764 167.112 36.6267 166.27 36.6267C165.475 36.6267 164.802 36.8689 164.252 37.3531C163.717 37.8222 163.388 38.4805 163.266 39.3279H169.298ZM180.381 47C179.158 47 178.057 46.7352 177.078 46.2056C176.099 45.6608 175.327 44.8966 174.761 43.913C174.211 42.9294 173.936 41.7945 173.936 40.5082C173.936 39.2219 174.218 38.087 174.784 37.1034C175.365 36.1198 176.153 35.3632 177.147 34.8335C178.141 34.2888 179.25 34.0164 180.473 34.0164C181.696 34.0164 182.805 34.2888 183.799 34.8335C184.793 35.3632 185.573 36.1198 186.139 37.1034C186.72 38.087 187.01 39.2219 187.01 40.5082C187.01 41.7945 186.712 42.9294 186.116 43.913C185.535 44.8966 184.739 45.6608 183.73 46.2056C182.736 46.7352 181.62 47 180.381 47ZM180.381 44.2308C180.962 44.2308 181.505 44.0946 182.01 43.8222C182.53 43.5347 182.943 43.111 183.248 42.5511C183.554 41.9912 183.707 41.3102 183.707 40.5082C183.707 39.3127 183.386 38.3972 182.744 37.7617C182.117 37.111 181.345 36.7856 180.427 36.7856C179.51 36.7856 178.737 37.111 178.11 37.7617C177.499 38.3972 177.193 39.3127 177.193 40.5082C177.193 41.7037 177.491 42.6267 178.087 43.2774C178.699 43.913 179.464 44.2308 180.381 44.2308ZM194 47C192.96 47 192.027 46.8184 191.201 46.4552C190.375 46.0769 189.718 45.57 189.228 44.9344C188.754 44.2989 188.494 43.5952 188.449 42.8235H191.683C191.744 43.3077 191.981 43.7087 192.394 44.0265C192.822 44.3443 193.35 44.5032 193.977 44.5032C194.588 44.5032 195.062 44.3821 195.399 44.14C195.75 43.8979 195.926 43.5876 195.926 43.2093C195.926 42.8008 195.712 42.4981 195.284 42.3014C194.871 42.0895 194.206 41.8626 193.288 41.6204C192.34 41.3934 191.56 41.1589 190.949 40.9168C190.352 40.6747 189.832 40.3039 189.389 39.8045C188.961 39.3052 188.747 38.6318 188.747 37.7844C188.747 37.0883 188.945 36.4527 189.343 35.8777C189.756 35.3026 190.337 34.8487 191.086 34.5158C191.851 34.1829 192.746 34.0164 193.77 34.0164C195.284 34.0164 196.492 34.3947 197.394 35.1513C198.297 35.8928 198.794 36.8991 198.885 38.1702H195.812C195.766 37.6709 195.552 37.2774 195.169 36.9899C194.802 36.6873 194.305 36.5359 193.678 36.5359C193.097 36.5359 192.646 36.6419 192.325 36.8537C192.019 37.0656 191.866 37.3607 191.866 37.739C191.866 38.1627 192.08 38.488 192.509 38.715C192.937 38.9269 193.602 39.1463 194.504 39.3733C195.422 39.6003 196.179 39.8348 196.775 40.0769C197.371 40.319 197.884 40.6974 198.312 41.2119C198.755 41.7112 198.985 42.3771 199 43.2093C199 43.9357 198.794 44.5864 198.381 45.1614C197.983 45.7364 197.402 46.1904 196.637 46.5233C195.888 46.8411 195.009 47 194 47Z" fill="#1B2731"/>
<path d="M416.781 83.9695V99.9542H413.694V89.5573L409.57 99.9542H407.233L403.087 89.5573V99.9542H400V83.9695H403.506L408.402 95.855L413.297 83.9695H416.781ZM430.969 93.3359C430.969 93.7939 430.94 94.2061 430.881 94.5725H421.95C422.024 95.4885 422.333 96.2061 422.876 96.7252C423.42 97.2443 424.089 97.5038 424.883 97.5038C426.03 97.5038 426.846 96.9924 427.331 95.9695H430.661C430.308 97.1908 429.632 98.1985 428.632 98.9924C427.632 99.771 426.405 100.16 424.949 100.16C423.773 100.16 422.715 99.8931 421.774 99.3588C420.848 98.8092 420.12 98.0382 419.591 97.0458C419.076 96.0534 418.819 94.9084 418.819 93.6107C418.819 92.2977 419.076 91.145 419.591 90.1527C420.105 89.1603 420.826 88.397 421.752 87.8626C422.678 87.3282 423.744 87.0611 424.949 87.0611C426.111 87.0611 427.147 87.3206 428.059 87.8397C428.985 88.3588 429.698 89.0992 430.198 90.0611C430.712 91.0076 430.969 92.0992 430.969 93.3359ZM427.772 92.4199C427.757 91.5954 427.471 90.9389 426.912 90.4504C426.353 89.9466 425.67 89.6947 424.861 89.6947C424.097 89.6947 423.45 89.9389 422.921 90.4275C422.406 90.9008 422.09 91.5649 421.972 92.4199H427.772ZM439.772 87.084C441.228 87.084 442.404 87.5649 443.301 88.5267C444.197 89.4733 444.646 90.8015 444.646 92.5115V99.9542H441.559V92.9466C441.559 91.9389 441.316 91.1679 440.831 90.6336C440.346 90.084 439.684 89.8092 438.846 89.8092C437.994 89.8092 437.317 90.084 436.818 90.6336C436.332 91.1679 436.09 91.9389 436.09 92.9466V99.9542H433.003V87.2672H436.09V88.8473C436.501 88.2977 437.023 87.8702 437.655 87.5649C438.302 87.2443 439.008 87.084 439.772 87.084ZM450.956 89.9008V96.0382C450.956 96.4656 451.051 96.7786 451.242 96.9771C451.448 97.1603 451.786 97.2519 452.257 97.2519H453.69V99.9542H451.749C449.147 99.9542 447.846 98.6412 447.846 96.0153V89.9008H446.391V87.2672H447.846V84.1298H450.956V87.2672H453.69V89.9008H450.956ZM461.115 100.16C459.939 100.16 458.88 99.8931 457.939 99.3588C456.999 98.8092 456.256 98.0382 455.712 97.0458C455.183 96.0534 454.918 94.9084 454.918 93.6107C454.918 92.313 455.19 91.1679 455.734 90.1756C456.293 89.1832 457.05 88.4199 458.006 87.8855C458.961 87.3359 460.027 87.0611 461.203 87.0611C462.379 87.0611 463.445 87.3359 464.401 87.8855C465.356 88.4199 466.106 89.1832 466.65 90.1756C467.208 91.1679 467.488 92.313 467.488 93.6107C467.488 94.9084 467.201 96.0534 466.628 97.0458C466.069 98.0382 465.305 98.8092 464.334 99.3588C463.379 99.8931 462.306 100.16 461.115 100.16ZM461.115 97.3664C461.673 97.3664 462.195 97.229 462.681 96.9542C463.18 96.6641 463.577 96.2366 463.871 95.6718C464.165 95.1069 464.312 94.4199 464.312 93.6107C464.312 92.4046 464.004 91.4809 463.386 90.8397C462.783 90.1832 462.041 89.855 461.159 89.855C460.277 89.855 459.534 90.1832 458.932 90.8397C458.344 91.4809 458.05 92.4046 458.05 93.6107C458.05 94.8168 458.336 95.7481 458.91 96.4046C459.498 97.0458 460.233 97.3664 461.115 97.3664ZM472.619 89.2366C473.016 88.5649 473.531 88.0382 474.163 87.6565C474.81 87.2748 475.545 87.084 476.368 87.084V90.4504H475.552C474.582 90.4504 473.847 90.687 473.347 91.1603C472.862 91.6336 472.619 92.458 472.619 93.6336V99.9542H469.532V87.2672H472.619V89.2366ZM482.902 100.16C481.902 100.16 481.005 99.9771 480.212 99.6107C479.418 99.229 478.786 98.7176 478.315 98.0763C477.859 97.4351 477.61 96.7252 477.565 95.9466H480.675C480.733 96.4351 480.961 96.8397 481.358 97.1603C481.77 97.4809 482.277 97.6412 482.88 97.6412C483.468 97.6412 483.924 97.5191 484.247 97.2748C484.585 97.0305 484.754 96.7176 484.754 96.3359C484.754 95.9237 484.548 95.6183 484.137 95.4198C483.74 95.2061 483.1 94.9771 482.218 94.7328C481.307 94.5038 480.557 94.2672 479.969 94.0229C479.396 93.7786 478.896 93.4046 478.47 92.9008C478.058 92.3969 477.852 91.7176 477.852 90.8626C477.852 90.1603 478.043 89.5191 478.425 88.9389C478.822 88.3588 479.381 87.9008 480.101 87.5649C480.836 87.229 481.696 87.0611 482.681 87.0611C484.137 87.0611 485.298 87.4428 486.166 88.2061C487.033 88.9542 487.511 89.9695 487.599 91.2519H484.644C484.6 90.7481 484.394 90.3511 484.027 90.0611C483.674 89.7557 483.196 89.6031 482.593 89.6031C482.035 89.6031 481.601 89.7099 481.292 89.9237C480.998 90.1374 480.851 90.4351 480.851 90.8168C480.851 91.2443 481.057 91.5725 481.469 91.8015C481.88 92.0153 482.52 92.2366 483.387 92.4657C484.269 92.6947 484.997 92.9313 485.57 93.1756C486.143 93.4198 486.636 93.8015 487.048 94.3206C487.474 94.8244 487.694 95.4962 487.709 96.3359C487.709 97.0687 487.511 97.7252 487.114 98.3053C486.732 98.8855 486.173 99.3435 485.438 99.6794C484.717 100 483.872 100.16 482.902 100.16ZM496.903 87.084C497.829 87.084 498.652 87.2977 499.372 87.7252C500.093 88.1374 500.651 88.7557 501.048 89.5802C501.46 90.3893 501.666 91.3664 501.666 92.5115V99.9542H498.578V92.9466C498.578 91.9389 498.336 91.1679 497.851 90.6336C497.366 90.084 496.704 89.8092 495.866 89.8092C495.013 89.8092 494.337 90.084 493.837 90.6336C493.352 91.1679 493.11 91.9389 493.11 92.9466V99.9542H490.022V83.0076H493.11V88.8473C493.507 88.2977 494.036 87.8702 494.697 87.5649C495.359 87.2443 496.094 87.084 496.903 87.084ZM505.947 85.7557C505.403 85.7557 504.947 85.5802 504.579 85.229C504.227 84.8626 504.05 84.4122 504.05 83.8779C504.05 83.3435 504.227 82.9008 504.579 82.5496C504.947 82.1832 505.403 82 505.947 82C506.491 82 506.939 82.1832 507.292 82.5496C507.659 82.9008 507.843 83.3435 507.843 83.8779C507.843 84.4122 507.659 84.8626 507.292 85.229C506.939 85.5802 506.491 85.7557 505.947 85.7557ZM507.468 87.2672V99.9542H504.381V87.2672H507.468ZM513.385 89.0992C513.782 88.5191 514.326 88.0382 515.017 87.6565C515.723 87.2595 516.524 87.0611 517.421 87.0611C518.465 87.0611 519.406 87.3282 520.244 87.8626C521.096 88.397 521.765 89.1603 522.25 90.1527C522.75 91.1298 523 92.2672 523 93.5649C523 94.8626 522.75 96.0153 522.25 97.0229C521.765 98.0153 521.096 98.7863 520.244 99.3359C519.406 99.8855 518.465 100.16 517.421 100.16C516.524 100.16 515.73 99.9695 515.039 99.5878C514.363 99.2061 513.812 98.7252 513.385 98.145V106H510.298V87.2672H513.385V89.0992ZM519.847 93.5649C519.847 92.8015 519.692 92.145 519.384 91.5954C519.09 91.0305 518.693 90.6031 518.193 90.313C517.708 90.0229 517.178 89.8779 516.605 89.8779C516.046 89.8779 515.517 90.0305 515.017 90.3359C514.532 90.626 514.135 91.0534 513.826 91.6183C513.532 92.1832 513.385 92.8473 513.385 93.6107C513.385 94.3741 513.532 95.0382 513.826 95.6031C514.135 96.1679 514.532 96.6031 515.017 96.9084C515.517 97.1985 516.046 97.3435 516.605 97.3435C517.178 97.3435 517.708 97.1908 518.193 96.8855C518.693 96.5802 519.09 96.145 519.384 95.5802C519.692 95.0153 519.847 94.3435 519.847 93.5649Z" fill="#1B2731"/>
<path d="M358.5 75L337 86L344.818 89.9964V100.996L358.5 108L372.182 100.996V89.9964L376.091 87.9986V100.666H380V86L358.5 75ZM371.83 86L358.5 92.82L345.17 86L358.5 79.18L371.83 86ZM368.273 98.815L358.5 103.82L348.727 98.815V91.995L358.5 97L368.273 91.995V98.815Z" fill="#1B2731"/>
<path d="M180.821 83.9621L176.479 99.9522H172.805L169.888 88.5667L166.838 99.9522L163.186 99.9751L159 83.9621H162.34L165.079 96.3785L168.241 83.9621H171.714L174.698 96.3098L177.459 83.9621H180.821ZM188.111 100.158C186.924 100.158 185.855 99.8911 184.905 99.3566C183.955 98.8068 183.205 98.0355 182.656 97.0428C182.122 96.0501 181.854 94.9047 181.854 93.6066C181.854 92.3084 182.129 91.163 182.678 90.1703C183.242 89.1776 184.007 88.414 184.972 87.8795C185.937 87.3297 187.013 87.0548 188.2 87.0548C189.388 87.0548 190.464 87.3297 191.429 87.8795C192.394 88.414 193.151 89.1776 193.7 90.1703C194.264 91.163 194.546 92.3084 194.546 93.6066C194.546 94.9047 194.257 96.0501 193.678 97.0428C193.114 98.0355 192.342 98.8068 191.362 99.3566C190.397 99.8911 189.314 100.158 188.111 100.158ZM188.111 97.3635C188.675 97.3635 189.202 97.2261 189.692 96.9512C190.197 96.661 190.598 96.2334 190.895 95.6683C191.192 95.1033 191.34 94.416 191.34 93.6066C191.34 92.4001 191.028 91.4761 190.405 90.8347C189.796 90.178 189.047 89.8496 188.156 89.8496C187.265 89.8496 186.516 90.178 185.907 90.8347C185.313 91.4761 185.016 92.4001 185.016 93.6066C185.016 94.8131 185.306 95.7447 185.885 96.4014C186.479 97.0428 187.221 97.3635 188.111 97.3635ZM199.728 89.2311C200.129 88.5591 200.648 88.0322 201.287 87.6504C201.94 87.2686 202.682 87.0777 203.513 87.0777V90.4452H202.689C201.71 90.4452 200.967 90.6819 200.463 91.1554C199.973 91.6288 199.728 92.4535 199.728 93.6295V99.9522H196.611V87.261H199.728V89.2311ZM212.694 99.9522L208.508 94.5458V99.9522H205.39V83H208.508V92.6444L212.649 87.261H216.702L211.269 93.6295L216.746 99.9522H212.694ZM222.892 100.158C221.882 100.158 220.977 99.9751 220.175 99.6086C219.374 99.2268 218.735 98.7151 218.26 98.0737C217.8 97.4323 217.548 96.7221 217.503 95.9432H220.643C220.702 96.4319 220.932 96.8366 221.333 97.1574C221.749 97.4781 222.261 97.6384 222.87 97.6384C223.463 97.6384 223.924 97.5163 224.25 97.2719C224.592 97.0276 224.762 96.7145 224.762 96.3327C224.762 95.9203 224.554 95.6149 224.139 95.4163C223.738 95.2025 223.092 94.9734 222.202 94.7291C221.281 94.5 220.524 94.2633 219.93 94.0189C219.352 93.7746 218.847 93.4004 218.416 92.8964C218.001 92.3924 217.793 91.7128 217.793 90.8576C217.793 90.155 217.986 89.5136 218.372 88.9333C218.773 88.3529 219.337 87.8948 220.064 87.5588C220.806 87.2228 221.675 87.0548 222.669 87.0548C224.139 87.0548 225.312 87.4366 226.187 88.2002C227.063 88.9485 227.546 89.9641 227.635 91.247H224.651C224.606 90.743 224.399 90.3459 224.028 90.0558C223.671 89.7503 223.189 89.5976 222.58 89.5976C222.016 89.5976 221.578 89.7045 221.266 89.9183C220.97 90.1321 220.821 90.4299 220.821 90.8118C220.821 91.2394 221.029 91.5677 221.445 91.7968C221.86 92.0106 222.506 92.2321 223.382 92.4612C224.272 92.6902 225.007 92.927 225.586 93.1713C226.165 93.4157 226.662 93.7975 227.078 94.3167C227.509 94.8207 227.731 95.4927 227.746 96.3327C227.746 97.0657 227.546 97.7224 227.145 98.3028C226.759 98.8831 226.195 99.3413 225.453 99.6773C224.725 99.998 223.872 100.158 222.892 100.158ZM237.029 87.0777C237.964 87.0777 238.795 87.2915 239.523 87.7191C240.25 88.1315 240.814 88.75 241.215 89.5747C241.631 90.3841 241.839 91.3616 241.839 92.507V99.9522H238.721V92.9422C238.721 91.9343 238.476 91.163 237.986 90.6285C237.497 90.0787 236.829 89.8038 235.982 89.8038C235.121 89.8038 234.439 90.0787 233.934 90.6285C233.444 91.163 233.199 91.9343 233.199 92.9422V99.9522H230.082V83H233.199V88.8416C233.6 88.2918 234.134 87.8642 234.802 87.5588C235.47 87.238 236.213 87.0777 237.029 87.0777ZM250.058 100.158C248.87 100.158 247.802 99.8911 246.852 99.3566C245.902 98.8068 245.152 98.0355 244.603 97.0428C244.068 96.0501 243.801 94.9047 243.801 93.6066C243.801 92.3084 244.076 91.163 244.625 90.1703C245.189 89.1776 245.953 88.414 246.918 87.8795C247.883 87.3297 248.959 87.0548 250.147 87.0548C251.335 87.0548 252.411 87.3297 253.376 87.8795C254.341 88.414 255.098 89.1776 255.647 90.1703C256.211 91.163 256.493 92.3084 256.493 93.6066C256.493 94.9047 256.204 96.0501 255.625 97.0428C255.061 98.0355 254.289 98.8068 253.309 99.3566C252.344 99.8911 251.26 100.158 250.058 100.158ZM250.058 97.3635C250.622 97.3635 251.149 97.2261 251.639 96.9512C252.144 96.661 252.544 96.2334 252.841 95.6683C253.138 95.1033 253.287 94.416 253.287 93.6066C253.287 92.4001 252.975 91.4761 252.351 90.8347C251.743 90.178 250.993 89.8496 250.103 89.8496C249.212 89.8496 248.462 90.178 247.854 90.8347C247.26 91.4761 246.963 92.4001 246.963 93.6066C246.963 94.8131 247.252 95.7447 247.831 96.4014C248.425 97.0428 249.167 97.3635 250.058 97.3635ZM261.674 89.0936C262.075 88.5133 262.625 88.0322 263.322 87.6504C264.035 87.2533 264.844 87.0548 265.749 87.0548C266.803 87.0548 267.753 87.322 268.599 87.8566C269.46 88.3911 270.136 89.1547 270.626 90.1474C271.13 91.1248 271.383 92.2626 271.383 93.5608C271.383 94.8589 271.13 96.012 270.626 97.0199C270.136 98.0126 269.46 98.7839 268.599 99.3337C267.753 99.8835 266.803 100.158 265.749 100.158C264.844 100.158 264.042 99.9675 263.344 99.5857C262.662 99.2039 262.105 98.7228 261.674 98.1424V106H258.557V87.261H261.674V89.0936ZM268.199 93.5608C268.199 92.7971 268.043 92.1404 267.731 91.5906C267.434 91.0256 267.033 90.5979 266.529 90.3078C266.039 90.0176 265.504 89.8725 264.925 89.8725C264.361 89.8725 263.827 90.0252 263.322 90.3307C262.832 90.6208 262.432 91.0485 262.12 91.6135C261.823 92.1786 261.674 92.843 261.674 93.6066C261.674 94.3702 261.823 95.0345 262.12 95.5996C262.432 96.1647 262.832 96.5999 263.322 96.9054C263.827 97.1955 264.361 97.3406 264.925 97.3406C265.504 97.3406 266.039 97.1879 266.529 96.8825C267.033 96.577 267.434 96.1418 267.731 95.5767C268.043 95.0116 268.199 94.3396 268.199 93.5608ZM278.146 100.158C277.136 100.158 276.231 99.9751 275.429 99.6086C274.628 99.2268 273.989 98.7151 273.514 98.0737C273.054 97.4323 272.802 96.7221 272.757 95.9432H275.897C275.956 96.4319 276.186 96.8366 276.587 97.1574C277.003 97.4781 277.515 97.6384 278.124 97.6384C278.717 97.6384 279.178 97.5163 279.504 97.2719C279.846 97.0276 280.016 96.7145 280.016 96.3327C280.016 95.9203 279.808 95.6149 279.393 95.4163C278.992 95.2025 278.346 94.9734 277.456 94.7291C276.535 94.5 275.778 94.2633 275.184 94.0189C274.605 93.7746 274.101 93.4004 273.67 92.8964C273.255 92.3924 273.047 91.7128 273.047 90.8576C273.047 90.155 273.24 89.5136 273.626 88.9333C274.027 88.3529 274.591 87.8948 275.318 87.5588C276.06 87.2228 276.929 87.0548 277.923 87.0548C279.393 87.0548 280.566 87.4366 281.441 88.2002C282.317 88.9485 282.8 89.9641 282.889 91.247H279.905C279.86 90.743 279.653 90.3459 279.281 90.0558C278.925 89.7503 278.443 89.5976 277.834 89.5976C277.27 89.5976 276.832 89.7045 276.52 89.9183C276.224 90.1321 276.075 90.4299 276.075 90.8118C276.075 91.2394 276.283 91.5677 276.699 91.7968C277.114 92.0106 277.76 92.2321 278.636 92.4612C279.526 92.6902 280.261 92.927 280.84 93.1713C281.419 93.4157 281.916 93.7975 282.332 94.3167C282.762 94.8207 282.985 95.4927 283 96.3327C283 97.0657 282.8 97.7224 282.399 98.3028C282.013 98.8831 281.449 99.3413 280.707 99.6773C279.979 99.998 279.126 100.158 278.146 100.158Z" fill="#1B2731"/>
<path d="M139.875 86H109.125C108.525 86 108 86.5133 108 87.1V105.067C108 106.68 109.35 108 111 108H138C139.65 108 141 106.68 141 105.067V87.1C141 86.5133 140.475 86 139.875 86ZM119.25 102.133C119.25 102.573 118.95 102.867 118.5 102.867H115.5C115.05 102.867 114.75 102.573 114.75 102.133V99.2C114.75 98.76 115.05 98.4667 115.5 98.4667H118.5C118.95 98.4667 119.25 98.76 119.25 99.2V102.133ZM119.25 94.8C119.25 95.24 118.95 95.5333 118.5 95.5333H115.5C115.05 95.5333 114.75 95.24 114.75 94.8V91.8667C114.75 91.4267 115.05 91.1333 115.5 91.1333H118.5C118.95 91.1333 119.25 91.4267 119.25 91.8667V94.8ZM126.75 102.133C126.75 102.573 126.45 102.867 126 102.867H123C122.55 102.867 122.25 102.573 122.25 102.133V99.2C122.25 98.76 122.55 98.4667 123 98.4667H126C126.45 98.4667 126.75 98.76 126.75 99.2V102.133ZM126.75 94.8C126.75 95.24 126.45 95.5333 126 95.5333H123C122.55 95.5333 122.25 95.24 122.25 94.8V91.8667C122.25 91.4267 122.55 91.1333 123 91.1333H126C126.45 91.1333 126.75 91.4267 126.75 91.8667V94.8ZM134.25 102.133C134.25 102.573 133.95 102.867 133.5 102.867H130.5C130.05 102.867 129.75 102.573 129.75 102.133V99.2C129.75 98.76 130.05 98.4667 130.5 98.4667H133.5C133.95 98.4667 134.25 98.76 134.25 99.2V102.133ZM134.25 94.8C134.25 95.24 133.95 95.5333 133.5 95.5333H130.5C130.05 95.5333 129.75 95.24 129.75 94.8V91.8667C129.75 91.4267 130.05 91.1333 130.5 91.1333H133.5C133.95 91.1333 134.25 91.4267 134.25 91.8667V94.8Z" fill="#1B2731"/>
<path d="M138 76.4615H134.25V75.0769C134.25 73.9692 133.275 73 132 73C130.8 73 129.75 73.9 129.75 75.0769V76.4615H119.25V75.0769C119.25 73.9692 118.275 73 117 73C115.8 73 114.75 73.9 114.75 75.0769V76.4615H111C109.35 76.4615 108 77.7077 108 79.2308V80.9615C108 81.5154 108.525 82 109.125 82H139.875C140.475 82 141 81.5154 141 80.9615V79.2308C141 77.7077 139.65 76.4615 138 76.4615Z" fill="#1B2731"/>
</svg>
