<svg width="36" height="36" viewBox="0 0 36 36" fill="none" xmlns="http://www.w3.org/2000/svg">
<path d="M36 2.97C36 1.32973 34.7642 0 33.2397 0H2.76026C1.23577 0 0 1.32973 0 2.97C0 4.50767 1.0903 5.75671 2.48107 5.90948V21.1915C2.48107 22.3634 3.36343 23.313 4.45224 23.313H16.0288V25.5285L10.4481 31.5314C9.67666 32.3605 9.67666 33.7046 10.4481 34.5311C11.2188 35.3601 12.4663 35.3619 13.2355 34.5311L16.0288 31.5263V33.8786C16.0288 35.0505 16.9112 36 18 36C19.0888 36 19.9712 35.0505 19.9712 33.8786V31.5263L22.7645 34.5311C23.1487 34.9443 23.6542 35.1514 24.1597 35.1514C24.6651 35.1514 25.1677 34.9443 25.5549 34.5311C26.3256 33.7012 26.3256 32.3588 25.5549 31.5314L19.9719 25.5285V23.313H31.5485C32.6373 23.313 33.5197 22.3634 33.5197 21.1915V5.90862C34.9105 5.75593 36 4.50681 36 2.97Z" fill="#1B2731"/>
</svg>
