<svg width="33" height="22" viewBox="0 0 33 22" fill="none" xmlns="http://www.w3.org/2000/svg">
<path d="M31.875 0H1.125C0.525 0 0 0.513333 0 1.1V19.0667C0 20.68 1.35 22 3 22H30C31.65 22 33 20.68 33 19.0667V1.1C33 0.513333 32.475 0 31.875 0ZM11.25 16.1333C11.25 16.5733 10.95 16.8667 10.5 16.8667H7.5C7.05 16.8667 6.75 16.5733 6.75 16.1333V13.2C6.75 12.76 7.05 12.4667 7.5 12.4667H10.5C10.95 12.4667 11.25 12.76 11.25 13.2V16.1333ZM11.25 8.8C11.25 9.24 10.95 9.53333 10.5 9.53333H7.5C7.05 9.53333 6.75 9.24 6.75 8.8V5.86667C6.75 5.42667 7.05 5.13333 7.5 5.13333H10.5C10.95 5.13333 11.25 5.42667 11.25 5.86667V8.8ZM18.75 16.1333C18.75 16.5733 18.45 16.8667 18 16.8667H15C14.55 16.8667 14.25 16.5733 14.25 16.1333V13.2C14.25 12.76 14.55 12.4667 15 12.4667H18C18.45 12.4667 18.75 12.76 18.75 13.2V16.1333ZM18.75 8.8C18.75 9.24 18.45 9.53333 18 9.53333H15C14.55 9.53333 14.25 9.24 14.25 8.8V5.86667C14.25 5.42667 14.55 5.13333 15 5.13333H18C18.45 5.13333 18.75 5.42667 18.75 5.86667V8.8ZM26.25 16.1333C26.25 16.5733 25.95 16.8667 25.5 16.8667H22.5C22.05 16.8667 21.75 16.5733 21.75 16.1333V13.2C21.75 12.76 22.05 12.4667 22.5 12.4667H25.5C25.95 12.4667 26.25 12.76 26.25 13.2V16.1333ZM26.25 8.8C26.25 9.24 25.95 9.53333 25.5 9.53333H22.5C22.05 9.53333 21.75 9.24 21.75 8.8V5.86667C21.75 5.42667 22.05 5.13333 22.5 5.13333H25.5C25.95 5.13333 26.25 5.42667 26.25 5.86667V8.8Z" fill="#1B2731"/>
</svg>
