<svg xmlns="http://www.w3.org/2000/svg" width="1200" height="630" viewBox="0 0 1200 630">
<defs><clipPath id="hami-clip-0"><rect x="70" y="407" width="515" height="112" rx="7"/></clipPath><clipPath id="hami-clip-1"><rect x="720" y="95" width="390" height="420" rx="7"/></clipPath><clipPath id="hami-clip-2"><rect x="760" y="212" width="145" height="105" rx="7"/></clipPath><clipPath id="hami-clip-3"><rect x="925" y="212" width="145" height="105" rx="7"/></clipPath><clipPath id="hami-clip-4"><rect x="760" y="338" width="145" height="105" rx="7"/></clipPath><clipPath id="hami-clip-5"><rect x="925" y="338" width="145" height="105" rx="7"/></clipPath></defs>
<rect width="1200" height="630" fill="#f8fafc"/>
<text x="64" y="68" font-family="Chalkboard SE, Comic Sans MS, sans-serif" font-size="19" font-weight="800" fill="#5d8f00" text-anchor="start">KUBESIMPLIFY · GPU SHARING</text>
<text x="64" y="158" font-family="Chalkboard SE, Comic Sans MS, sans-serif" font-size="52" font-weight="800" fill="#172033" text-anchor="start">Sharing GPUs in</text>
<text x="64" y="216.24" font-family="Chalkboard SE, Comic Sans MS, sans-serif" font-size="52" font-weight="800" fill="#172033" text-anchor="start">Kubernetes with HAMi</text>
<text x="64" y="292" font-family="Chalkboard SE, Comic Sans MS, sans-serif" font-size="22" font-weight="500" fill="#5c677d" text-anchor="start">Flexible memory and compute limits in software,</text>
<text x="64" y="322.36" font-family="Chalkboard SE, Comic Sans MS, sans-serif" font-size="22" font-weight="500" fill="#5c677d" text-anchor="start">tested on an 8× RTX PRO 6000 Kubernetes node.</text>
<path d="M -42.7 519.0 Q 12.5 463.3 70.8 408.0 M -30.8 518.5 Q 24.8 463.2 82.0 407.8 M -19.2 519.3 Q 36.5 463.1 93.0 407.1 M -9.0 518.3 Q 48.5 464.1 104.0 407.8 M 2.4 519.5 Q 58.8 462.9 113.7 406.4 M 12.3 518.9 Q 68.9 463.4 125.5 407.9 M 23.7 519.3 Q 79.0 462.2 135.1 407.5 M 35.1 518.6 Q 91.8 464.5 146.2 407.2 M 46.9 519.7 Q 103.2 464.1 157.7 406.1 M 57.0 519.1 Q 112.2 462.0 168.7 406.8 M 68.4 518.6 Q 122.6 464.0 179.0 406.1 M 78.4 518.8 Q 134.8 463.4 191.1 406.1 M 90.3 519.8 Q 145.2 463.6 202.4 407.3 M 100.9 518.3 Q 157.3 462.2 212.3 406.5 M 112.5 519.9 Q 167.6 464.4 224.9 407.7 M 123.2 518.9 Q 177.6 462.6 234.3 407.5 M 134.3 518.6 Q 188.7 462.8 245.4 406.3 M 144.4 519.5 Q 202.4 461.6 257.2 406.8 M 156.5 519.3 Q 210.5 462.7 268.0 406.0 M 167.3 519.1 Q 223.3 462.9 278.3 407.0 M 177.4 518.5 Q 234.4 461.6 290.9 407.6 M 188.4 518.4 Q 244.9 463.0 301.5 407.2 M 199.3 518.6 Q 257.4 463.7 312.0 407.5 M 210.2 519.5 Q 268.1 463.7 323.2 407.6 M 221.7 518.5 Q 278.8 464.0 333.8 407.3 M 232.4 519.2 Q 290.1 462.0 344.6 407.9 M 243.8 519.2 Q 299.2 463.1 355.2 407.6 M 254.1 519.6 Q 310.8 464.0 366.3 406.7 M 266.2 519.3 Q 321.0 464.4 378.5 407.7 M 276.9 519.7 Q 332.1 463.5 388.3 406.5 M 287.1 518.0 Q 344.0 461.6 400.1 407.4 M 298.5 519.7 Q 355.3 462.6 410.8 407.9 M 309.4 519.5 Q 367.0 463.5 421.9 406.4 M 320.6 518.5 Q 375.7 462.1 432.1 407.3 M 331.5 519.1 Q 386.9 461.9 444.1 406.4 M 342.2 518.5 Q 397.8 464.5 454.9 406.5 M 353.3 518.8 Q 409.9 463.2 466.4 406.6 M 364.2 519.4 Q 422.0 463.8 477.5 407.6 M 375.4 519.9 Q 432.2 464.2 488.4 406.3 M 387.5 519.1 Q 444.1 462.2 498.1 407.1 M 397.3 519.8 Q 453.5 461.8 510.3 406.9 M 408.1 520.0 Q 466.3 462.1 520.1 406.1 M 419.6 519.0 Q 475.9 461.8 532.6 407.4 M 431.5 519.0 Q 488.5 461.7 543.8 407.9 M 442.2 519.2 Q 498.8 464.4 554.8 406.8 M 452.9 519.3 Q 509.0 462.0 565.1 407.5 M 464.7 519.2 Q 520.6 462.2 575.3 407.7 M 475.6 519.7 Q 529.5 463.8 587.9 406.1 M 485.9 519.0 Q 543.1 464.2 597.2 407.5 M 496.0 518.7 Q 551.7 462.8 609.6 406.0 M 508.8 518.5 Q 565.0 464.4 619.2 407.3 M 518.2 519.1 Q 575.2 462.3 631.3 406.8 M 529.1 518.6 Q 585.8 464.3 641.9 407.6 M 540.7 519.3 Q 596.8 463.9 653.9 406.1 M 552.4 519.9 Q 609.1 463.3 664.6 406.9 M 563.4 519.2 Q 620.2 461.6 675.5 406.6 M 575.0 519.1 Q 629.7 463.6 685.1 406.7" stroke="#a5d8ff" stroke-width="2.5" opacity="0.58" fill="none" clip-path="url(#hami-clip-0)" stroke-linecap="round"/>
<path d="M 70.5 408.9 Q 327.6 405.1 585.5 407.5 M 586.0 406.1 Q 584.8 463.7 584.3 517.8 M 586.7 517.4 Q 324.6 521.9 70.2 517.7 M 68.1 520.7 Q 70.2 460.5 71.5 405.0" stroke="#1971c2" stroke-width="2.4" opacity="1" fill="none" stroke-linecap="round"/>
<path d="M 68.8 407.3 Q 327.4 408.1 585.4 406.4 M 585.6 407.3 Q 585.5 463.4 585.4 519.9 M 584.7 519.7 Q 327.6 520.3 69.8 517.9 M 69.2 519.8 Q 70.0 462.3 71.0 408.1" stroke="#1971c2" stroke-width="1.32" opacity="0.55" fill="none" stroke-linecap="round"/>
<text x="327" y="449" font-family="Chalkboard SE, Comic Sans MS, sans-serif" font-size="24" font-weight="800" fill="#1971c2" text-anchor="middle">8 physical GPUs  →  80 scheduling slots</text>
<text x="327" y="488" font-family="Chalkboard SE, Comic Sans MS, sans-serif" font-size="18" font-weight="500" fill="#5c677d" text-anchor="middle">slots multiply · hardware capacity does not</text>
<path d="M 300.7 514.9 Q 509.0 305.0 720.4 95.7 M 310.9 515.5 Q 522.1 305.6 730.3 95.5 M 321.6 514.9 Q 530.8 305.8 742.1 94.3 M 333.4 515.2 Q 541.8 305.4 752.1 95.3 M 343.3 515.4 Q 552.8 303.6 764.7 95.4 M 354.7 515.9 Q 565.6 306.1 775.2 95.9 M 366.6 514.4 Q 577.1 306.1 786.5 94.4 M 377.2 514.2 Q 586.1 303.6 797.0 94.3 M 387.1 515.9 Q 598.2 305.7 808.2 94.3 M 398.1 515.5 Q 609.3 306.3 819.3 95.7 M 409.7 515.3 Q 619.6 304.1 829.1 94.4 M 420.7 516.0 Q 629.9 306.2 840.7 95.1 M 432.4 516.0 Q 643.1 305.1 851.5 95.2 M 442.6 515.9 Q 653.0 304.4 862.9 95.7 M 453.0 514.4 Q 664.8 305.1 873.8 94.1 M 464.3 515.7 Q 673.6 303.7 884.2 94.3 M 475.5 514.3 Q 685.1 304.3 896.0 95.4 M 486.5 515.3 Q 695.6 305.8 907.7 94.4 M 497.0 514.2 Q 706.7 305.4 917.8 94.1 M 508.6 515.3 Q 719.5 303.8 929.0 94.7 M 519.7 514.7 Q 728.9 304.4 940.4 94.6 M 530.5 515.8 Q 740.5 305.6 950.5 95.8 M 541.6 514.7 Q 751.6 305.8 961.3 94.0 M 554.0 515.0 Q 763.2 304.3 972.4 95.2 M 563.3 514.1 Q 773.8 305.3 983.8 95.4 M 574.9 515.8 Q 785.9 305.5 995.9 95.8 M 586.3 514.7 Q 794.8 303.8 1005.1 94.2 M 596.4 514.9 Q 806.7 304.3 1016.8 94.4 M 607.1 515.6 Q 817.5 305.2 1028.0 94.3 M 619.1 515.0 Q 829.5 305.9 1039.6 94.1 M 629.5 515.9 Q 840.9 306.3 1050.8 95.1 M 641.7 514.5 Q 852.5 303.7 1060.9 95.0 M 651.7 515.6 Q 860.6 305.4 1071.2 94.1 M 663.3 514.7 Q 873.0 304.2 1082.7 94.4 M 673.1 514.1 Q 883.4 306.2 1094.1 94.2 M 684.4 516.0 Q 894.4 303.6 1105.0 95.8 M 696.9 515.0 Q 907.0 303.8 1115.2 95.1 M 707.9 515.2 Q 915.8 303.8 1127.3 96.0 M 718.7 514.7 Q 929.0 304.3 1137.9 95.0 M 730.0 514.4 Q 938.2 304.4 1148.1 94.1 M 739.9 514.9 Q 951.3 304.0 1159.1 95.2 M 751.5 515.7 Q 959.8 304.5 1171.6 95.4 M 761.9 515.0 Q 971.0 303.6 1182.1 95.6 M 773.9 514.7 Q 983.4 303.5 1194.0 94.2 M 784.7 515.3 Q 992.6 303.6 1205.0 95.1 M 795.6 516.0 Q 1005.7 304.2 1215.3 94.0 M 806.7 514.5 Q 1017.4 304.2 1225.5 94.4 M 816.4 515.8 Q 1027.7 305.8 1236.9 95.3 M 827.1 515.1 Q 1036.8 305.4 1248.7 94.8 M 838.2 515.8 Q 1050.3 305.5 1259.7 95.8 M 849.5 515.9 Q 1061.0 305.9 1270.9 95.6 M 860.2 514.1 Q 1072.5 305.6 1281.2 95.5 M 873.0 514.4 Q 1080.9 305.7 1291.1 95.3 M 883.5 514.2 Q 1092.7 304.4 1302.8 95.1 M 894.9 514.6 Q 1105.2 306.0 1314.2 95.2 M 904.9 515.1 Q 1114.3 304.6 1324.9 95.8 M 915.0 515.7 Q 1126.8 305.1 1337.0 94.4 M 926.7 515.5 Q 1136.1 304.8 1347.0 94.4 M 937.3 514.4 Q 1147.1 305.3 1358.5 95.9 M 949.0 515.3 Q 1159.0 305.9 1368.7 95.1 M 959.2 515.4 Q 1169.6 304.5 1379.7 95.1 M 970.8 514.6 Q 1182.5 306.4 1391.7 95.7 M 981.4 514.3 Q 1193.3 304.4 1402.4 94.6 M 992.1 515.7 Q 1203.6 303.9 1412.9 95.6 M 1003.2 515.8 Q 1213.6 303.9 1424.6 95.5 M 1014.4 515.8 Q 1226.0 305.4 1434.3 95.6 M 1025.2 515.1 Q 1236.0 306.4 1446.0 94.8 M 1036.2 515.6 Q 1246.9 305.1 1456.4 94.9 M 1048.3 514.2 Q 1258.9 304.4 1468.8 94.5 M 1058.8 514.5 Q 1268.9 306.0 1478.7 95.2 M 1070.4 514.6 Q 1280.5 304.5 1490.4 95.7 M 1080.4 514.6 Q 1290.2 304.9 1501.7 94.3 M 1092.5 514.9 Q 1301.2 305.2 1511.1 94.5 M 1102.2 514.3 Q 1311.7 304.6 1522.7 94.9" stroke="#e9ecef" stroke-width="2.5" opacity="0.58" fill="none" clip-path="url(#hami-clip-1)" stroke-linecap="round"/>
<path d="M 719.0 95.2 Q 912.7 95.1 1111.7 93.8 M 1109.8 96.5 Q 1112.3 305.6 1110.9 514.5 M 1111.6 515.9 Q 915.2 513.4 719.3 514.8 M 719.2 514.5 Q 721.3 307.9 719.6 94.3" stroke="#495057" stroke-width="3" opacity="1" fill="none" stroke-linecap="round"/>
<path d="M 719.0 94.0 Q 916.5 94.9 1111.0 95.4 M 1111.2 95.7 Q 1108.3 306.3 1109.8 514.5 M 1109.9 514.6 Q 916.2 514.9 720.6 513.9 M 720.2 515.9 Q 718.7 305.9 721.0 95.7" stroke="#495057" stroke-width="1.6500000000000001" opacity="0.55" fill="none" stroke-linecap="round"/>
<text x="915" y="138" font-family="Chalkboard SE, Comic Sans MS, sans-serif" font-size="26" font-weight="800" fill="#172033" text-anchor="middle">one physical GPU</text>
<text x="915" y="170" font-family="Chalkboard SE, Comic Sans MS, sans-serif" font-size="20" font-weight="500" fill="#5c677d" text-anchor="middle">97,887 MiB</text>
<path d="M 655.8 317.3 Q 707.1 265.6 760.9 211.8 M 666.8 316.6 Q 720.0 265.5 771.4 211.0 M 676.2 316.7 Q 730.0 263.6 782.1 211.2 M 688.3 317.2 Q 740.3 264.2 792.6 212.4 M 699.0 317.9 Q 751.1 265.9 803.8 211.4 M 709.3 316.6 Q 763.6 265.1 814.5 212.7 M 721.1 316.9 Q 772.2 264.0 826.0 211.8 M 732.7 316.1 Q 783.5 264.8 837.9 211.1 M 743.1 317.0 Q 795.0 264.2 847.9 212.9 M 754.3 316.8 Q 807.8 263.8 859.6 211.7 M 764.6 316.8 Q 818.1 265.5 869.5 211.2 M 776.9 317.6 Q 827.6 263.1 881.7 212.9 M 786.9 317.0 Q 839.9 265.1 892.3 211.2 M 798.1 317.7 Q 850.7 264.9 902.9 211.2 M 808.5 316.4 Q 862.1 264.1 914.3 211.4 M 819.2 316.2 Q 872.1 264.6 925.9 211.3 M 831.0 316.1 Q 883.0 265.8 936.0 212.2 M 841.0 316.4 Q 894.4 263.9 947.0 212.1 M 852.5 316.6 Q 905.1 263.2 957.8 211.2 M 863.8 317.5 Q 917.2 265.6 969.4 212.1 M 875.5 316.6 Q 926.6 263.1 980.8 211.1 M 885.4 316.1 Q 939.9 264.5 991.2 212.2 M 896.0 316.7 Q 950.1 264.3 1002.8 211.4" stroke="#d8f5a2" stroke-width="2.5" opacity="0.58" fill="none" clip-path="url(#hami-clip-2)" stroke-linecap="round"/>
<path d="M 760.6 211.7 Q 835.1 211.1 903.3 211.1 M 904.4 211.6 Q 902.5 263.8 904.2 318.5 M 904.8 316.5 Q 833.7 317.0 759.6 316.8 M 759.6 317.9 Q 760.4 264.9 759.1 213.3" stroke="#5d8f00" stroke-width="2.4" opacity="1" fill="none" stroke-linecap="round"/>
<path d="M 759.1 212.8 Q 831.3 213.4 905.2 212.8 M 905.2 212.9 Q 904.2 263.4 905.0 316.1 M 905.8 317.9 Q 833.1 315.5 758.8 316.8 M 760.9 317.9 Q 758.9 265.0 759.8 212.3" stroke="#5d8f00" stroke-width="1.32" opacity="0.55" fill="none" stroke-linecap="round"/>
<text x="832.5" y="247" font-family="Chalkboard SE, Comic Sans MS, sans-serif" font-size="19" font-weight="800" fill="#5d8f00" text-anchor="middle">pod 1</text>
<text x="832.5" y="279" font-family="Chalkboard SE, Comic Sans MS, sans-serif" font-size="17" font-weight="500" fill="#172033" text-anchor="middle">8 GB · 10%</text>
<path d="M 819.5 316.5 Q 873.8 265.5 925.2 212.3 M 830.3 316.6 Q 884.2 263.0 936.4 212.9 M 842.4 316.7 Q 894.9 265.1 947.8 212.0 M 853.3 316.9 Q 905.9 264.2 957.6 211.7 M 864.1 317.4 Q 916.0 263.0 968.6 212.9 M 875.8 317.6 Q 928.8 263.2 981.0 212.2 M 886.9 316.7 Q 938.0 264.2 991.8 212.5 M 896.1 316.9 Q 950.8 263.0 1002.2 212.4 M 908.5 316.9 Q 960.2 265.5 1012.4 212.7 M 919.2 317.6 Q 972.4 264.8 1023.4 212.6 M 929.1 316.0 Q 983.3 263.0 1034.5 211.9 M 941.9 316.7 Q 993.0 265.3 1046.2 211.7 M 951.5 317.8 Q 1004.0 265.4 1057.4 211.4 M 962.7 317.4 Q 1014.9 265.2 1067.6 212.4 M 973.1 317.5 Q 1025.2 264.4 1078.9 212.4 M 985.4 317.3 Q 1038.7 265.2 1089.0 212.3 M 996.4 317.0 Q 1049.8 265.3 1101.1 211.2 M 1007.0 317.4 Q 1060.1 264.1 1111.8 212.4 M 1017.8 316.4 Q 1070.2 265.9 1122.6 212.5 M 1029.6 317.6 Q 1080.3 263.6 1133.4 212.0 M 1039.8 317.9 Q 1092.0 263.4 1145.9 211.7 M 1050.1 317.9 Q 1102.4 265.3 1155.6 211.8 M 1062.0 317.2 Q 1114.7 263.9 1166.3 212.5" stroke="#a5d8ff" stroke-width="2.5" opacity="0.58" fill="none" clip-path="url(#hami-clip-3)" stroke-linecap="round"/>
<path d="M 923.0 211.2 Q 999.5 214.5 1068.8 211.3 M 1069.2 214.0 Q 1072.3 262.3 1071.6 316.6 M 1069.0 317.5 Q 996.5 314.3 923.5 317.8 M 925.6 316.9 Q 927.5 262.2 924.9 213.0" stroke="#1971c2" stroke-width="2.4" opacity="1" fill="none" stroke-linecap="round"/>
<path d="M 924.3 212.1 Q 999.1 212.0 1070.6 210.9 M 1068.9 211.2 Q 1071.5 265.9 1070.9 318.0 M 1070.7 315.9 Q 997.6 318.1 925.6 317.3 M 926.1 316.9 Q 924.3 265.3 924.7 212.8" stroke="#1971c2" stroke-width="1.32" opacity="0.55" fill="none" stroke-linecap="round"/>
<text x="997.5" y="247" font-family="Chalkboard SE, Comic Sans MS, sans-serif" font-size="19" font-weight="800" fill="#1971c2" text-anchor="middle">pod 2</text>
<text x="997.5" y="279" font-family="Chalkboard SE, Comic Sans MS, sans-serif" font-size="17" font-weight="500" fill="#172033" text-anchor="middle">12 GB · 20%</text>
<path d="M 654.9 443.7 Q 707.3 390.9 759.7 337.5 M 666.7 443.3 Q 717.9 391.3 771.1 337.4 M 677.9 442.2 Q 728.4 389.9 782.3 338.6 M 688.9 442.0 Q 740.9 390.9 792.9 337.6 M 698.0 442.6 Q 751.1 391.6 803.4 337.1 M 709.8 443.7 Q 762.1 389.2 814.6 338.5 M 720.6 442.0 Q 772.4 389.6 826.7 337.6 M 732.3 442.5 Q 784.3 391.8 837.3 337.1 M 743.6 442.2 Q 794.4 389.7 847.7 338.8 M 755.0 443.9 Q 806.1 389.7 858.3 338.1 M 765.7 443.3 Q 816.5 390.6 869.7 338.4 M 776.2 442.8 Q 827.1 390.5 880.5 337.6 M 787.6 442.5 Q 839.5 391.1 893.0 338.5 M 797.1 443.3 Q 850.2 390.6 903.9 337.5 M 808.6 442.8 Q 861.8 390.0 914.4 338.1 M 820.0 443.6 Q 871.2 391.6 925.4 338.8 M 831.5 443.0 Q 882.9 389.2 936.2 338.9 M 841.6 443.4 Q 894.5 390.0 946.9 337.6 M 852.2 443.5 Q 905.7 390.6 957.0 337.3 M 863.3 442.8 Q 916.9 391.5 969.4 337.1 M 874.0 442.6 Q 927.3 389.3 980.3 337.7 M 885.2 443.3 Q 938.5 389.0 991.6 337.2 M 897.8 443.0 Q 948.2 391.3 1002.8 337.1" stroke="#ffd8a8" stroke-width="2.5" opacity="0.58" fill="none" clip-path="url(#hami-clip-4)" stroke-linecap="round"/>
<path d="M 758.6 338.7 Q 831.9 338.8 903.1 338.6 M 905.3 337.2 Q 903.3 391.0 903.3 443.4 M 903.9 443.0 Q 833.1 442.7 758.4 442.7 M 760.7 444.5 Q 759.6 388.2 761.7 337.2" stroke="#d9480f" stroke-width="2.4" opacity="1" fill="none" stroke-linecap="round"/>
<path d="M 759.0 337.5 Q 831.5 337.0 905.9 336.8 M 904.4 338.7 Q 904.8 391.5 905.3 442.0 M 905.1 443.0 Q 832.2 444.2 760.7 443.2 M 759.4 443.9 Q 761.0 390.2 759.8 337.2" stroke="#d9480f" stroke-width="1.32" opacity="0.55" fill="none" stroke-linecap="round"/>
<text x="832.5" y="373" font-family="Chalkboard SE, Comic Sans MS, sans-serif" font-size="19" font-weight="800" fill="#d9480f" text-anchor="middle">pod 3</text>
<text x="832.5" y="405" font-family="Chalkboard SE, Comic Sans MS, sans-serif" font-size="17" font-weight="500" fill="#172033" text-anchor="middle">20 GB · 25%</text>
<path d="M 819.7 443.9 Q 871.2 391.9 924.7 338.8 M 831.4 443.4 Q 884.2 389.6 936.3 338.9 M 841.9 442.7 Q 894.8 390.7 947.1 337.1 M 852.5 443.2 Q 905.3 392.0 957.9 338.5 M 863.7 442.0 Q 916.4 390.8 968.4 337.0 M 875.2 442.6 Q 927.7 389.8 980.8 338.4 M 885.7 443.4 Q 938.9 390.3 990.9 337.2 M 897.0 442.5 Q 949.0 390.4 1001.6 337.2 M 907.9 442.5 Q 961.7 389.8 1013.8 338.7 M 918.6 442.4 Q 971.7 391.6 1023.5 338.9 M 930.1 443.7 Q 981.7 390.1 1035.8 338.0 M 941.9 443.5 Q 994.1 391.5 1045.9 338.4 M 951.0 442.9 Q 1005.1 391.6 1056.1 337.2 M 962.0 442.7 Q 1016.3 389.4 1067.5 338.5 M 974.9 443.0 Q 1026.5 389.2 1078.1 337.3 M 984.8 443.2 Q 1037.0 389.3 1090.9 338.5 M 995.8 442.3 Q 1048.9 389.3 1101.9 338.4 M 1006.6 442.9 Q 1059.0 391.5 1111.2 338.8 M 1018.7 442.8 Q 1069.2 390.1 1122.8 338.9 M 1029.7 443.0 Q 1080.9 391.5 1133.6 337.1 M 1040.1 442.5 Q 1093.2 391.9 1145.9 337.4 M 1050.0 443.7 Q 1104.1 390.9 1155.4 338.7 M 1062.7 442.8 Q 1114.5 390.1 1167.6 337.2" stroke="#eebefa" stroke-width="2.5" opacity="0.58" fill="none" clip-path="url(#hami-clip-5)" stroke-linecap="round"/>
<path d="M 924.8 336.4 Q 998.6 338.5 1068.8 338.9 M 1071.2 338.0 Q 1068.7 391.8 1068.9 443.4 M 1068.7 443.5 Q 998.7 442.9 926.8 442.4 M 925.1 443.6 Q 925.4 390.5 923.7 338.0" stroke="#862e9c" stroke-width="2.4" opacity="1" fill="none" stroke-linecap="round"/>
<path d="M 924.5 338.9 Q 996.9 336.7 1069.6 336.9 M 1070.9 337.3 Q 1069.0 389.5 1069.0 443.0 M 1069.5 443.5 Q 996.1 441.4 925.2 443.7 M 925.7 442.9 Q 925.2 390.7 926.0 337.7" stroke="#862e9c" stroke-width="1.32" opacity="0.55" fill="none" stroke-linecap="round"/>
<text x="997.5" y="373" font-family="Chalkboard SE, Comic Sans MS, sans-serif" font-size="19" font-weight="800" fill="#862e9c" text-anchor="middle">pod 4</text>
<text x="997.5" y="405" font-family="Chalkboard SE, Comic Sans MS, sans-serif" font-size="17" font-weight="500" fill="#172033" text-anchor="middle">40 GB · 45%</text>
<text x="915" y="487" font-family="Chalkboard SE, Comic Sans MS, sans-serif" font-size="18" font-weight="500" fill="#5c677d" text-anchor="middle">software-enforced boundaries</text>
<text x="64" y="588" font-family="Chalkboard SE, Comic Sans MS, sans-serif" font-size="18" font-weight="700" fill="#d9480f" text-anchor="start">HAMi v2.9.0 · real commands · real OOM test</text>
</svg>