<svg xmlns="http://www.w3.org/2000/svg" width="1600" height="790" viewBox="0 0 1600 790">
<defs><clipPath id="hami-clip-0"><rect x="125" y="280" width="92" height="88" rx="7"/></clipPath><clipPath id="hami-clip-1"><rect x="233" y="280" width="92" height="88" rx="7"/></clipPath><clipPath id="hami-clip-2"><rect x="341" y="280" width="92" height="88" rx="7"/></clipPath><clipPath id="hami-clip-3"><rect x="622" y="272" width="90" height="180" rx="7"/></clipPath><clipPath id="hami-clip-4"><rect x="725" y="272" width="135" height="180" rx="7"/></clipPath><clipPath id="hami-clip-5"><rect x="873" y="272" width="105" height="180" rx="7"/></clipPath><clipPath id="hami-clip-6"><rect x="1147" y="262" width="152" height="105" rx="7"/></clipPath><clipPath id="hami-clip-7"><rect x="1321" y="262" width="152" height="105" rx="7"/></clipPath><clipPath id="hami-clip-8"><rect x="1147" y="387" width="152" height="105" rx="7"/></clipPath><clipPath id="hami-clip-9"><rect x="1321" y="387" width="152" height="105" rx="7"/></clipPath></defs>
<rect width="1600" height="790" fill="#ffffff"/>
<text x="800" y="62" font-family="Chalkboard SE, Comic Sans MS, sans-serif" font-size="42" font-weight="800" fill="#172033" text-anchor="middle">Three ways to share one GPU</text>
<text x="800" y="100" font-family="Chalkboard SE, Comic Sans MS, sans-serif" font-size="22" font-weight="500" fill="#5c677d" text-anchor="middle">same goal, very different isolation boundary</text>
<text x="280" y="155" font-family="Chalkboard SE, Comic Sans MS, sans-serif" font-size="30" font-weight="800" fill="#d9480f" text-anchor="middle">Time-slicing</text>
<path d="M 75.0 185.0 Q 278.5 183.9 486.6 186.0 M 484.7 184.0 Q 485.9 377.8 483.4 575.5 M 484.0 575.4 Q 280.3 572.2 73.5 573.4 M 76.0 573.5 Q 73.7 382.7 73.7 185.5" stroke="#172033" stroke-width="3" opacity="1" fill="none" stroke-linecap="round"/>
<path d="M 74.9 185.6 Q 279.8 185.3 483.8 185.4 M 485.6 184.9 Q 485.6 378.8 484.8 575.1 M 484.1 575.9 Q 279.9 576.2 75.0 576.1 M 75.8 576.0 Q 74.6 381.2 74.6 185.9" stroke="#172033" stroke-width="1.6500000000000001" opacity="0.55" fill="none" stroke-linecap="round"/>
<text x="280" y="222" font-family="Chalkboard SE, Comic Sans MS, sans-serif" font-size="18" font-weight="500" fill="#5c677d" text-anchor="middle">scheduler slots only</text>
<path d="M 37.5 368.3 Q 80.9 324.3 126.0 280.5 M 48.6 368.5 Q 92.6 323.5 135.4 279.3 M 58.8 367.3 Q 102.0 322.7 147.2 279.8 M 70.7 367.5 Q 114.7 322.9 158.4 281.0 M 80.2 367.4 Q 126.1 324.4 169.8 280.3 M 93.0 368.3 Q 137.0 323.2 180.2 279.7 M 102.4 367.8 Q 146.3 325.1 191.1 279.4 M 113.6 367.9 Q 157.3 322.9 202.3 279.3 M 125.6 367.7 Q 169.9 323.2 212.4 279.9 M 136.6 368.3 Q 179.2 324.9 224.4 279.4 M 146.4 368.9 Q 190.6 322.6 234.5 279.2 M 157.4 368.0 Q 203.3 324.3 246.3 280.6 M 169.7 367.2 Q 213.2 325.5 257.1 279.3 M 180.3 367.3 Q 223.3 324.5 267.6 280.0 M 190.9 367.5 Q 235.4 324.2 278.8 279.9 M 202.4 368.7 Q 245.3 324.9 289.6 279.3 M 213.6 368.0 Q 256.5 324.0 300.3 279.2" stroke="#ffd8a8" stroke-width="2.5" opacity="0.58" fill="none" clip-path="url(#hami-clip-0)" stroke-linecap="round"/>
<path d="M 124.9 281.9 Q 173.9 280.4 215.3 281.6 M 217.4 280.2 Q 218.5 322.5 216.7 369.4 M 217.5 369.6 Q 168.0 369.2 123.5 366.6 M 125.5 366.0 Q 124.9 325.0 126.6 281.3" stroke="#d9480f" stroke-width="2.4" opacity="1" fill="none" stroke-linecap="round"/>
<path d="M 124.8 279.0 Q 169.3 279.0 217.9 278.9 M 216.3 281.1 Q 218.1 324.1 217.7 368.9 M 216.5 366.9 Q 169.7 368.3 124.8 368.6 M 126.2 366.9 Q 125.0 322.7 125.6 278.8" stroke="#d9480f" stroke-width="1.32" opacity="0.55" fill="none" stroke-linecap="round"/>
<text x="171" y="333" font-family="Chalkboard SE, Comic Sans MS, sans-serif" font-size="18" font-weight="700" fill="#172033" text-anchor="middle">pod A</text>
<path d="M 145.7 368.1 Q 188.6 324.5 232.6 280.5 M 156.7 367.5 Q 198.9 324.7 244.4 279.8 M 166.3 367.3 Q 210.7 323.0 255.2 280.8 M 177.8 369.0 Q 220.7 323.7 265.8 280.0 M 189.7 367.3 Q 233.3 323.7 277.7 279.3 M 200.5 367.1 Q 244.5 325.0 287.8 280.1 M 210.6 367.5 Q 255.0 324.4 299.0 280.4 M 221.4 368.0 Q 264.8 323.2 310.3 281.0 M 232.9 367.4 Q 278.3 325.4 320.7 280.2 M 244.7 368.2 Q 287.7 323.7 331.2 279.9 M 255.7 368.6 Q 298.3 323.2 343.5 280.9 M 267.0 367.1 Q 310.7 324.8 353.6 279.3 M 277.6 367.2 Q 320.3 323.6 364.4 279.1 M 287.5 368.4 Q 330.6 323.9 375.3 280.5 M 298.7 368.6 Q 344.2 324.3 386.7 279.6 M 310.4 368.7 Q 354.0 323.4 397.2 280.6 M 321.6 367.1 Q 365.7 323.0 409.4 279.2" stroke="#ffd8a8" stroke-width="2.5" opacity="0.58" fill="none" clip-path="url(#hami-clip-1)" stroke-linecap="round"/>
<path d="M 232.5 280.5 Q 276.5 280.4 326.1 279.8 M 325.3 279.6 Q 324.4 321.7 324.0 369.0 M 324.5 368.8 Q 278.9 366.1 234.7 367.7 M 234.5 367.5 Q 232.6 323.9 232.1 279.4" stroke="#d9480f" stroke-width="2.4" opacity="1" fill="none" stroke-linecap="round"/>
<path d="M 233.9 279.3 Q 278.2 279.3 325.0 280.8 M 324.0 280.8 Q 324.9 322.7 324.2 367.1 M 323.9 368.3 Q 278.4 368.1 232.9 368.1 M 232.5 369.0 Q 232.0 322.9 233.4 280.2" stroke="#d9480f" stroke-width="1.32" opacity="0.55" fill="none" stroke-linecap="round"/>
<text x="279" y="333" font-family="Chalkboard SE, Comic Sans MS, sans-serif" font-size="18" font-weight="700" fill="#172033" text-anchor="middle">pod B</text>
<path d="M 252.8 367.4 Q 296.5 323.5 340.5 279.1 M 263.2 368.3 Q 309.1 325.3 352.9 279.4 M 275.7 368.4 Q 319.7 322.5 362.3 279.1 M 286.3 369.0 Q 330.2 322.6 373.4 280.8 M 296.4 367.4 Q 340.2 323.4 384.2 279.6 M 308.9 367.0 Q 352.4 322.7 396.5 280.1 M 318.5 367.6 Q 363.5 324.5 407.3 280.8 M 330.1 367.9 Q 372.9 325.4 417.2 279.4 M 340.9 368.0 Q 386.0 323.9 428.9 279.4 M 351.4 367.6 Q 396.4 325.2 440.0 279.6 M 362.0 367.1 Q 405.8 324.0 451.2 279.1 M 373.2 367.0 Q 416.5 322.9 461.8 280.8 M 385.7 368.4 Q 428.6 324.0 472.2 280.2 M 396.9 367.3 Q 440.7 323.5 483.5 279.8 M 406.6 367.6 Q 449.5 322.8 495.7 279.6 M 417.0 368.8 Q 461.2 323.3 505.4 279.1 M 429.0 368.8 Q 472.5 323.6 517.0 279.6" stroke="#ffd8a8" stroke-width="2.5" opacity="0.58" fill="none" clip-path="url(#hami-clip-2)" stroke-linecap="round"/>
<path d="M 339.0 280.4 Q 388.4 279.6 433.0 279.7 M 432.3 280.5 Q 435.6 323.7 431.6 370.0 M 434.6 366.5 Q 385.3 367.4 340.0 366.6 M 342.1 367.3 Q 342.8 324.1 340.6 280.5" stroke="#d9480f" stroke-width="2.4" opacity="1" fill="none" stroke-linecap="round"/>
<path d="M 340.5 279.6 Q 387.7 278.4 432.6 280.1 M 434.0 280.5 Q 433.3 323.6 432.3 367.2 M 432.9 368.8 Q 387.0 367.1 340.0 367.8 M 341.9 366.9 Q 340.0 322.6 340.0 279.4" stroke="#d9480f" stroke-width="1.32" opacity="0.55" fill="none" stroke-linecap="round"/>
<text x="387" y="333" font-family="Chalkboard SE, Comic Sans MS, sans-serif" font-size="18" font-weight="700" fill="#172033" text-anchor="middle">pod C</text>
<path d="M 149.7 430.0 Q 278.5 430.6 408.3 430.0" stroke="#d9480f" stroke-width="2.6" fill="none" stroke-linecap="round"/>
<path d="M 408.2 429.4 Q 402.1 433.8 399.1 435.8" stroke="#d9480f" stroke-width="2.6" fill="none" stroke-linecap="round"/>
<path d="M 411.4 429.5 Q 401.9 427.5 398.3 421.3" stroke="#d9480f" stroke-width="2.6" fill="none" stroke-linecap="round"/>
<text x="280" y="472" font-family="Chalkboard SE, Comic Sans MS, sans-serif" font-size="19" font-weight="500" fill="#172033" text-anchor="middle">take turns on one open card</text>
<text x="280" y="630" font-family="Chalkboard SE, Comic Sans MS, sans-serif" font-size="20" font-weight="700" fill="#d9480f" text-anchor="middle">no per-pod VRAM cap</text>
<text x="280" y="659" font-family="Chalkboard SE, Comic Sans MS, sans-serif" font-size="20" font-weight="700" fill="#d9480f" text-anchor="middle">all replicas see the full card</text>
<text x="795" y="155" font-family="Chalkboard SE, Comic Sans MS, sans-serif" font-size="30" font-weight="800" fill="#5d8f00" text-anchor="middle">HAMi</text>
<path d="M 588.2 185.8 Q 794.1 186.4 999.5 184.2 M 999.8 184.6 Q 1001.2 378.7 1001.4 575.8 M 1001.3 573.3 Q 792.1 576.7 588.5 574.5 M 590.0 576.7 Q 587.2 382.9 589.0 183.6" stroke="#172033" stroke-width="3" opacity="1" fill="none" stroke-linecap="round"/>
<path d="M 590.9 184.1 Q 795.8 185.7 1000.0 185.9 M 1000.0 184.0 Q 998.8 380.4 1000.3 575.4 M 1000.2 575.5 Q 793.9 575.8 591.1 574.3 M 589.1 574.4 Q 590.3 379.7 590.4 184.3" stroke="#172033" stroke-width="1.6500000000000001" opacity="0.55" fill="none" stroke-linecap="round"/>
<text x="795" y="222" font-family="Chalkboard SE, Comic Sans MS, sans-serif" font-size="18" font-weight="500" fill="#5c677d" text-anchor="middle">user-space CUDA/NVML hooks</text>
<path d="M 442.2 452.7 Q 532.7 360.6 621.9 271.6 M 453.9 452.1 Q 541.7 362.9 632.9 271.9 M 464.1 452.9 Q 554.7 360.8 643.9 272.8 M 474.7 452.8 Q 565.4 361.2 655.4 271.4 M 486.5 451.2 Q 577.1 362.4 665.0 271.4 M 496.3 451.2 Q 585.8 362.0 677.4 271.7 M 508.7 451.4 Q 596.6 361.2 688.7 273.0 M 519.1 451.9 Q 609.7 362.7 699.9 271.3 M 529.4 452.0 Q 619.7 361.3 709.1 272.6 M 541.5 451.2 Q 632.2 363.3 721.2 271.6 M 551.8 452.4 Q 642.8 360.9 732.2 271.5 M 563.8 452.4 Q 651.9 361.1 742.3 272.9 M 574.1 452.1 Q 665.4 361.9 754.8 271.8 M 585.6 452.0 Q 673.9 363.4 764.6 271.9 M 596.9 452.5 Q 684.9 362.6 776.1 272.3 M 607.6 451.5 Q 697.1 361.8 787.7 272.3 M 618.0 451.9 Q 707.1 360.8 797.2 272.8 M 628.8 452.1 Q 720.0 361.0 808.2 272.0 M 640.7 452.3 Q 728.7 362.8 819.5 271.9 M 651.8 451.1 Q 740.5 361.3 831.7 271.2 M 661.4 451.4 Q 753.4 361.3 841.2 272.0 M 672.9 451.4 Q 764.3 363.1 853.0 271.9 M 683.6 451.7 Q 775.2 362.1 863.3 272.1 M 695.7 451.5 Q 784.4 362.1 875.9 271.9 M 705.2 452.4 Q 794.9 362.0 886.9 272.4" stroke="#d8f5a2" stroke-width="2.5" opacity="0.58" fill="none" clip-path="url(#hami-clip-3)" stroke-linecap="round"/>
<path d="M 623.3 272.6 Q 664.3 273.5 712.0 273.1 M 712.0 270.5 Q 714.2 361.2 710.8 453.4 M 712.9 451.3 Q 669.2 451.5 621.7 452.8 M 622.0 451.1 Q 623.4 360.2 623.6 270.4" stroke="#5d8f00" stroke-width="2.4" opacity="1" fill="none" stroke-linecap="round"/>
<path d="M 622.5 272.0 Q 666.2 270.9 713.0 272.0 M 712.1 272.9 Q 711.7 360.5 713.1 453.0 M 711.2 452.0 Q 667.0 451.9 621.1 453.1 M 622.6 451.9 Q 621.1 363.7 622.7 271.3" stroke="#5d8f00" stroke-width="1.32" opacity="0.55" fill="none" stroke-linecap="round"/>
<text x="667" y="325" font-family="Chalkboard SE, Comic Sans MS, sans-serif" font-size="17" font-weight="700" fill="#172033" text-anchor="middle">pod A</text>
<text x="667" y="360" font-family="Chalkboard SE, Comic Sans MS, sans-serif" font-size="18" font-weight="500" fill="#172033" text-anchor="middle">8 GB</text>
<text x="667" y="392" font-family="Chalkboard SE, Comic Sans MS, sans-serif" font-size="17" font-weight="500" fill="#5c677d" text-anchor="middle">10%</text>
<path d="M 544.6 451.6 Q 636.5 361.0 725.2 272.6 M 555.9 452.3 Q 646.2 361.6 736.2 271.1 M 566.6 451.5 Q 655.8 361.6 747.4 271.2 M 577.4 451.0 Q 668.9 363.2 757.9 271.4 M 588.6 452.4 Q 679.6 360.8 768.2 272.5 M 600.3 451.2 Q 690.4 362.7 780.2 271.5 M 610.6 451.3 Q 702.0 362.9 790.6 272.6 M 622.8 451.7 Q 712.1 362.7 802.2 271.9 M 632.6 452.7 Q 723.5 361.7 812.3 271.4 M 643.1 451.8 Q 735.0 361.5 823.5 272.6 M 655.3 451.3 Q 745.7 362.1 834.8 272.6 M 666.5 451.3 Q 754.6 363.5 846.6 272.2 M 677.3 452.0 Q 767.0 361.3 856.4 272.6 M 687.6 452.9 Q 776.8 360.8 868.8 272.4 M 698.4 452.3 Q 789.5 362.9 878.2 271.9 M 709.1 451.5 Q 800.9 361.8 890.7 272.4 M 720.3 452.1 Q 809.9 360.8 900.4 273.0 M 731.6 452.6 Q 822.9 363.3 912.9 271.3 M 742.2 451.6 Q 832.5 362.5 923.9 272.8 M 753.1 452.5 Q 843.1 362.6 934.0 272.1 M 764.4 451.0 Q 855.6 362.9 945.4 272.3 M 775.2 452.5 Q 864.8 361.5 956.4 271.8 M 787.6 451.7 Q 877.6 361.6 967.6 271.1 M 797.1 452.6 Q 888.1 362.7 977.4 271.4 M 809.6 451.7 Q 899.8 361.7 989.2 272.1 M 820.7 451.5 Q 909.4 362.3 999.9 272.0 M 830.3 452.1 Q 920.5 360.8 1010.1 272.4 M 841.5 452.3 Q 931.6 360.9 1022.4 272.3 M 852.6 451.6 Q 943.4 361.8 1033.3 272.8" stroke="#d8f5a2" stroke-width="2.5" opacity="0.58" fill="none" clip-path="url(#hami-clip-4)" stroke-linecap="round"/>
<path d="M 724.1 272.3 Q 794.9 273.6 858.2 271.8 M 860.2 274.0 Q 860.7 361.2 858.9 452.9 M 858.7 453.2 Q 791.0 454.6 726.5 451.4 M 724.6 452.1 Q 726.8 361.1 723.6 272.3" stroke="#5d8f00" stroke-width="2.4" opacity="1" fill="none" stroke-linecap="round" stroke-dasharray="9 8"/>
<path d="M 724.6 272.1 Q 792.6 273.7 859.9 272.0 M 859.8 272.8 Q 861.6 360.7 859.8 452.7 M 859.4 452.3 Q 791.3 450.8 725.9 452.3 M 725.0 450.9 Q 726.6 363.8 724.5 271.0" stroke="#5d8f00" stroke-width="1.32" opacity="0.55" fill="none" stroke-linecap="round" stroke-dasharray="9 8"/>
<text x="792.5" y="325" font-family="Chalkboard SE, Comic Sans MS, sans-serif" font-size="17" font-weight="700" fill="#172033" text-anchor="middle">pod B</text>
<text x="792.5" y="360" font-family="Chalkboard SE, Comic Sans MS, sans-serif" font-size="18" font-weight="500" fill="#172033" text-anchor="middle">20 GB</text>
<text x="792.5" y="392" font-family="Chalkboard SE, Comic Sans MS, sans-serif" font-size="17" font-weight="500" fill="#5c677d" text-anchor="middle">35%</text>
<path d="M 693.6 451.9 Q 784.4 361.1 872.6 272.1 M 704.0 452.8 Q 794.9 361.4 883.1 272.1 M 714.3 451.2 Q 806.3 361.6 895.1 272.2 M 726.0 451.4 Q 817.0 362.5 906.5 271.1 M 737.0 452.9 Q 827.8 361.8 916.1 272.4 M 747.3 452.6 Q 837.8 361.4 927.1 272.3 M 758.5 452.6 Q 849.5 362.5 939.7 271.1 M 770.6 451.9 Q 860.9 362.2 949.4 271.3 M 780.2 451.1 Q 871.2 363.0 960.9 271.5 M 792.4 451.9 Q 883.2 362.2 972.3 271.0 M 802.5 452.1 Q 891.7 362.7 982.9 272.8 M 813.0 451.8 Q 904.0 363.3 993.4 272.7 M 824.9 452.9 Q 915.7 362.3 1004.5 272.7 M 836.0 452.3 Q 925.0 361.7 1015.5 271.7 M 846.3 451.7 Q 935.8 362.8 1027.6 272.0 M 857.7 452.4 Q 949.1 361.5 1038.4 272.6 M 869.1 452.4 Q 959.5 362.4 1048.9 272.8 M 880.3 451.6 Q 970.6 362.3 1060.5 271.1 M 891.6 452.4 Q 982.0 362.1 1070.6 271.9 M 901.8 452.6 Q 991.0 361.5 1083.0 272.2 M 912.1 452.9 Q 1002.8 363.4 1092.2 272.0 M 923.3 452.8 Q 1015.0 362.6 1103.6 272.1 M 934.4 451.6 Q 1025.6 362.9 1114.4 271.5 M 945.5 451.5 Q 1035.0 362.6 1125.4 272.8 M 957.3 452.5 Q 1048.0 362.5 1136.7 273.0 M 967.5 452.8 Q 1058.5 362.7 1148.6 271.5" stroke="#d8f5a2" stroke-width="2.5" opacity="0.58" fill="none" clip-path="url(#hami-clip-5)" stroke-linecap="round"/>
<path d="M 871.8 272.0 Q 927.0 273.0 977.4 273.5 M 978.2 271.3 Q 978.0 363.5 978.2 453.1 M 977.1 452.1 Q 927.9 452.0 871.6 452.4 M 873.5 452.1 Q 875.1 364.3 871.9 273.1" stroke="#5d8f00" stroke-width="2.4" opacity="1" fill="none" stroke-linecap="round"/>
<path d="M 872.7 273.1 Q 926.0 272.3 977.4 272.0 M 978.4 272.4 Q 977.1 363.2 977.7 451.8 M 978.5 452.9 Q 924.3 451.5 872.7 451.4 M 872.0 451.3 Q 871.4 363.6 872.8 272.2" stroke="#5d8f00" stroke-width="1.32" opacity="0.55" fill="none" stroke-linecap="round"/>
<text x="925.5" y="325" font-family="Chalkboard SE, Comic Sans MS, sans-serif" font-size="17" font-weight="700" fill="#172033" text-anchor="middle">pod C</text>
<text x="925.5" y="360" font-family="Chalkboard SE, Comic Sans MS, sans-serif" font-size="18" font-weight="500" fill="#172033" text-anchor="middle">12 GB</text>
<text x="925.5" y="392" font-family="Chalkboard SE, Comic Sans MS, sans-serif" font-size="17" font-weight="500" fill="#5c677d" text-anchor="middle">15%</text>
<text x="795" y="500" font-family="Chalkboard SE, Comic Sans MS, sans-serif" font-size="19" font-weight="500" fill="#172033" text-anchor="middle">shared silicon, separate accounts</text>
<text x="795" y="630" font-family="Chalkboard SE, Comic Sans MS, sans-serif" font-size="20" font-weight="700" fill="#5d8f00" text-anchor="middle">arbitrary MiB + 1% core steps</text>
<text x="795" y="659" font-family="Chalkboard SE, Comic Sans MS, sans-serif" font-size="20" font-weight="700" fill="#5d8f00" text-anchor="middle">best-effort software isolation</text>
<text x="1310" y="155" font-family="Chalkboard SE, Comic Sans MS, sans-serif" font-size="30" font-weight="800" fill="#1971c2" text-anchor="middle">MIG</text>
<path d="M 1105.8 186.3 Q 1307.5 184.1 1514.3 184.2 M 1515.4 186.8 Q 1512.4 377.6 1515.3 573.4 M 1516.2 573.1 Q 1309.1 575.2 1105.1 576.3 M 1105.0 573.9 Q 1107.4 381.7 1106.7 183.2" stroke="#172033" stroke-width="3" opacity="1" fill="none" stroke-linecap="round"/>
<path d="M 1104.6 185.1 Q 1310.9 186.1 1514.0 184.0 M 1515.6 183.9 Q 1514.8 379.6 1516.0 574.0 M 1515.9 575.0 Q 1309.8 575.4 1104.9 575.3 M 1105.4 574.2 Q 1105.3 381.5 1105.8 184.8" stroke="#172033" stroke-width="1.6500000000000001" opacity="0.55" fill="none" stroke-linecap="round"/>
<text x="1310" y="222" font-family="Chalkboard SE, Comic Sans MS, sans-serif" font-size="18" font-weight="500" fill="#5c677d" text-anchor="middle">hardware partitions</text>
<path d="M 1041.7 367.5 Q 1095.7 313.2 1147.5 262.9 M 1053.7 367.7 Q 1106.6 315.0 1158.5 262.3 M 1064.1 366.7 Q 1117.4 313.7 1168.4 262.4 M 1074.8 367.0 Q 1128.8 313.7 1181.0 261.0 M 1086.0 367.7 Q 1139.3 315.9 1191.6 261.7 M 1097.1 367.2 Q 1148.6 315.1 1201.2 262.5 M 1108.2 366.4 Q 1161.1 315.8 1213.2 261.1 M 1118.4 366.6 Q 1170.2 314.3 1223.6 262.5 M 1130.2 366.0 Q 1181.8 313.6 1235.4 261.3 M 1140.7 367.5 Q 1192.9 315.1 1246.1 262.6 M 1152.8 366.3 Q 1203.2 315.4 1257.3 262.7 M 1163.8 367.5 Q 1215.8 314.4 1267.2 261.7 M 1173.2 366.6 Q 1227.3 313.5 1279.1 262.4 M 1185.3 367.8 Q 1238.7 314.9 1290.5 262.4 M 1195.7 367.2 Q 1248.6 313.1 1301.6 262.4 M 1206.5 366.5 Q 1258.3 314.7 1312.8 262.1 M 1217.6 367.5 Q 1270.6 315.2 1323.1 262.1 M 1228.8 367.5 Q 1282.4 314.3 1334.0 262.6 M 1240.2 367.8 Q 1293.2 314.1 1345.4 262.4 M 1251.7 366.9 Q 1303.4 315.3 1355.1 261.1 M 1261.6 366.3 Q 1315.1 315.6 1366.0 261.5 M 1273.9 367.2 Q 1326.0 315.5 1378.2 261.8 M 1283.2 367.8 Q 1336.8 315.3 1389.4 262.4 M 1294.7 367.6 Q 1346.7 314.6 1400.7 261.6" stroke="#a5d8ff" stroke-width="2.5" opacity="0.58" fill="none" clip-path="url(#hami-clip-6)" stroke-linecap="round"/>
<path d="M 1148.8 261.4 Q 1221.2 261.8 1299.1 261.5 M 1299.7 261.3 Q 1298.8 312.6 1299.7 368.3 M 1298.4 367.1 Q 1220.4 364.0 1147.5 366.7 M 1145.7 365.9 Q 1148.2 316.0 1148.5 260.3" stroke="#1971c2" stroke-width="2.8" opacity="1" fill="none" stroke-linecap="round"/>
<path d="M 1148.2 261.7 Q 1222.0 263.5 1298.4 261.6 M 1300.0 261.5 Q 1298.8 316.2 1297.9 366.5 M 1299.0 366.3 Q 1224.0 367.3 1145.9 367.2 M 1147.0 367.4 Q 1147.8 314.4 1148.0 261.1" stroke="#1971c2" stroke-width="1.54" opacity="0.55" fill="none" stroke-linecap="round"/>
<text x="1223" y="310" font-family="Chalkboard SE, Comic Sans MS, sans-serif" font-size="19" font-weight="700" fill="#172033" text-anchor="middle">1g.24gb</text>
<text x="1223" y="340" font-family="Chalkboard SE, Comic Sans MS, sans-serif" font-size="16" font-weight="500" fill="#5c677d" text-anchor="middle">own SMs</text>
<path d="M 1216.7 366.8 Q 1267.3 315.3 1320.8 261.3 M 1227.5 367.7 Q 1278.7 314.3 1332.3 262.2 M 1238.9 366.5 Q 1291.2 313.3 1342.2 261.3 M 1248.7 367.4 Q 1302.5 314.7 1353.6 262.6 M 1260.9 366.1 Q 1313.4 315.1 1364.8 262.2 M 1271.7 368.0 Q 1324.0 315.4 1376.1 262.0 M 1281.4 367.9 Q 1333.6 315.3 1387.3 261.5 M 1293.6 367.5 Q 1346.5 316.0 1397.6 262.9 M 1303.8 366.4 Q 1355.6 314.4 1409.9 261.2 M 1315.2 366.2 Q 1368.6 314.0 1419.8 262.3 M 1325.7 367.8 Q 1379.0 315.7 1430.5 262.4 M 1337.7 366.7 Q 1389.8 313.9 1442.4 262.1 M 1347.2 366.9 Q 1400.9 315.4 1453.9 262.6 M 1359.6 366.1 Q 1410.2 314.6 1464.1 262.1 M 1369.5 367.7 Q 1422.3 314.5 1475.1 261.3 M 1380.7 366.1 Q 1432.7 314.4 1485.4 262.8 M 1392.3 367.9 Q 1443.5 315.1 1497.8 262.2 M 1403.1 366.7 Q 1456.2 313.3 1507.8 262.9 M 1413.8 367.6 Q 1468.0 313.3 1518.5 262.9 M 1424.5 367.0 Q 1478.5 315.3 1530.7 261.1 M 1435.1 367.8 Q 1489.7 314.6 1540.6 261.6 M 1447.6 367.4 Q 1498.4 313.7 1552.5 262.4 M 1458.5 366.1 Q 1511.5 313.8 1562.9 262.0 M 1469.4 367.9 Q 1522.2 315.9 1574.6 261.2" stroke="#a5d8ff" stroke-width="2.5" opacity="0.58" fill="none" clip-path="url(#hami-clip-7)" stroke-linecap="round"/>
<path d="M 1321.8 263.8 Q 1395.3 262.9 1473.9 260.7 M 1473.5 261.0 Q 1473.4 312.7 1472.1 365.5 M 1472.8 368.3 Q 1397.0 366.6 1319.0 365.7 M 1322.0 366.2 Q 1322.5 315.6 1320.5 263.5" stroke="#1971c2" stroke-width="2.8" opacity="1" fill="none" stroke-linecap="round"/>
<path d="M 1321.0 261.0 Q 1396.7 261.7 1473.3 262.2 M 1472.6 261.3 Q 1474.2 313.2 1472.3 367.5 M 1473.3 366.3 Q 1396.1 366.6 1321.4 367.5 M 1320.0 367.7 Q 1320.6 315.4 1320.5 263.2" stroke="#1971c2" stroke-width="1.54" opacity="0.55" fill="none" stroke-linecap="round"/>
<text x="1397" y="310" font-family="Chalkboard SE, Comic Sans MS, sans-serif" font-size="19" font-weight="700" fill="#172033" text-anchor="middle">1g.24gb</text>
<text x="1397" y="340" font-family="Chalkboard SE, Comic Sans MS, sans-serif" font-size="16" font-weight="500" fill="#5c677d" text-anchor="middle">own SMs</text>
<path d="M 1042.9 491.6 Q 1095.6 438.8 1146.0 386.4 M 1053.1 492.9 Q 1105.1 440.9 1158.0 386.1 M 1064.2 492.7 Q 1116.4 439.1 1168.4 387.5 M 1075.8 491.1 Q 1126.2 440.8 1179.4 387.2 M 1086.3 491.3 Q 1138.4 439.8 1191.2 386.3 M 1097.5 492.4 Q 1149.9 440.9 1202.8 387.5 M 1108.9 492.4 Q 1159.9 439.9 1213.6 386.7 M 1118.5 491.4 Q 1171.6 440.1 1224.0 386.3 M 1130.1 491.8 Q 1183.2 440.8 1235.1 387.9 M 1141.0 492.3 Q 1193.5 440.8 1245.1 386.3 M 1152.9 492.5 Q 1205.7 440.7 1256.2 387.5 M 1163.6 492.4 Q 1214.8 438.3 1268.0 386.3 M 1174.6 491.2 Q 1227.3 440.6 1278.1 387.1 M 1185.1 491.8 Q 1238.6 440.9 1289.4 387.3 M 1197.0 492.3 Q 1247.2 440.8 1300.2 386.2 M 1207.6 491.8 Q 1260.1 440.5 1311.8 387.6 M 1218.4 491.1 Q 1269.6 438.1 1323.5 386.6 M 1228.0 492.6 Q 1280.6 438.8 1333.3 387.1 M 1239.6 491.2 Q 1291.5 440.5 1344.8 387.8 M 1250.8 491.3 Q 1303.8 438.8 1355.0 387.6 M 1262.6 491.3 Q 1314.3 441.0 1367.6 387.3 M 1273.5 492.0 Q 1326.6 440.3 1378.7 386.5 M 1284.8 491.6 Q 1336.0 439.2 1388.6 387.5 M 1294.4 491.7 Q 1347.5 440.2 1400.7 387.9" stroke="#a5d8ff" stroke-width="2.5" opacity="0.58" fill="none" clip-path="url(#hami-clip-8)" stroke-linecap="round"/>
<path d="M 1145.2 386.9 Q 1222.3 385.5 1298.3 385.8 M 1298.5 387.5 Q 1296.9 438.5 1300.9 493.0 M 1299.5 490.5 Q 1225.9 489.1 1145.2 490.5 M 1148.8 492.1 Q 1148.4 441.6 1146.3 385.5" stroke="#1971c2" stroke-width="2.8" opacity="1" fill="none" stroke-linecap="round"/>
<path d="M 1147.3 388.0 Q 1223.3 388.1 1300.2 387.3 M 1299.7 387.6 Q 1299.2 437.7 1298.9 491.0 M 1298.7 491.7 Q 1223.7 490.4 1147.1 492.6 M 1147.5 492.5 Q 1147.2 439.6 1146.6 387.7" stroke="#1971c2" stroke-width="1.54" opacity="0.55" fill="none" stroke-linecap="round"/>
<text x="1223" y="435" font-family="Chalkboard SE, Comic Sans MS, sans-serif" font-size="19" font-weight="700" fill="#172033" text-anchor="middle">1g.24gb</text>
<text x="1223" y="465" font-family="Chalkboard SE, Comic Sans MS, sans-serif" font-size="16" font-weight="500" fill="#5c677d" text-anchor="middle">own SMs</text>
<path d="M 1216.3 492.4 Q 1269.7 440.9 1320.6 387.5 M 1226.9 492.6 Q 1279.7 441.0 1332.5 387.2 M 1237.1 492.9 Q 1290.7 440.7 1342.9 386.7 M 1249.7 491.4 Q 1302.8 440.7 1353.5 386.6 M 1260.1 492.8 Q 1313.0 439.5 1365.3 387.6 M 1270.6 492.8 Q 1323.7 439.5 1375.8 386.5 M 1281.9 492.2 Q 1333.6 440.1 1387.4 387.7 M 1293.2 491.7 Q 1344.2 440.7 1398.0 386.2 M 1304.1 492.6 Q 1356.6 439.4 1409.7 386.8 M 1315.4 492.6 Q 1366.6 438.7 1420.4 387.6 M 1326.0 492.2 Q 1377.5 439.0 1430.5 386.9 M 1337.3 492.5 Q 1389.1 439.3 1441.4 386.8 M 1348.4 491.8 Q 1399.7 440.3 1453.9 386.9 M 1359.1 491.0 Q 1410.8 438.1 1463.3 386.9 M 1369.4 491.5 Q 1421.0 438.7 1474.6 386.6 M 1380.8 491.8 Q 1433.2 439.6 1486.2 386.8 M 1391.3 492.4 Q 1444.7 440.5 1496.3 386.4 M 1402.7 492.4 Q 1454.6 438.4 1508.3 387.0 M 1414.4 492.2 Q 1465.6 439.5 1519.8 386.4 M 1425.8 492.9 Q 1478.8 438.5 1530.6 386.0 M 1435.3 492.3 Q 1487.1 438.4 1540.5 386.1 M 1446.8 491.9 Q 1499.9 440.0 1552.8 387.7 M 1458.3 492.6 Q 1509.1 440.6 1563.4 386.4 M 1469.3 492.2 Q 1522.1 440.8 1574.1 387.5" stroke="#a5d8ff" stroke-width="2.5" opacity="0.58" fill="none" clip-path="url(#hami-clip-9)" stroke-linecap="round"/>
<path d="M 1320.2 388.5 Q 1400.0 388.4 1472.8 385.9 M 1471.2 388.0 Q 1475.6 436.8 1471.0 492.0 M 1475.0 492.0 Q 1396.9 494.2 1321.9 491.6 M 1320.8 490.6 Q 1321.8 438.8 1322.7 387.1" stroke="#1971c2" stroke-width="2.8" opacity="1" fill="none" stroke-linecap="round"/>
<path d="M 1321.4 388.0 Q 1397.6 385.9 1473.3 388.0 M 1472.6 386.1 Q 1472.0 438.6 1472.4 493.1 M 1472.1 493.2 Q 1398.3 490.7 1320.0 492.4 M 1320.1 492.4 Q 1321.3 440.5 1321.0 388.0" stroke="#1971c2" stroke-width="1.54" opacity="0.55" fill="none" stroke-linecap="round"/>
<text x="1397" y="435" font-family="Chalkboard SE, Comic Sans MS, sans-serif" font-size="19" font-weight="700" fill="#172033" text-anchor="middle">1g.24gb</text>
<text x="1397" y="465" font-family="Chalkboard SE, Comic Sans MS, sans-serif" font-size="16" font-weight="500" fill="#5c677d" text-anchor="middle">own SMs</text>
<text x="1310" y="520" font-family="Chalkboard SE, Comic Sans MS, sans-serif" font-size="19" font-weight="500" fill="#172033" text-anchor="middle">walls are built into the GPU</text>
<text x="1310" y="630" font-family="Chalkboard SE, Comic Sans MS, sans-serif" font-size="20" font-weight="700" fill="#1971c2" text-anchor="middle">fixed profiles on supported GPUs</text>
<text x="1310" y="659" font-family="Chalkboard SE, Comic Sans MS, sans-serif" font-size="20" font-weight="700" fill="#1971c2" text-anchor="middle">strong memory + compute isolation</text>
<text x="800" y="750" font-family="Chalkboard SE, Comic Sans MS, sans-serif" font-size="23" font-weight="500" fill="#5c677d" text-anchor="middle">Choose flexibility, simplicity, or the strongest boundary based on the workload, not the buzzword.</text>
</svg>