<svg xmlns="http://www.w3.org/2000/svg" width="1600" height="920" viewBox="0 0 1600 920">
<defs><clipPath id="hami-clip-0"><rect x="65" y="170" width="245" height="205" rx="7"/></clipPath><clipPath id="hami-clip-1"><rect x="375" y="170" width="245" height="205" rx="7"/></clipPath><clipPath id="hami-clip-2"><rect x="685" y="170" width="245" height="205" rx="7"/></clipPath><clipPath id="hami-clip-3"><rect x="995" y="170" width="245" height="205" rx="7"/></clipPath><clipPath id="hami-clip-4"><rect x="995" y="510" width="245" height="205" rx="7"/></clipPath><clipPath id="hami-clip-5"><rect x="685" y="510" width="245" height="205" rx="7"/></clipPath><clipPath id="hami-clip-6"><rect x="375" y="510" width="245" height="205" rx="7"/></clipPath><clipPath id="hami-clip-7"><rect x="65" y="510" width="245" height="205" rx="7"/></clipPath><clipPath id="hami-clip-8"><rect x="1285" y="178" width="255" height="190" rx="7"/></clipPath><clipPath id="hami-clip-9"><rect x="1285" y="520" width="255" height="190" rx="7"/></clipPath></defs>
<rect width="1600" height="920" fill="#ffffff"/>
<text x="800" y="62" font-family="Chalkboard SE, Comic Sans MS, sans-serif" font-size="42" font-weight="800" fill="#172033" text-anchor="middle">What happens to one HAMi GPU request?</text>
<text x="800" y="100" font-family="Chalkboard SE, Comic Sans MS, sans-serif" font-size="22" font-weight="500" fill="#5c677d" text-anchor="middle">placement first · injection second · enforcement while the process runs</text>
<path d="M -139.3 374.5 Q -38.7 273.1 65.2 169.5 M -129.9 374.0 Q -25.9 271.5 75.5 170.3 M -117.8 374.2 Q -14.6 273.6 87.8 170.9 M -106.3 375.9 Q -3.2 271.3 97.5 169.0 M -95.7 376.0 Q 7.4 272.0 108.3 170.1 M -84.6 374.1 Q 18.5 273.4 119.1 170.6 M -74.1 374.6 Q 28.9 271.8 130.9 170.2 M -62.3 374.0 Q 39.7 273.4 141.8 171.0 M -51.7 374.6 Q 49.8 271.9 152.6 170.3 M -40.6 375.6 Q 60.6 271.0 165.0 170.6 M -29.9 374.1 Q 72.6 271.4 175.0 170.4 M -19.4 374.9 Q 85.0 271.3 187.0 170.0 M -7.3 375.2 Q 93.8 271.1 196.2 169.7 M 3.0 375.8 Q 104.9 271.1 207.4 170.5 M 14.5 374.3 Q 116.2 271.9 219.0 170.2 M 25.3 374.2 Q 127.5 273.1 230.0 170.7 M 36.7 374.5 Q 137.1 272.5 241.8 170.7 M 47.6 375.0 Q 150.4 271.5 252.9 170.5 M 57.3 375.3 Q 161.2 271.4 262.8 169.7 M 69.2 374.6 Q 171.2 273.7 273.1 169.0 M 79.8 375.8 Q 183.9 273.3 285.3 170.9 M 91.8 375.3 Q 193.5 272.2 296.2 170.2 M 102.2 375.5 Q 205.0 271.1 307.2 169.7 M 113.9 374.1 Q 214.9 272.7 318.3 169.1 M 123.9 375.7 Q 227.2 271.3 328.2 170.9 M 135.0 375.8 Q 238.2 273.0 339.9 169.8 M 146.7 375.3 Q 247.7 272.6 351.2 169.7 M 156.0 374.1 Q 260.9 273.6 362.4 169.1 M 167.8 375.3 Q 270.7 273.2 373.4 169.8 M 178.7 374.6 Q 280.4 272.1 384.3 170.3 M 190.8 375.8 Q 291.1 272.6 395.2 170.1 M 200.2 374.6 Q 303.3 272.2 406.9 170.9 M 211.5 375.9 Q 313.5 272.8 417.1 170.9 M 222.1 375.7 Q 327.0 271.1 427.4 170.9 M 234.3 374.4 Q 335.9 271.8 439.1 169.9 M 245.1 375.7 Q 346.7 271.5 450.9 169.3 M 255.8 375.3 Q 359.3 272.5 460.0 169.8 M 266.8 374.1 Q 368.7 273.9 471.6 170.1 M 277.1 375.4 Q 379.0 272.5 483.7 170.8 M 288.3 374.9 Q 390.5 273.1 493.7 170.5 M 299.9 374.9 Q 403.6 272.4 505.9 169.9" stroke="#a5d8ff" stroke-width="2.5" opacity="0.58" fill="none" clip-path="url(#hami-clip-0)" stroke-linecap="round"/>
<path d="M 64.0 168.5 Q 184.9 172.3 310.6 170.0 M 310.7 171.7 Q 310.9 272.1 309.9 374.2 M 310.9 373.3 Q 186.1 372.3 66.8 374.2 M 64.7 374.9 Q 66.0 272.5 66.9 169.2" stroke="#1971c2" stroke-width="2.4" opacity="1" fill="none" stroke-linecap="round"/>
<path d="M 65.9 170.4 Q 189.1 170.7 309.7 170.5 M 309.3 170.8 Q 309.8 272.1 310.8 375.0 M 309.3 373.9 Q 187.0 376.6 64.4 375.5 M 65.1 376.1 Q 65.0 271.6 65.4 170.6" stroke="#1971c2" stroke-width="1.32" opacity="0.55" fill="none" stroke-linecap="round"/>
<text x="187" y="212" font-family="Chalkboard SE, Comic Sans MS, sans-serif" font-size="23" font-weight="800" fill="#1971c2" text-anchor="middle">1. Pod spec</text>
<text x="187" y="258" font-family="Chalkboard SE, Comic Sans MS, sans-serif" font-size="18" font-weight="500" fill="#172033" text-anchor="middle">gpu: 1</text>
<text x="187" y="282.3" font-family="Chalkboard SE, Comic Sans MS, sans-serif" font-size="18" font-weight="500" fill="#172033" text-anchor="middle">gpumem: 8000</text>
<text x="187" y="306.6" font-family="Chalkboard SE, Comic Sans MS, sans-serif" font-size="18" font-weight="500" fill="#172033" text-anchor="middle">gpucores: 10</text>
<path d="M 317.7 271.9 Q 340.5 269.4 364.1 271.7" stroke="#172033" stroke-width="2.6" fill="none" stroke-linecap="round"/>
<path d="M 364.2 270.7 Q 361.8 278.1 352.4 279.4" stroke="#172033" stroke-width="2.6" fill="none" stroke-linecap="round"/>
<path d="M 363.3 272.7 Q 360.4 269.9 351.7 263.1" stroke="#172033" stroke-width="2.6" fill="none" stroke-linecap="round"/>
<path d="M 169.3 375.5 Q 272.3 273.3 375.4 170.0 M 180.4 375.4 Q 283.4 272.0 386.8 169.7 M 192.0 374.7 Q 294.3 272.0 397.1 170.1 M 202.9 375.5 Q 304.4 271.9 408.2 170.9 M 213.6 374.7 Q 317.9 271.5 419.0 169.1 M 225.9 375.6 Q 326.8 272.1 429.2 170.2 M 235.6 374.1 Q 338.3 273.8 440.3 170.3 M 246.0 374.4 Q 349.4 273.9 452.2 169.4 M 257.9 374.9 Q 361.9 272.6 462.4 170.0 M 270.0 374.9 Q 372.5 272.0 474.8 170.8 M 279.5 375.5 Q 382.0 272.7 484.2 169.5 M 291.7 375.2 Q 393.0 271.3 495.9 170.9 M 302.3 374.6 Q 403.9 271.8 507.7 169.6 M 313.5 375.6 Q 416.9 272.5 518.9 170.8 M 323.2 374.3 Q 425.5 273.4 528.8 169.0 M 334.2 374.6 Q 436.3 271.5 539.9 170.3 M 346.7 375.9 Q 449.4 273.2 550.7 169.4 M 356.7 374.6 Q 460.7 272.2 561.2 170.7 M 368.2 375.1 Q 471.4 273.6 573.1 170.1 M 378.5 375.7 Q 480.9 271.4 583.2 169.6 M 390.9 374.4 Q 493.6 273.9 595.0 169.6 M 401.6 374.5 Q 504.9 271.1 606.7 169.6 M 412.3 374.1 Q 514.4 273.4 616.7 169.7 M 422.9 375.0 Q 524.4 272.4 627.3 169.3 M 433.8 375.3 Q 535.9 272.8 638.4 170.0 M 444.0 374.9 Q 546.3 273.7 650.4 169.4 M 455.0 375.6 Q 557.4 271.4 660.9 169.2 M 467.4 375.0 Q 570.5 271.2 672.3 170.5 M 478.4 375.1 Q 580.5 271.7 682.1 170.9 M 489.4 374.2 Q 592.7 273.4 693.9 170.0 M 499.3 374.2 Q 603.6 272.9 705.4 169.5 M 511.8 374.4 Q 613.6 271.3 715.4 169.5 M 521.2 375.6 Q 625.8 273.3 726.2 169.8 M 533.4 375.6 Q 635.7 272.3 737.2 169.9 M 543.5 375.2 Q 645.2 271.2 749.1 170.0 M 555.2 374.2 Q 657.4 273.9 759.9 170.0 M 565.9 374.6 Q 668.0 273.0 770.5 170.2 M 576.4 374.4 Q 679.8 271.6 781.1 169.6 M 588.1 374.4 Q 690.5 272.8 793.8 169.5 M 598.0 374.7 Q 702.0 272.7 804.7 169.1 M 610.9 374.3 Q 712.7 271.4 815.3 170.1" stroke="#eebefa" stroke-width="2.5" opacity="0.58" fill="none" clip-path="url(#hami-clip-1)" stroke-linecap="round"/>
<path d="M 373.6 171.2 Q 498.5 169.0 620.0 169.6 M 618.3 168.9 Q 617.4 272.7 618.3 376.1 M 620.4 374.2 Q 500.2 376.6 374.0 375.6 M 373.9 374.8 Q 377.1 273.3 374.9 168.0" stroke="#862e9c" stroke-width="2.4" opacity="1" fill="none" stroke-linecap="round"/>
<path d="M 374.4 170.5 Q 498.5 169.9 619.0 170.5 M 618.9 169.4 Q 618.2 272.0 619.1 374.8 M 619.8 375.3 Q 496.2 375.6 373.8 374.2 M 375.4 375.4 Q 374.3 273.6 373.9 170.3" stroke="#862e9c" stroke-width="1.32" opacity="0.55" fill="none" stroke-linecap="round"/>
<text x="497" y="212" font-family="Chalkboard SE, Comic Sans MS, sans-serif" font-size="23" font-weight="800" fill="#862e9c" text-anchor="middle">2. Webhook</text>
<text x="497" y="258" font-family="Chalkboard SE, Comic Sans MS, sans-serif" font-size="18" font-weight="500" fill="#172033" text-anchor="middle">recognizes HAMi</text>
<text x="497" y="282.3" font-family="Chalkboard SE, Comic Sans MS, sans-serif" font-size="18" font-weight="500" fill="#172033" text-anchor="middle">resources and sets</text>
<text x="497" y="306.6" font-family="Chalkboard SE, Comic Sans MS, sans-serif" font-size="18" font-weight="500" fill="#172033" text-anchor="middle">schedulerName</text>
<path d="M 625.4 271.7 Q 649.7 269.9 675.1 271.5" stroke="#172033" stroke-width="2.6" fill="none" stroke-linecap="round"/>
<path d="M 675.6 270.3 Q 671.5 274.0 661.6 279.3" stroke="#172033" stroke-width="2.6" fill="none" stroke-linecap="round"/>
<path d="M 674.3 271.4 Q 667.4 268.6 662.8 263.5" stroke="#172033" stroke-width="2.6" fill="none" stroke-linecap="round"/>
<path d="M 480.1 375.3 Q 582.9 273.0 685.7 170.4 M 490.9 375.9 Q 593.5 272.9 696.6 170.9 M 501.8 375.6 Q 605.5 272.6 707.0 169.0 M 512.4 375.0 Q 616.1 271.9 717.8 169.3 M 523.1 374.3 Q 627.9 273.0 729.6 170.9 M 535.2 374.3 Q 637.4 272.0 740.6 171.0 M 545.1 375.1 Q 648.8 273.5 751.7 169.4 M 556.4 375.4 Q 660.0 271.0 761.0 170.3 M 567.5 374.5 Q 669.5 272.7 773.1 169.5 M 579.0 374.5 Q 682.3 271.9 784.4 170.2 M 590.9 375.5 Q 692.0 273.9 795.3 169.4 M 601.6 375.7 Q 704.3 271.2 805.8 169.1 M 612.9 375.8 Q 714.4 271.9 816.1 170.3 M 623.8 374.9 Q 724.2 273.2 828.5 169.8 M 633.1 375.6 Q 735.5 273.3 838.5 170.7 M 644.2 375.3 Q 746.8 273.6 849.3 169.4 M 655.4 374.6 Q 759.0 272.6 861.7 169.0 M 667.3 375.6 Q 769.9 274.0 872.9 170.6 M 677.3 375.6 Q 779.8 273.3 883.1 170.2 M 688.0 374.5 Q 792.9 273.0 893.5 170.7 M 699.5 374.1 Q 802.3 271.3 904.6 170.9 M 710.8 375.8 Q 812.5 274.0 916.4 169.8 M 721.5 374.5 Q 824.1 273.5 927.3 170.4 M 732.5 376.0 Q 834.3 271.3 937.2 169.4 M 744.6 374.5 Q 846.0 273.6 948.7 169.5 M 756.0 375.5 Q 856.7 272.7 961.0 169.9 M 765.5 374.9 Q 867.1 273.9 970.9 169.6 M 776.3 375.7 Q 879.5 271.3 982.5 169.1 M 788.1 374.1 Q 889.8 273.1 992.3 169.4 M 799.0 375.8 Q 901.6 272.5 1004.0 169.1 M 810.5 374.6 Q 911.3 271.0 1015.1 169.2 M 820.5 375.8 Q 924.5 272.8 1026.9 170.4 M 831.4 375.5 Q 934.7 272.0 1037.2 170.9 M 842.3 374.9 Q 945.3 271.6 1048.2 171.0 M 854.2 374.8 Q 957.2 273.9 1058.3 170.3 M 864.9 375.6 Q 966.8 272.5 1069.9 170.8 M 876.5 374.0 Q 978.7 273.9 1080.4 170.0 M 887.9 374.7 Q 988.9 273.3 1091.5 170.2 M 898.8 375.5 Q 1000.0 273.6 1103.8 170.9 M 908.2 374.4 Q 1010.9 272.3 1114.8 170.4 M 919.5 375.1 Q 1023.1 273.5 1125.5 170.1" stroke="#ffd8a8" stroke-width="2.5" opacity="0.58" fill="none" clip-path="url(#hami-clip-2)" stroke-linecap="round"/>
<path d="M 686.7 169.0 Q 807.8 168.2 931.1 169.7 M 929.3 168.4 Q 929.1 271.5 929.4 374.4 M 930.8 376.6 Q 808.0 375.2 685.0 375.8 M 683.1 375.8 Q 685.8 272.2 683.2 169.9" stroke="#d9480f" stroke-width="2.4" opacity="1" fill="none" stroke-linecap="round"/>
<path d="M 684.7 168.9 Q 807.1 171.1 929.3 169.4 M 930.7 171.1 Q 929.3 272.7 929.6 375.1 M 931.0 374.0 Q 806.8 375.6 684.5 375.7 M 685.4 375.0 Q 685.7 273.5 683.9 169.5" stroke="#d9480f" stroke-width="1.32" opacity="0.55" fill="none" stroke-linecap="round"/>
<text x="807" y="212" font-family="Chalkboard SE, Comic Sans MS, sans-serif" font-size="23" font-weight="800" fill="#d9480f" text-anchor="middle">3. Scheduler extender</text>
<text x="807" y="258" font-family="Chalkboard SE, Comic Sans MS, sans-serif" font-size="18" font-weight="500" fill="#172033" text-anchor="middle">Filter: can it fit?</text>
<text x="807" y="282.3" font-family="Chalkboard SE, Comic Sans MS, sans-serif" font-size="18" font-weight="500" fill="#172033" text-anchor="middle">Score: which GPU?</text>
<text x="807" y="306.6" font-family="Chalkboard SE, Comic Sans MS, sans-serif" font-size="18" font-weight="500" fill="#172033" text-anchor="middle">Bind: write UUID</text>
<path d="M 936.3 273.0 Q 963.3 269.3 986.2 272.8" stroke="#172033" stroke-width="2.6" fill="none" stroke-linecap="round"/>
<path d="M 983.8 270.7 Q 980.6 277.3 974.9 281.2" stroke="#172033" stroke-width="2.6" fill="none" stroke-linecap="round"/>
<path d="M 984.1 273.3 Q 980.8 268.0 972.4 262.9" stroke="#172033" stroke-width="2.6" fill="none" stroke-linecap="round"/>
<path d="M 789.6 375.5 Q 892.7 272.0 995.4 169.2 M 801.2 375.2 Q 903.5 271.4 1005.5 170.5 M 811.4 374.6 Q 915.5 271.4 1017.3 169.5 M 822.0 374.7 Q 926.0 272.0 1027.0 170.7 M 833.8 374.6 Q 937.8 272.8 1038.5 169.5 M 845.3 375.8 Q 947.0 271.9 1049.8 169.0 M 856.2 374.9 Q 959.3 271.0 1060.6 170.0 M 866.8 374.6 Q 970.0 273.5 1073.0 169.4 M 877.8 374.1 Q 980.6 271.3 1083.2 169.8 M 889.0 374.3 Q 992.0 271.4 1093.9 169.0 M 899.1 375.0 Q 1003.1 274.0 1105.7 171.0 M 911.4 375.2 Q 1013.1 273.0 1116.0 169.9 M 922.4 374.3 Q 1023.9 273.3 1128.0 170.7 M 932.9 375.2 Q 1035.8 272.0 1138.4 170.2 M 943.0 375.5 Q 1046.7 273.4 1148.4 169.2 M 954.9 375.6 Q 1056.7 274.0 1159.8 170.1 M 965.3 375.6 Q 1067.8 273.8 1170.7 169.7 M 977.8 374.9 Q 1079.9 272.2 1181.4 169.4 M 988.2 374.4 Q 1091.2 273.1 1193.9 170.4 M 998.4 376.0 Q 1102.0 271.1 1203.4 170.2 M 1009.8 374.5 Q 1113.6 273.4 1215.4 169.7 M 1020.9 375.7 Q 1123.7 273.5 1226.1 169.4 M 1032.0 375.1 Q 1133.4 273.7 1236.6 170.8 M 1042.0 375.8 Q 1145.0 273.1 1248.3 169.8 M 1054.0 375.0 Q 1157.2 273.8 1259.0 170.6 M 1064.1 375.2 Q 1167.6 271.8 1270.6 170.1 M 1075.2 374.3 Q 1180.0 273.4 1280.5 170.2 M 1086.6 375.3 Q 1188.8 271.5 1292.0 169.6 M 1097.8 375.8 Q 1201.0 271.1 1302.1 170.5 M 1109.4 374.5 Q 1212.9 272.2 1313.0 169.3 M 1119.9 374.6 Q 1223.1 272.9 1324.5 169.5 M 1131.8 374.6 Q 1232.8 272.5 1335.6 169.8 M 1141.3 375.9 Q 1244.0 271.6 1347.2 170.8 M 1153.2 375.3 Q 1255.1 273.5 1358.4 170.0 M 1164.7 374.4 Q 1267.4 272.9 1369.5 171.0 M 1175.1 374.2 Q 1277.9 271.7 1379.2 170.1 M 1186.3 375.9 Q 1289.5 273.2 1392.0 169.5 M 1197.2 374.1 Q 1299.9 272.1 1401.6 170.1 M 1208.8 375.5 Q 1311.7 272.7 1412.1 170.4 M 1218.4 374.6 Q 1322.7 271.4 1424.9 170.8 M 1230.1 375.2 Q 1332.1 271.1 1434.2 170.8" stroke="#b2f2bb" stroke-width="2.5" opacity="0.58" fill="none" clip-path="url(#hami-clip-3)" stroke-linecap="round"/>
<path d="M 994.5 169.1 Q 1117.1 167.4 1239.3 169.5 M 1238.1 170.8 Q 1240.4 274.5 1241.3 375.5 M 1240.7 373.7 Q 1119.9 374.1 993.7 374.2 M 996.4 377.0 Q 997.9 274.5 996.6 168.8" stroke="#087f5b" stroke-width="2.4" opacity="1" fill="none" stroke-linecap="round"/>
<path d="M 995.5 169.7 Q 1118.7 171.8 1239.6 170.9 M 1240.3 169.4 Q 1241.7 271.8 1240.6 375.8 M 1239.2 376.2 Q 1117.0 373.8 994.1 375.4 M 994.2 375.4 Q 994.0 272.4 995.9 170.2" stroke="#087f5b" stroke-width="1.32" opacity="0.55" fill="none" stroke-linecap="round"/>
<text x="1117" y="212" font-family="Chalkboard SE, Comic Sans MS, sans-serif" font-size="23" font-weight="800" fill="#087f5b" text-anchor="middle">4. Pod annotation</text>
<text x="1117" y="258" font-family="Chalkboard SE, Comic Sans MS, sans-serif" font-size="18" font-weight="500" fill="#172033" text-anchor="middle">GPU UUID</text>
<text x="1117" y="282.3" font-family="Chalkboard SE, Comic Sans MS, sans-serif" font-size="18" font-weight="500" fill="#172033" text-anchor="middle">8000 MiB</text>
<text x="1117" y="306.6" font-family="Chalkboard SE, Comic Sans MS, sans-serif" font-size="18" font-weight="500" fill="#172033" text-anchor="middle">10% compute</text>
<path d="M 1117.9 384.9 Q 1120.1 439.7 1116.8 491.1" stroke="#087f5b" stroke-width="2.6" fill="none" stroke-linecap="round"/>
<path d="M 1119.3 490.1 Q 1116.5 482.2 1110.1 478.3" stroke="#087f5b" stroke-width="2.6" fill="none" stroke-linecap="round"/>
<path d="M 1116.4 490.2 Q 1120.7 485.9 1125.5 477.9" stroke="#087f5b" stroke-width="2.6" fill="none" stroke-linecap="round"/>
<path d="M 789.6 716.0 Q 892.2 612.3 995.8 510.7 M 800.4 715.8 Q 902.8 611.6 1005.3 510.7 M 811.9 714.9 Q 915.4 613.6 1016.1 509.8 M 823.0 714.8 Q 924.0 611.4 1027.6 509.4 M 833.4 714.7 Q 937.9 612.1 1039.8 510.6 M 845.1 714.2 Q 946.8 613.2 1049.1 510.5 M 856.8 714.9 Q 957.1 612.4 1061.3 510.4 M 866.9 714.6 Q 970.1 611.5 1072.2 510.7 M 877.2 715.2 Q 981.9 612.0 1084.0 509.0 M 889.9 715.8 Q 992.9 613.1 1093.1 510.2 M 899.7 714.1 Q 1002.4 612.4 1105.3 510.8 M 910.3 714.2 Q 1012.3 612.1 1116.0 509.4 M 921.1 714.7 Q 1023.6 612.9 1126.6 510.2 M 933.0 714.1 Q 1034.4 613.5 1137.3 510.9 M 943.3 715.6 Q 1045.6 611.0 1149.0 509.8 M 955.2 714.7 Q 1057.6 611.8 1159.9 510.9 M 966.3 715.1 Q 1068.9 613.9 1171.3 510.2 M 977.2 715.7 Q 1080.2 611.3 1181.8 510.5 M 988.9 714.9 Q 1089.7 613.3 1192.9 510.6 M 998.0 715.8 Q 1100.2 612.5 1203.2 509.7 M 1010.5 714.9 Q 1113.5 612.7 1214.6 510.4 M 1022.0 714.6 Q 1122.8 613.4 1225.1 509.7 M 1031.8 714.8 Q 1133.0 612.7 1237.1 510.8 M 1043.4 714.7 Q 1146.0 613.9 1247.9 509.3 M 1054.0 714.4 Q 1157.2 613.9 1259.4 509.8 M 1065.0 714.9 Q 1166.5 612.1 1269.8 509.8 M 1076.9 715.7 Q 1178.2 611.7 1281.6 510.9 M 1087.6 714.3 Q 1189.1 613.1 1291.9 509.5 M 1098.3 714.9 Q 1200.0 612.3 1302.7 509.4 M 1108.5 714.9 Q 1212.3 613.9 1314.4 509.4 M 1119.6 714.1 Q 1221.8 612.0 1325.5 510.1 M 1131.6 714.6 Q 1232.7 614.0 1336.7 509.8 M 1142.1 714.1 Q 1244.1 611.2 1346.4 509.3 M 1153.7 715.5 Q 1255.4 611.9 1357.2 509.4 M 1164.1 714.1 Q 1266.1 612.6 1368.6 509.8 M 1174.2 714.1 Q 1276.3 611.7 1379.0 509.1 M 1185.5 715.6 Q 1288.0 612.6 1391.4 509.8 M 1196.4 714.0 Q 1299.4 612.0 1402.1 510.3 M 1207.8 715.7 Q 1310.5 611.9 1413.1 509.2 M 1219.1 715.0 Q 1322.8 612.6 1423.2 510.7 M 1229.5 715.0 Q 1333.2 611.3 1436.0 509.3" stroke="#b2f2bb" stroke-width="2.5" opacity="0.58" fill="none" clip-path="url(#hami-clip-4)" stroke-linecap="round"/>
<path d="M 993.1 509.4 Q 1115.9 511.1 1240.1 509.4 M 1240.6 508.3 Q 1239.7 613.3 1241.3 714.1 M 1240.6 715.7 Q 1119.8 716.1 996.1 715.7 M 995.2 714.4 Q 996.7 614.6 994.6 509.0" stroke="#087f5b" stroke-width="2.4" opacity="1" fill="none" stroke-linecap="round"/>
<path d="M 995.3 509.7 Q 1117.4 510.6 1240.5 510.9 M 1239.5 510.9 Q 1240.2 611.0 1240.5 716.2 M 1239.8 714.2 Q 1118.6 715.6 994.6 715.6 M 993.9 714.2 Q 995.3 613.6 995.1 510.5" stroke="#087f5b" stroke-width="1.32" opacity="0.55" fill="none" stroke-linecap="round"/>
<text x="1117" y="552" font-family="Chalkboard SE, Comic Sans MS, sans-serif" font-size="23" font-weight="800" fill="#087f5b" text-anchor="middle">5. Device plugin</text>
<text x="1117" y="598" font-family="Chalkboard SE, Comic Sans MS, sans-serif" font-size="18" font-weight="500" fill="#172033" text-anchor="middle">/dev/nvidia*</text>
<text x="1117" y="622.3" font-family="Chalkboard SE, Comic Sans MS, sans-serif" font-size="18" font-weight="500" fill="#172033" text-anchor="middle">libvgpu.so</text>
<text x="1117" y="646.6" font-family="Chalkboard SE, Comic Sans MS, sans-serif" font-size="18" font-weight="500" fill="#172033" text-anchor="middle">/etc/ld.so.preload</text>
<path d="M 984.7 612.8 Q 959.4 609.3 935.2 611.6" stroke="#172033" stroke-width="2.6" fill="none" stroke-linecap="round"/>
<path d="M 935.6 611.6 Q 941.3 608.8 950.5 603.2" stroke="#172033" stroke-width="2.6" fill="none" stroke-linecap="round"/>
<path d="M 935.6 612.5 Q 942.4 617.3 947.6 618.1" stroke="#172033" stroke-width="2.6" fill="none" stroke-linecap="round"/>
<path d="M 479.6 714.2 Q 583.8 612.6 684.4 510.8 M 491.9 715.9 Q 592.0 611.7 696.5 509.9 M 501.8 715.2 Q 604.3 612.0 707.3 510.7 M 513.0 714.1 Q 614.3 613.1 717.9 509.5 M 524.1 715.8 Q 627.2 613.4 729.6 509.3 M 534.7 714.7 Q 636.9 613.0 740.7 510.0 M 546.2 715.5 Q 648.9 613.4 752.0 509.6 M 557.4 714.9 Q 660.1 613.3 761.1 509.9 M 568.8 715.1 Q 669.0 613.7 773.4 510.3 M 578.2 715.0 Q 680.3 613.2 784.8 510.2 M 590.1 716.0 Q 693.1 612.2 796.0 509.7 M 600.6 715.7 Q 703.6 611.8 805.5 510.5 M 611.1 714.2 Q 716.0 613.4 816.3 509.1 M 623.3 714.6 Q 724.6 613.0 829.0 510.9 M 633.5 714.4 Q 735.2 614.0 838.5 509.6 M 645.5 714.4 Q 748.3 612.2 850.4 509.3 M 655.1 714.4 Q 758.9 612.7 861.4 509.7 M 666.3 714.4 Q 769.2 613.0 872.3 510.0 M 677.7 714.3 Q 779.0 611.8 882.4 509.5 M 689.3 715.1 Q 791.1 613.2 894.9 510.9 M 700.2 714.9 Q 803.6 613.3 905.7 509.3 M 711.2 714.4 Q 814.0 612.1 915.6 510.3 M 722.6 714.1 Q 823.9 612.5 926.6 509.9 M 733.3 715.4 Q 836.0 613.2 938.1 509.9 M 744.0 715.4 Q 847.7 613.5 948.2 510.1 M 754.8 714.8 Q 857.1 611.4 959.9 510.1 M 766.2 714.1 Q 868.0 611.3 971.4 510.1 M 777.9 715.1 Q 879.3 612.3 982.8 511.0 M 787.8 715.1 Q 891.6 612.6 993.3 509.5 M 799.6 715.7 Q 901.3 613.2 1004.1 510.3 M 809.4 715.6 Q 912.4 611.6 1015.9 510.8 M 822.0 714.9 Q 922.9 612.9 1025.4 510.0 M 832.6 714.4 Q 933.5 611.2 1036.2 510.1 M 843.1 714.7 Q 944.9 613.4 1048.2 509.3 M 853.6 715.4 Q 957.7 613.9 1059.3 510.2 M 865.1 714.5 Q 966.0 611.7 1070.1 510.5 M 876.1 715.7 Q 979.6 612.0 1080.8 510.9 M 886.4 715.7 Q 989.4 611.8 1091.8 509.4 M 898.8 715.2 Q 1000.6 612.8 1102.8 509.2 M 908.7 714.4 Q 1012.5 612.7 1114.5 509.9 M 920.7 714.2 Q 1022.8 612.4 1125.2 510.0" stroke="#a5d8ff" stroke-width="2.5" opacity="0.58" fill="none" clip-path="url(#hami-clip-5)" stroke-linecap="round"/>
<path d="M 683.8 510.5 Q 806.6 512.9 930.2 509.2 M 928.5 509.6 Q 931.6 615.2 928.2 716.9 M 932.0 713.3 Q 805.0 715.7 685.4 715.7 M 684.0 713.8 Q 685.7 610.4 685.4 511.0" stroke="#1971c2" stroke-width="2.4" opacity="1" fill="none" stroke-linecap="round"/>
<path d="M 685.9 510.1 Q 807.5 509.4 930.3 510.0 M 930.9 510.7 Q 929.3 611.0 929.9 715.1 M 931.1 714.8 Q 808.6 713.2 685.8 714.5 M 684.0 716.0 Q 685.7 613.1 685.8 510.0" stroke="#1971c2" stroke-width="1.32" opacity="0.55" fill="none" stroke-linecap="round"/>
<text x="807" y="552" font-family="Chalkboard SE, Comic Sans MS, sans-serif" font-size="23" font-weight="800" fill="#1971c2" text-anchor="middle">6. Workload container</text>
<text x="807" y="598" font-family="Chalkboard SE, Comic Sans MS, sans-serif" font-size="18" font-weight="500" fill="#172033" text-anchor="middle">normal PyTorch or</text>
<text x="807" y="622.3" font-family="Chalkboard SE, Comic Sans MS, sans-serif" font-size="18" font-weight="500" fill="#172033" text-anchor="middle">CUDA application</text>
<text x="807" y="646.6" font-family="Chalkboard SE, Comic Sans MS, sans-serif" font-size="18" font-weight="500" fill="#172033" text-anchor="middle">no code change</text>
<path d="M 674.9 613.6 Q 650.3 611.5 628.8 611.0" stroke="#172033" stroke-width="2.6" fill="none" stroke-linecap="round"/>
<path d="M 627.9 613.1 Q 634.6 607.6 639.4 605.2" stroke="#172033" stroke-width="2.6" fill="none" stroke-linecap="round"/>
<path d="M 625.8 611.8 Q 633.1 616.0 639.5 620.5" stroke="#172033" stroke-width="2.6" fill="none" stroke-linecap="round"/>
<path d="M 169.3 714.1 Q 271.2 611.4 374.6 509.2 M 180.3 714.2 Q 284.8 611.3 385.6 510.1 M 192.6 715.4 Q 295.5 613.2 397.4 510.5 M 202.9 714.5 Q 306.8 612.4 407.4 510.4 M 214.7 714.1 Q 316.9 612.5 419.7 510.9 M 224.8 714.7 Q 327.8 613.8 429.4 510.6 M 236.1 714.2 Q 339.2 613.0 441.2 510.1 M 247.8 715.9 Q 349.5 611.1 451.8 509.2 M 257.8 715.7 Q 361.8 612.4 463.0 510.6 M 269.8 715.1 Q 372.5 613.0 474.2 509.0 M 280.4 714.6 Q 383.5 612.1 485.1 509.8 M 291.0 714.1 Q 394.9 611.7 495.9 509.4 M 301.0 714.0 Q 403.6 612.3 506.4 510.9 M 313.9 714.3 Q 414.1 612.5 519.0 509.7 M 323.3 714.1 Q 426.1 611.2 528.7 510.1 M 335.5 715.4 Q 438.0 613.9 540.7 510.6 M 345.7 714.9 Q 449.1 613.3 550.9 510.3 M 356.4 714.9 Q 459.5 612.2 562.8 509.6 M 367.6 714.5 Q 471.8 611.2 573.6 509.6 M 380.0 715.0 Q 480.2 612.8 585.0 510.0 M 390.7 714.9 Q 491.0 613.7 594.8 511.0 M 401.7 714.5 Q 502.9 611.9 606.5 510.7 M 412.9 716.0 Q 514.0 613.2 616.3 510.3 M 423.0 715.6 Q 526.4 613.9 628.4 509.5 M 434.4 714.5 Q 535.4 613.5 639.9 509.4 M 444.6 715.7 Q 547.0 613.4 650.9 509.6 M 456.5 714.8 Q 559.7 613.2 660.0 510.6 M 466.0 715.8 Q 569.0 613.3 672.7 510.9 M 478.0 714.3 Q 579.1 612.1 683.9 510.8 M 489.7 714.1 Q 591.9 611.5 694.6 509.8 M 499.0 714.3 Q 603.2 612.0 704.4 509.7 M 511.3 714.8 Q 614.9 613.7 716.6 509.5 M 521.7 714.1 Q 624.4 613.5 726.7 509.7 M 533.6 715.1 Q 634.9 613.6 738.5 509.5 M 543.8 716.0 Q 647.7 613.2 748.2 510.5 M 555.2 715.5 Q 657.3 611.5 759.5 509.5 M 566.7 714.9 Q 668.9 612.6 771.2 509.1 M 576.1 715.7 Q 678.0 611.3 781.2 510.8 M 587.3 715.0 Q 689.2 612.8 792.1 510.7 M 599.0 715.0 Q 700.0 611.6 803.2 510.1 M 610.7 714.6 Q 712.2 612.0 815.3 510.0" stroke="#ffc9c9" stroke-width="2.5" opacity="0.58" fill="none" clip-path="url(#hami-clip-6)" stroke-linecap="round"/>
<path d="M 374.9 511.7 Q 495.7 512.4 618.1 510.2 M 618.8 511.0 Q 619.9 612.6 622.0 714.2 M 620.8 716.8 Q 498.3 716.8 376.8 716.3 M 373.5 715.7 Q 372.5 615.5 373.9 511.0" stroke="#c92a2a" stroke-width="2.4" opacity="1" fill="none" stroke-linecap="round"/>
<path d="M 375.5 509.1 Q 496.1 511.3 621.1 510.2 M 619.1 510.2 Q 618.9 613.1 619.6 715.7 M 621.1 716.0 Q 498.0 716.5 374.4 714.9 M 374.4 715.5 Q 373.9 614.0 375.8 509.2" stroke="#c92a2a" stroke-width="1.32" opacity="0.55" fill="none" stroke-linecap="round"/>
<text x="497" y="552" font-family="Chalkboard SE, Comic Sans MS, sans-serif" font-size="23" font-weight="800" fill="#c92a2a" text-anchor="middle">7. HAMi-Core</text>
<text x="497" y="598" font-family="Chalkboard SE, Comic Sans MS, sans-serif" font-size="18" font-weight="500" fill="#172033" text-anchor="middle">tracks this container</text>
<text x="497" y="622.3" font-family="Chalkboard SE, Comic Sans MS, sans-serif" font-size="18" font-weight="500" fill="#172033" text-anchor="middle">returns OOM past</text>
<text x="497" y="646.6" font-family="Chalkboard SE, Comic Sans MS, sans-serif" font-size="18" font-weight="500" fill="#172033" text-anchor="middle">its memory grant</text>
<path d="M 365.9 613.0 Q 338.6 609.8 317.5 613.7" stroke="#172033" stroke-width="2.6" fill="none" stroke-linecap="round"/>
<path d="M 317.7 613.2 Q 322.3 606.5 328.7 604.5" stroke="#172033" stroke-width="2.6" fill="none" stroke-linecap="round"/>
<path d="M 315.2 612.2 Q 323.3 617.0 328.7 619.4" stroke="#172033" stroke-width="2.6" fill="none" stroke-linecap="round"/>
<path d="M -140.0 714.0 Q -37.2 611.9 64.1 509.5 M -128.7 714.2 Q -26.7 611.3 75.2 509.0 M -117.9 714.4 Q -16.5 613.3 87.4 509.3 M -107.8 715.3 Q -4.9 611.6 97.5 510.0 M -95.6 714.8 Q 7.8 611.8 109.1 510.8 M -85.5 714.4 Q 17.0 611.3 120.5 509.6 M -73.3 715.7 Q 29.9 611.1 131.7 510.8 M -62.5 715.5 Q 38.3 611.9 142.3 509.7 M -52.8 715.3 Q 49.7 613.3 152.8 509.4 M -41.6 714.7 Q 60.6 611.2 163.9 510.6 M -30.0 715.5 Q 73.2 611.8 175.2 510.0 M -18.3 715.9 Q 82.9 611.3 185.5 509.8 M -8.2 714.5 Q 94.1 612.7 197.3 509.7 M 2.5 715.2 Q 104.2 612.2 208.1 510.7 M 13.1 715.2 Q 115.7 612.5 218.6 509.6 M 26.0 715.0 Q 127.0 611.4 229.4 510.1 M 37.0 715.8 Q 137.7 611.6 241.6 510.3 M 46.2 714.9 Q 148.8 613.9 251.5 509.7 M 57.2 714.3 Q 161.9 612.2 264.0 510.4 M 68.6 715.0 Q 172.5 613.9 274.5 510.3 M 80.9 714.4 Q 181.7 611.3 284.1 509.6 M 90.4 714.0 Q 193.8 613.3 296.7 510.8 M 102.1 715.2 Q 204.9 611.9 307.5 509.4 M 112.1 714.5 Q 215.1 612.8 318.9 509.6 M 125.0 714.8 Q 225.3 611.4 328.9 509.0 M 135.3 715.1 Q 236.1 612.7 339.8 510.1 M 145.4 714.5 Q 248.9 612.0 351.1 510.5 M 157.5 715.6 Q 258.3 612.2 361.0 509.4 M 167.5 715.1 Q 270.2 612.0 372.7 510.6 M 179.8 714.7 Q 280.4 611.4 383.2 509.6 M 191.0 714.6 Q 291.6 613.7 395.8 510.1 M 200.2 715.1 Q 303.1 614.0 405.5 510.7 M 211.4 714.4 Q 314.6 613.4 417.5 509.2 M 222.1 715.4 Q 326.9 611.7 428.4 510.9 M 234.6 714.7 Q 335.4 611.9 438.8 509.7 M 245.2 714.9 Q 348.6 611.6 451.0 509.7 M 256.9 714.9 Q 358.7 613.0 461.7 510.1 M 267.1 714.3 Q 368.1 611.9 471.0 510.0 M 277.9 715.6 Q 380.0 611.2 482.9 509.8 M 288.5 715.1 Q 391.8 611.4 494.6 509.9 M 299.9 715.9 Q 403.5 611.4 504.9 509.5" stroke="#e9ecef" stroke-width="2.5" opacity="0.58" fill="none" clip-path="url(#hami-clip-7)" stroke-linecap="round"/>
<path d="M 66.5 510.2 Q 185.0 507.5 309.9 511.5 M 311.9 509.2 Q 312.7 610.2 310.7 713.7 M 311.0 715.6 Q 186.1 713.0 65.0 715.7 M 66.2 715.1 Q 64.8 611.5 64.3 509.1" stroke="#495057" stroke-width="2.4" opacity="1" fill="none" stroke-linecap="round"/>
<path d="M 64.7 509.0 Q 187.0 510.9 308.9 509.7 M 309.3 509.7 Q 309.7 613.1 310.5 714.5 M 310.8 714.0 Q 188.7 715.8 65.4 714.7 M 65.1 714.4 Q 64.2 611.6 65.6 509.4" stroke="#495057" stroke-width="1.32" opacity="0.55" fill="none" stroke-linecap="round"/>
<text x="187" y="552" font-family="Chalkboard SE, Comic Sans MS, sans-serif" font-size="23" font-weight="800" fill="#495057" text-anchor="middle">8. Physical GPU</text>
<text x="187" y="598" font-family="Chalkboard SE, Comic Sans MS, sans-serif" font-size="18" font-weight="500" fill="#172033" text-anchor="middle">accepted CUDA work</text>
<text x="187" y="622.3" font-family="Chalkboard SE, Comic Sans MS, sans-serif" font-size="18" font-weight="500" fill="#172033" text-anchor="middle">runs on the real</text>
<text x="187" y="646.6" font-family="Chalkboard SE, Comic Sans MS, sans-serif" font-size="18" font-weight="500" fill="#172033" text-anchor="middle">RTX PRO 6000</text>
<path d="M 1095.6 367.2 Q 1188.5 271.9 1284.6 177.9 M 1106.5 368.4 Q 1202.2 273.5 1296.4 179.0 M 1116.1 367.8 Q 1211.5 272.6 1307.9 177.3 M 1127.8 368.0 Q 1223.8 273.6 1317.5 177.7 M 1139.4 367.8 Q 1233.2 273.6 1329.6 178.5 M 1150.0 367.6 Q 1246.2 272.3 1339.4 178.3 M 1161.1 367.3 Q 1254.7 274.1 1351.0 177.8 M 1171.4 368.3 Q 1268.0 273.7 1361.2 177.8 M 1183.8 367.0 Q 1277.3 274.0 1373.1 178.2 M 1194.6 368.9 Q 1288.2 273.0 1384.6 179.0 M 1204.1 368.2 Q 1299.8 272.2 1394.6 177.7 M 1215.2 368.0 Q 1311.5 272.8 1405.7 177.8 M 1226.2 367.4 Q 1320.7 274.0 1417.8 178.7 M 1239.0 369.0 Q 1331.9 273.4 1428.6 178.0 M 1248.2 367.6 Q 1344.8 272.2 1439.1 178.5 M 1260.4 367.5 Q 1354.4 271.6 1449.5 177.8 M 1271.0 367.2 Q 1366.9 272.6 1460.7 177.2 M 1282.7 369.0 Q 1376.6 272.2 1472.3 178.4 M 1293.8 368.2 Q 1388.0 272.0 1483.7 177.5 M 1304.4 367.1 Q 1400.0 272.7 1493.5 178.6 M 1315.2 368.3 Q 1409.6 272.7 1505.0 178.0 M 1325.8 368.5 Q 1420.6 273.6 1515.9 177.6 M 1336.6 368.1 Q 1433.1 273.5 1526.7 177.4 M 1348.2 368.4 Q 1443.0 274.4 1537.7 178.7 M 1358.1 368.7 Q 1454.4 272.9 1548.3 178.1 M 1370.8 367.9 Q 1465.2 274.1 1560.9 177.3 M 1381.1 367.8 Q 1476.6 272.4 1571.9 178.6 M 1392.1 368.3 Q 1488.1 273.4 1582.6 177.2 M 1402.2 367.8 Q 1496.6 273.8 1593.5 178.3 M 1414.4 367.7 Q 1507.8 274.0 1603.6 178.5 M 1425.7 368.3 Q 1518.8 273.5 1615.8 177.7 M 1436.6 367.4 Q 1532.5 273.9 1625.7 177.2 M 1446.4 367.7 Q 1542.0 272.1 1636.2 177.2 M 1457.5 367.7 Q 1552.3 272.2 1648.5 178.5 M 1469.4 367.4 Q 1563.7 272.6 1659.5 177.1 M 1480.6 367.3 Q 1574.0 272.7 1670.9 177.2 M 1490.2 367.4 Q 1587.4 273.3 1681.9 177.5 M 1502.2 367.2 Q 1597.1 274.0 1691.1 177.7 M 1512.8 367.8 Q 1608.5 273.2 1703.4 178.2 M 1523.1 367.7 Q 1618.4 272.9 1714.5 178.7 M 1534.8 368.6 Q 1628.7 272.6 1725.3 178.7" stroke="#ffd8a8" stroke-width="2.5" opacity="0.58" fill="none" clip-path="url(#hami-clip-8)" stroke-linecap="round"/>
<path d="M 1285.0 178.9 Q 1414.7 177.4 1538.5 176.9 M 1542.0 176.6 Q 1541.6 270.3 1538.1 368.7 M 1540.4 369.1 Q 1411.9 365.2 1283.8 367.3 M 1286.5 366.4 Q 1282.3 273.9 1286.7 179.4" stroke="#d9480f" stroke-width="2.4" opacity="1" fill="none" stroke-linecap="round" stroke-dasharray="9 8"/>
<path d="M 1284.3 178.7 Q 1411.8 177.7 1538.9 177.4 M 1539.0 177.9 Q 1540.0 272.7 1540.6 368.3 M 1540.6 366.9 Q 1413.7 369.0 1284.3 367.4 M 1285.9 367.4 Q 1285.4 273.7 1284.1 178.5" stroke="#d9480f" stroke-width="1.32" opacity="0.55" fill="none" stroke-linecap="round" stroke-dasharray="9 8"/>
<text x="1412" y="219" font-family="Chalkboard SE, Comic Sans MS, sans-serif" font-size="22" font-weight="800" fill="#d9480f" text-anchor="middle">Scheduling boundary</text>
<text x="1412" y="260" font-family="Chalkboard SE, Comic Sans MS, sans-serif" font-size="18" font-weight="500" fill="#172033" text-anchor="middle">slot available?</text>
<text x="1412" y="286.1" font-family="Chalkboard SE, Comic Sans MS, sans-serif" font-size="18" font-weight="500" fill="#172033" text-anchor="middle">memory available?</text>
<text x="1412" y="312.2" font-family="Chalkboard SE, Comic Sans MS, sans-serif" font-size="18" font-weight="500" fill="#172033" text-anchor="middle">compute available?</text>
<path d="M 1281.2 275.6 Q 1107.2 274.0 935.2 274.9" stroke="#d9480f" stroke-width="2.6" fill="none" stroke-linecap="round" stroke-dasharray="8 8"/>
<path d="M 934.4 276.7 Q 938.6 272.3 946.9 268.1" stroke="#d9480f" stroke-width="2.6" fill="none" stroke-linecap="round"/>
<path d="M 934.9 276.7 Q 941.6 280.9 947.8 282.7" stroke="#d9480f" stroke-width="2.6" fill="none" stroke-linecap="round"/>
<path d="M 1095.8 710.4 Q 1189.5 614.6 1284.9 519.1 M 1106.9 710.3 Q 1202.4 615.9 1296.1 519.8 M 1116.2 709.2 Q 1213.0 615.0 1306.1 519.4 M 1128.8 709.1 Q 1224.4 613.7 1317.3 519.3 M 1138.5 710.8 Q 1235.1 616.5 1329.1 520.1 M 1149.7 710.7 Q 1244.9 613.5 1340.9 519.5 M 1160.5 710.4 Q 1256.6 615.8 1350.8 520.0 M 1171.1 709.7 Q 1267.3 615.8 1361.2 520.5 M 1183.1 710.3 Q 1278.0 614.0 1372.3 520.9 M 1194.5 709.0 Q 1290.4 613.6 1384.4 519.7 M 1205.1 710.7 Q 1300.2 615.8 1394.5 520.5 M 1215.6 710.3 Q 1311.8 615.0 1405.2 519.4 M 1227.3 710.7 Q 1322.0 615.6 1417.6 520.1 M 1239.0 709.4 Q 1333.5 614.2 1428.8 520.6 M 1248.3 710.5 Q 1343.9 614.1 1439.5 519.3 M 1260.3 710.6 Q 1355.4 613.7 1449.3 520.4 M 1271.8 710.2 Q 1365.3 616.4 1460.6 519.3 M 1281.1 709.3 Q 1376.4 614.5 1472.9 519.3 M 1292.6 709.3 Q 1386.8 615.1 1482.3 520.7 M 1303.0 710.1 Q 1399.3 616.1 1493.4 519.3 M 1314.4 709.2 Q 1410.7 615.7 1505.2 520.3 M 1326.8 710.3 Q 1421.5 615.7 1516.7 519.2 M 1336.0 709.1 Q 1432.0 614.2 1527.1 519.5 M 1347.1 709.7 Q 1442.7 613.7 1538.9 519.5 M 1358.2 710.7 Q 1452.8 615.3 1549.0 520.6 M 1369.3 710.3 Q 1464.7 615.4 1560.0 520.5 M 1381.7 709.8 Q 1475.5 615.0 1571.0 519.2 M 1391.3 710.6 Q 1486.2 615.7 1581.0 519.0 M 1403.2 709.6 Q 1496.7 616.2 1593.9 520.4 M 1413.4 709.1 Q 1509.7 614.9 1603.4 520.6 M 1425.1 710.7 Q 1520.0 614.5 1615.5 519.3 M 1435.6 709.5 Q 1530.7 615.8 1625.4 521.0 M 1447.7 709.1 Q 1542.2 613.5 1636.1 520.2 M 1458.2 709.4 Q 1553.9 613.8 1647.7 519.2 M 1468.6 709.0 Q 1564.0 615.2 1659.7 519.6 M 1480.9 709.2 Q 1574.7 615.4 1669.8 519.5 M 1491.2 709.3 Q 1585.0 614.6 1681.1 520.7 M 1501.2 710.2 Q 1597.2 615.7 1692.2 520.6 M 1512.2 710.8 Q 1608.2 616.0 1702.3 519.6 M 1523.9 710.6 Q 1620.1 615.7 1713.4 520.8 M 1534.2 710.2 Q 1630.1 616.3 1725.0 520.6" stroke="#ffc9c9" stroke-width="2.5" opacity="0.58" fill="none" clip-path="url(#hami-clip-9)" stroke-linecap="round"/>
<path d="M 1285.9 520.5 Q 1414.2 518.8 1539.4 518.3 M 1538.7 520.3 Q 1538.0 613.7 1538.7 709.7 M 1541.6 710.7 Q 1414.6 711.8 1284.7 711.3 M 1284.3 710.0 Q 1283.6 614.0 1284.6 518.0" stroke="#c92a2a" stroke-width="2.4" opacity="1" fill="none" stroke-linecap="round" stroke-dasharray="9 8"/>
<path d="M 1285.9 520.4 Q 1411.1 520.3 1539.7 520.6 M 1539.7 520.7 Q 1541.6 613.8 1540.3 709.5 M 1538.9 709.1 Q 1411.7 708.8 1285.6 709.6 M 1284.5 710.5 Q 1285.6 613.6 1285.5 521.0" stroke="#c92a2a" stroke-width="1.32" opacity="0.55" fill="none" stroke-linecap="round" stroke-dasharray="9 8"/>
<text x="1412" y="561" font-family="Chalkboard SE, Comic Sans MS, sans-serif" font-size="22" font-weight="800" fill="#c92a2a" text-anchor="middle">Runtime boundary</text>
<text x="1412" y="602" font-family="Chalkboard SE, Comic Sans MS, sans-serif" font-size="18" font-weight="500" fill="#172033" text-anchor="middle">CUDA/NVML paths</text>
<text x="1412" y="628.1" font-family="Chalkboard SE, Comic Sans MS, sans-serif" font-size="18" font-weight="500" fill="#172033" text-anchor="middle">inside the process</text>
<text x="1412" y="654.2" font-family="Chalkboard SE, Comic Sans MS, sans-serif" font-size="18" font-weight="500" fill="#172033" text-anchor="middle">software-enforced</text>
<path d="M 1282.3 615.7 Q 949.5 613.2 614.7 614.7" stroke="#c92a2a" stroke-width="2.6" fill="none" stroke-linecap="round" stroke-dasharray="8 8"/>
<path d="M 616.5 615.2 Q 621.1 610.8 628.0 606.2" stroke="#c92a2a" stroke-width="2.6" fill="none" stroke-linecap="round"/>
<path d="M 614.1 615.8 Q 619.2 617.3 626.7 622.5" stroke="#c92a2a" stroke-width="2.6" fill="none" stroke-linecap="round"/>
<text x="800" y="855" font-family="Chalkboard SE, Comic Sans MS, sans-serif" font-size="23" font-weight="500" fill="#5c677d" text-anchor="middle">The scheduler prevents over-commit at placement; HAMi-Core enforces the chosen grant at runtime.</text>
</svg>